G04 #@! TF.GenerationSoftware,KiCad,Pcbnew,(6.0.0)*
G04 #@! TF.CreationDate,2022-05-01T20:50:51-06:00*
G04 #@! TF.ProjectId,RX12G,52583132-472e-46b6-9963-61645f706362,rev?*
G04 #@! TF.SameCoordinates,Original*
G04 #@! TF.FileFunction,Soldermask,Bot*
G04 #@! TF.FilePolarity,Negative*
%FSLAX46Y46*%
G04 Gerber Fmt 4.6, Leading zero omitted, Abs format (unit mm)*
G04 Created by KiCad (PCBNEW (6.0.0)) date 2022-05-01 20:50:51*
%MOMM*%
%LPD*%
G01*
G04 APERTURE LIST*
G04 Aperture macros list*
%AMRoundRect*
0 Rectangle with rounded corners*
0 $1 Rounding radius*
0 $2 $3 $4 $5 $6 $7 $8 $9 X,Y pos of 4 corners*
0 Add a 4 corners polygon primitive as box body*
4,1,4,$2,$3,$4,$5,$6,$7,$8,$9,$2,$3,0*
0 Add four circle primitives for the rounded corners*
1,1,$1+$1,$2,$3*
1,1,$1+$1,$4,$5*
1,1,$1+$1,$6,$7*
1,1,$1+$1,$8,$9*
0 Add four rect primitives between the rounded corners*
20,1,$1+$1,$2,$3,$4,$5,0*
20,1,$1+$1,$4,$5,$6,$7,0*
20,1,$1+$1,$6,$7,$8,$9,0*
20,1,$1+$1,$8,$9,$2,$3,0*%
G04 Aperture macros list end*
%ADD10RoundRect,0.250000X-0.265000X-0.615000X0.265000X-0.615000X0.265000X0.615000X-0.265000X0.615000X0*%
%ADD11O,1.030000X1.730000*%
%ADD12R,1.650000X1.650000*%
%ADD13C,1.650000*%
%ADD14RoundRect,0.250000X0.265000X0.615000X-0.265000X0.615000X-0.265000X-0.615000X0.265000X-0.615000X0*%
%ADD15O,0.950000X1.250000*%
%ADD16O,1.550000X0.890000*%
%ADD17R,1.700000X1.700000*%
%ADD18O,1.700000X1.700000*%
G04 APERTURE END LIST*
D10*
X136500000Y-122100000D03*
D11*
X138000000Y-122100000D03*
X139500000Y-122100000D03*
D12*
X152047500Y-105690000D03*
D13*
X154587500Y-105690000D03*
X157127500Y-105690000D03*
X152047500Y-108230000D03*
X154587500Y-108230000D03*
X157127500Y-108230000D03*
X152047500Y-110770000D03*
X154587500Y-110770000D03*
X157127500Y-110770000D03*
X152047500Y-113310000D03*
X154587500Y-113310000D03*
X157127500Y-113310000D03*
D14*
X144200000Y-96950000D03*
D11*
X142700000Y-96950000D03*
X141200000Y-96950000D03*
D12*
X152047500Y-93490000D03*
D13*
X154587500Y-93490000D03*
X157127500Y-93490000D03*
X152047500Y-96030000D03*
X154587500Y-96030000D03*
X157127500Y-96030000D03*
X152047500Y-98570000D03*
X154587500Y-98570000D03*
X157127500Y-98570000D03*
X152047500Y-101110000D03*
X154587500Y-101110000D03*
X157127500Y-101110000D03*
D15*
X124385000Y-115700000D03*
X124385000Y-120700000D03*
D16*
X121685000Y-114700000D03*
X121685000Y-121700000D03*
D12*
X152047500Y-117890000D03*
D13*
X154587500Y-117890000D03*
X157127500Y-117890000D03*
X152047500Y-120430000D03*
X154587500Y-120430000D03*
X157127500Y-120430000D03*
X152047500Y-122970000D03*
X154587500Y-122970000D03*
X157127500Y-122970000D03*
X152047500Y-125510000D03*
X154587500Y-125510000D03*
X157127500Y-125510000D03*
D14*
X132700000Y-96950000D03*
D11*
X131200000Y-96950000D03*
X129700000Y-96950000D03*
D17*
X122225000Y-124700000D03*
D18*
X124765000Y-124700000D03*
X127305000Y-124700000D03*
X129845000Y-124700000D03*
X132385000Y-124700000D03*
M02*
