G04 #@! TF.GenerationSoftware,KiCad,Pcbnew,(6.0.0)*
G04 #@! TF.CreationDate,2022-05-01T20:50:51-06:00*
G04 #@! TF.ProjectId,RX12G,52583132-472e-46b6-9963-61645f706362,rev?*
G04 #@! TF.SameCoordinates,Original*
G04 #@! TF.FileFunction,Copper,L2,Inr*
G04 #@! TF.FilePolarity,Positive*
%FSLAX46Y46*%
G04 Gerber Fmt 4.6, Leading zero omitted, Abs format (unit mm)*
G04 Created by KiCad (PCBNEW (6.0.0)) date 2022-05-01 20:50:51*
%MOMM*%
%LPD*%
G01*
G04 APERTURE LIST*
G04 Aperture macros list*
%AMRoundRect*
0 Rectangle with rounded corners*
0 $1 Rounding radius*
0 $2 $3 $4 $5 $6 $7 $8 $9 X,Y pos of 4 corners*
0 Add a 4 corners polygon primitive as box body*
4,1,4,$2,$3,$4,$5,$6,$7,$8,$9,$2,$3,0*
0 Add four circle primitives for the rounded corners*
1,1,$1+$1,$2,$3*
1,1,$1+$1,$4,$5*
1,1,$1+$1,$6,$7*
1,1,$1+$1,$8,$9*
0 Add four rect primitives between the rounded corners*
20,1,$1+$1,$2,$3,$4,$5,0*
20,1,$1+$1,$4,$5,$6,$7,0*
20,1,$1+$1,$6,$7,$8,$9,0*
20,1,$1+$1,$8,$9,$2,$3,0*%
G04 Aperture macros list end*
G04 #@! TA.AperFunction,ComponentPad*
%ADD10RoundRect,0.250000X-0.265000X-0.615000X0.265000X-0.615000X0.265000X0.615000X-0.265000X0.615000X0*%
G04 #@! TD*
G04 #@! TA.AperFunction,ComponentPad*
%ADD11O,1.030000X1.730000*%
G04 #@! TD*
G04 #@! TA.AperFunction,ComponentPad*
%ADD12R,1.650000X1.650000*%
G04 #@! TD*
G04 #@! TA.AperFunction,ComponentPad*
%ADD13C,1.650000*%
G04 #@! TD*
G04 #@! TA.AperFunction,ComponentPad*
%ADD14RoundRect,0.250000X0.265000X0.615000X-0.265000X0.615000X-0.265000X-0.615000X0.265000X-0.615000X0*%
G04 #@! TD*
G04 #@! TA.AperFunction,ComponentPad*
%ADD15O,0.950000X1.250000*%
G04 #@! TD*
G04 #@! TA.AperFunction,ComponentPad*
%ADD16O,1.550000X0.890000*%
G04 #@! TD*
G04 #@! TA.AperFunction,ComponentPad*
%ADD17R,1.700000X1.700000*%
G04 #@! TD*
G04 #@! TA.AperFunction,ComponentPad*
%ADD18O,1.700000X1.700000*%
G04 #@! TD*
G04 #@! TA.AperFunction,ViaPad*
%ADD19C,0.600000*%
G04 #@! TD*
G04 APERTURE END LIST*
D10*
X136500000Y-122100000D03*
D11*
X138000000Y-122100000D03*
X139500000Y-122100000D03*
D12*
X152047500Y-105690000D03*
D13*
X154587500Y-105690000D03*
X157127500Y-105690000D03*
X152047500Y-108230000D03*
X154587500Y-108230000D03*
X157127500Y-108230000D03*
X152047500Y-110770000D03*
X154587500Y-110770000D03*
X157127500Y-110770000D03*
X152047500Y-113310000D03*
X154587500Y-113310000D03*
X157127500Y-113310000D03*
D14*
X144200000Y-96950000D03*
D11*
X142700000Y-96950000D03*
X141200000Y-96950000D03*
D12*
X152047500Y-93490000D03*
D13*
X154587500Y-93490000D03*
X157127500Y-93490000D03*
X152047500Y-96030000D03*
X154587500Y-96030000D03*
X157127500Y-96030000D03*
X152047500Y-98570000D03*
X154587500Y-98570000D03*
X157127500Y-98570000D03*
X152047500Y-101110000D03*
X154587500Y-101110000D03*
X157127500Y-101110000D03*
D15*
X124385000Y-115700000D03*
X124385000Y-120700000D03*
D16*
X121685000Y-114700000D03*
X121685000Y-121700000D03*
D12*
X152047500Y-117890000D03*
D13*
X154587500Y-117890000D03*
X157127500Y-117890000D03*
X152047500Y-120430000D03*
X154587500Y-120430000D03*
X157127500Y-120430000D03*
X152047500Y-122970000D03*
X154587500Y-122970000D03*
X157127500Y-122970000D03*
X152047500Y-125510000D03*
X154587500Y-125510000D03*
X157127500Y-125510000D03*
D14*
X132700000Y-96950000D03*
D11*
X131200000Y-96950000D03*
X129700000Y-96950000D03*
D17*
X122225000Y-124700000D03*
D18*
X124765000Y-124700000D03*
X127305000Y-124700000D03*
X129845000Y-124700000D03*
X132385000Y-124700000D03*
D19*
X126400000Y-106625000D03*
X146500000Y-120300000D03*
X137167267Y-109008125D03*
X136500000Y-117000000D03*
X122000000Y-105500000D03*
X139492203Y-117749553D03*
X150100000Y-108100000D03*
X133980000Y-105180000D03*
X131600000Y-107300000D03*
X140400000Y-104600000D03*
X128400000Y-113300000D03*
X133200000Y-108300000D03*
X147350000Y-120650000D03*
X141400000Y-104500000D03*
X135400000Y-116100000D03*
X123400000Y-110000000D03*
X141900000Y-122800000D03*
X138940000Y-95260000D03*
X142000000Y-113300000D03*
X124500000Y-97100000D03*
X127150000Y-115050000D03*
X147300000Y-94000000D03*
X137800000Y-96300000D03*
X146400000Y-115900000D03*
X133020000Y-105120000D03*
X126200000Y-108400000D03*
X145402500Y-109097500D03*
X131700000Y-110600000D03*
X127600000Y-104100000D03*
X128800000Y-106000000D03*
X141300000Y-120000000D03*
X146300000Y-117500000D03*
X122712500Y-104387500D03*
X137197499Y-106597499D03*
X120850000Y-103550000D03*
X142300000Y-106100000D03*
X138100000Y-118700000D03*
X137380400Y-105624500D03*
X138400000Y-105100000D03*
X146800000Y-98300000D03*
X136300000Y-101200000D03*
X141000000Y-113000000D03*
X127715000Y-108915000D03*
X133600000Y-111300000D03*
G04 #@! TA.AperFunction,Conductor*
G36*
X150656121Y-92528002D02*
G01*
X150702614Y-92581658D01*
X150714000Y-92634000D01*
X150714000Y-94363134D01*
X150720755Y-94425316D01*
X150771885Y-94561705D01*
X150859239Y-94678261D01*
X150975795Y-94765615D01*
X150984203Y-94768767D01*
X151104789Y-94813973D01*
X151104791Y-94813973D01*
X151112184Y-94816745D01*
X151111840Y-94817661D01*
X151167454Y-94849434D01*
X151200272Y-94912390D01*
X151193845Y-94983095D01*
X151165754Y-95025892D01*
X151022078Y-95169568D01*
X151018921Y-95174076D01*
X151018919Y-95174079D01*
X150891401Y-95356194D01*
X150891400Y-95356196D01*
X150888244Y-95360703D01*
X150885921Y-95365685D01*
X150885918Y-95365690D01*
X150791956Y-95567192D01*
X150789633Y-95572174D01*
X150788211Y-95577482D01*
X150788210Y-95577484D01*
X150730666Y-95792241D01*
X150729242Y-95797556D01*
X150708906Y-96030000D01*
X150729242Y-96262444D01*
X150789633Y-96487826D01*
X150791955Y-96492806D01*
X150791956Y-96492808D01*
X150885918Y-96694310D01*
X150885921Y-96694315D01*
X150888244Y-96699297D01*
X150891398Y-96703801D01*
X150891401Y-96703806D01*
X150962208Y-96804928D01*
X151022078Y-96890432D01*
X151187068Y-97055422D01*
X151191576Y-97058579D01*
X151191579Y-97058581D01*
X151282491Y-97122238D01*
X151378203Y-97189256D01*
X151382207Y-97191123D01*
X151430969Y-97242264D01*
X151444405Y-97311977D01*
X151418018Y-97377888D01*
X151382312Y-97408828D01*
X151378203Y-97410744D01*
X151373699Y-97413898D01*
X151191579Y-97541419D01*
X151191576Y-97541421D01*
X151187068Y-97544578D01*
X151022078Y-97709568D01*
X151018921Y-97714076D01*
X151018919Y-97714079D01*
X150891401Y-97896194D01*
X150891400Y-97896196D01*
X150888244Y-97900703D01*
X150885921Y-97905685D01*
X150885918Y-97905690D01*
X150794346Y-98102066D01*
X150789633Y-98112174D01*
X150788211Y-98117482D01*
X150788210Y-98117484D01*
X150733096Y-98323172D01*
X150729242Y-98337556D01*
X150708906Y-98570000D01*
X150729242Y-98802444D01*
X150789633Y-99027826D01*
X150791955Y-99032806D01*
X150791956Y-99032808D01*
X150885918Y-99234310D01*
X150885921Y-99234315D01*
X150888244Y-99239297D01*
X150891398Y-99243801D01*
X150891401Y-99243806D01*
X150962208Y-99344928D01*
X151022078Y-99430432D01*
X151187068Y-99595422D01*
X151191576Y-99598579D01*
X151191579Y-99598581D01*
X151282491Y-99662238D01*
X151378203Y-99729256D01*
X151382207Y-99731123D01*
X151430969Y-99782264D01*
X151444405Y-99851977D01*
X151418018Y-99917888D01*
X151382312Y-99948828D01*
X151378203Y-99950744D01*
X151373699Y-99953898D01*
X151191579Y-100081419D01*
X151191576Y-100081421D01*
X151187068Y-100084578D01*
X151022078Y-100249568D01*
X151018921Y-100254076D01*
X151018919Y-100254079D01*
X150891401Y-100436194D01*
X150891400Y-100436196D01*
X150888244Y-100440703D01*
X150885921Y-100445685D01*
X150885918Y-100445690D01*
X150833145Y-100558862D01*
X150789633Y-100652174D01*
X150788211Y-100657482D01*
X150788210Y-100657484D01*
X150737041Y-100848448D01*
X150729242Y-100877556D01*
X150708906Y-101110000D01*
X150729242Y-101342444D01*
X150730666Y-101347757D01*
X150730666Y-101347759D01*
X150745291Y-101402338D01*
X150789633Y-101567826D01*
X150791955Y-101572806D01*
X150791956Y-101572808D01*
X150885918Y-101774310D01*
X150885921Y-101774315D01*
X150888244Y-101779297D01*
X150891398Y-101783801D01*
X150891401Y-101783806D01*
X151002957Y-101943124D01*
X151022078Y-101970432D01*
X151187068Y-102135422D01*
X151191576Y-102138579D01*
X151191579Y-102138581D01*
X151373694Y-102266099D01*
X151378203Y-102269256D01*
X151383185Y-102271579D01*
X151383190Y-102271582D01*
X151583680Y-102365072D01*
X151589674Y-102367867D01*
X151594982Y-102369289D01*
X151594984Y-102369290D01*
X151809741Y-102426834D01*
X151809743Y-102426834D01*
X151815056Y-102428258D01*
X152047500Y-102448594D01*
X152279944Y-102428258D01*
X152285257Y-102426834D01*
X152285259Y-102426834D01*
X152500016Y-102369290D01*
X152500018Y-102369289D01*
X152505326Y-102367867D01*
X152511320Y-102365072D01*
X152711810Y-102271582D01*
X152711815Y-102271579D01*
X152716797Y-102269256D01*
X152721306Y-102266099D01*
X152903421Y-102138581D01*
X152903424Y-102138579D01*
X152907932Y-102135422D01*
X153072922Y-101970432D01*
X153092044Y-101943124D01*
X153197125Y-101793051D01*
X153206756Y-101779297D01*
X153208623Y-101775293D01*
X153259764Y-101726531D01*
X153329477Y-101713095D01*
X153395388Y-101739482D01*
X153426328Y-101775188D01*
X153428244Y-101779297D01*
X153437875Y-101793051D01*
X153542957Y-101943124D01*
X153562078Y-101970432D01*
X153727068Y-102135422D01*
X153731576Y-102138579D01*
X153731579Y-102138581D01*
X153913694Y-102266099D01*
X153918203Y-102269256D01*
X153923185Y-102271579D01*
X153923190Y-102271582D01*
X154123680Y-102365072D01*
X154129674Y-102367867D01*
X154134982Y-102369289D01*
X154134984Y-102369290D01*
X154349741Y-102426834D01*
X154349743Y-102426834D01*
X154355056Y-102428258D01*
X154587500Y-102448594D01*
X154819944Y-102428258D01*
X154825257Y-102426834D01*
X154825259Y-102426834D01*
X155040016Y-102369290D01*
X155040018Y-102369289D01*
X155045326Y-102367867D01*
X155051320Y-102365072D01*
X155251810Y-102271582D01*
X155251815Y-102271579D01*
X155256797Y-102269256D01*
X155261306Y-102266099D01*
X155335693Y-102214013D01*
X156388042Y-102214013D01*
X156397338Y-102226028D01*
X156453946Y-102265665D01*
X156463441Y-102271148D01*
X156664864Y-102365072D01*
X156675156Y-102368818D01*
X156889828Y-102426339D01*
X156900623Y-102428242D01*
X157122025Y-102447613D01*
X157132975Y-102447613D01*
X157354377Y-102428242D01*
X157365172Y-102426339D01*
X157579844Y-102368818D01*
X157590136Y-102365072D01*
X157791559Y-102271148D01*
X157801054Y-102265665D01*
X157858500Y-102225441D01*
X157866875Y-102214964D01*
X157859807Y-102201517D01*
X157140312Y-101482022D01*
X157126368Y-101474408D01*
X157124535Y-101474539D01*
X157117920Y-101478790D01*
X156394472Y-102202238D01*
X156388042Y-102214013D01*
X155335693Y-102214013D01*
X155443421Y-102138581D01*
X155443424Y-102138579D01*
X155447932Y-102135422D01*
X155612922Y-101970432D01*
X155632044Y-101943124D01*
X155710721Y-101830760D01*
X155746756Y-101779297D01*
X155748812Y-101774887D01*
X155800051Y-101726030D01*
X155869765Y-101712593D01*
X155935676Y-101738979D01*
X155966906Y-101775019D01*
X155971832Y-101783551D01*
X156012059Y-101841000D01*
X156022536Y-101849375D01*
X156035983Y-101842307D01*
X156755478Y-101122812D01*
X156763092Y-101108868D01*
X156762961Y-101107035D01*
X156758710Y-101100420D01*
X156035262Y-100376972D01*
X156023487Y-100370542D01*
X156011472Y-100379838D01*
X155971832Y-100436449D01*
X155966906Y-100444981D01*
X155915521Y-100493973D01*
X155845807Y-100507406D01*
X155779897Y-100481017D01*
X155748841Y-100445175D01*
X155746756Y-100440703D01*
X155612922Y-100249568D01*
X155447932Y-100084578D01*
X155443424Y-100081421D01*
X155443421Y-100081419D01*
X155261301Y-99953898D01*
X155256797Y-99950744D01*
X155252793Y-99948877D01*
X155204031Y-99897736D01*
X155190595Y-99828023D01*
X155216982Y-99762112D01*
X155252688Y-99731172D01*
X155256797Y-99729256D01*
X155335692Y-99674013D01*
X156388042Y-99674013D01*
X156397338Y-99686028D01*
X156453946Y-99725665D01*
X156462978Y-99730880D01*
X156511972Y-99782263D01*
X156525409Y-99851976D01*
X156499022Y-99917887D01*
X156462978Y-99949120D01*
X156453946Y-99954335D01*
X156396500Y-99994559D01*
X156388125Y-100005036D01*
X156395193Y-100018483D01*
X157114688Y-100737978D01*
X157128632Y-100745592D01*
X157130465Y-100745461D01*
X157137080Y-100741210D01*
X157860528Y-100017762D01*
X157866958Y-100005987D01*
X157857662Y-99993972D01*
X157801054Y-99954335D01*
X157792022Y-99949120D01*
X157743028Y-99897737D01*
X157729591Y-99828024D01*
X157755978Y-99762113D01*
X157792022Y-99730880D01*
X157801054Y-99725665D01*
X157858500Y-99685441D01*
X157866875Y-99674964D01*
X157859807Y-99661517D01*
X157140312Y-98942022D01*
X157126368Y-98934408D01*
X157124535Y-98934539D01*
X157117920Y-98938790D01*
X156394472Y-99662238D01*
X156388042Y-99674013D01*
X155335692Y-99674013D01*
X155352509Y-99662238D01*
X155443421Y-99598581D01*
X155443424Y-99598579D01*
X155447932Y-99595422D01*
X155612922Y-99430432D01*
X155746756Y-99239297D01*
X155748812Y-99234887D01*
X155800051Y-99186030D01*
X155869765Y-99172593D01*
X155935676Y-99198979D01*
X155966906Y-99235019D01*
X155971832Y-99243551D01*
X156012059Y-99301000D01*
X156022536Y-99309375D01*
X156035983Y-99302307D01*
X156755478Y-98582812D01*
X156763092Y-98568868D01*
X156762961Y-98567035D01*
X156758710Y-98560420D01*
X156035262Y-97836972D01*
X156023487Y-97830542D01*
X156011472Y-97839838D01*
X155971832Y-97896449D01*
X155966906Y-97904981D01*
X155915521Y-97953973D01*
X155845807Y-97967406D01*
X155779897Y-97941017D01*
X155748841Y-97905175D01*
X155746756Y-97900703D01*
X155624700Y-97726389D01*
X155616081Y-97714079D01*
X155616079Y-97714076D01*
X155612922Y-97709568D01*
X155447932Y-97544578D01*
X155443424Y-97541421D01*
X155443421Y-97541419D01*
X155261301Y-97413898D01*
X155256797Y-97410744D01*
X155252793Y-97408877D01*
X155204031Y-97357736D01*
X155190595Y-97288023D01*
X155216982Y-97222112D01*
X155252688Y-97191172D01*
X155256797Y-97189256D01*
X155335692Y-97134013D01*
X156388042Y-97134013D01*
X156397338Y-97146028D01*
X156453946Y-97185665D01*
X156462978Y-97190880D01*
X156511972Y-97242263D01*
X156525409Y-97311976D01*
X156499022Y-97377887D01*
X156462978Y-97409120D01*
X156453946Y-97414335D01*
X156396500Y-97454559D01*
X156388125Y-97465036D01*
X156395193Y-97478483D01*
X157114688Y-98197978D01*
X157128632Y-98205592D01*
X157130465Y-98205461D01*
X157137080Y-98201210D01*
X157860528Y-97477762D01*
X157866958Y-97465987D01*
X157857662Y-97453972D01*
X157801054Y-97414335D01*
X157792022Y-97409120D01*
X157743028Y-97357737D01*
X157729591Y-97288024D01*
X157755978Y-97222113D01*
X157792022Y-97190880D01*
X157801054Y-97185665D01*
X157858500Y-97145441D01*
X157866875Y-97134964D01*
X157859807Y-97121517D01*
X157140312Y-96402022D01*
X157126368Y-96394408D01*
X157124535Y-96394539D01*
X157117920Y-96398790D01*
X156394472Y-97122238D01*
X156388042Y-97134013D01*
X155335692Y-97134013D01*
X155352509Y-97122238D01*
X155443421Y-97058581D01*
X155443424Y-97058579D01*
X155447932Y-97055422D01*
X155612922Y-96890432D01*
X155746756Y-96699297D01*
X155748812Y-96694887D01*
X155800051Y-96646030D01*
X155869765Y-96632593D01*
X155935676Y-96658979D01*
X155966906Y-96695019D01*
X155971832Y-96703551D01*
X156012059Y-96761000D01*
X156022536Y-96769375D01*
X156035983Y-96762307D01*
X156755478Y-96042812D01*
X156763092Y-96028868D01*
X156762961Y-96027035D01*
X156758710Y-96020420D01*
X156035262Y-95296972D01*
X156023487Y-95290542D01*
X156011472Y-95299838D01*
X155971832Y-95356449D01*
X155966906Y-95364981D01*
X155915521Y-95413973D01*
X155845807Y-95427406D01*
X155779897Y-95401017D01*
X155748841Y-95365175D01*
X155746756Y-95360703D01*
X155612922Y-95169568D01*
X155447932Y-95004578D01*
X155443424Y-95001421D01*
X155443421Y-95001419D01*
X155261301Y-94873898D01*
X155256797Y-94870744D01*
X155252793Y-94868877D01*
X155204031Y-94817736D01*
X155190595Y-94748023D01*
X155216982Y-94682112D01*
X155252688Y-94651172D01*
X155256797Y-94649256D01*
X155335692Y-94594013D01*
X156388042Y-94594013D01*
X156397338Y-94606028D01*
X156453946Y-94645665D01*
X156462978Y-94650880D01*
X156511972Y-94702263D01*
X156525409Y-94771976D01*
X156499022Y-94837887D01*
X156462978Y-94869120D01*
X156453946Y-94874335D01*
X156396500Y-94914559D01*
X156388125Y-94925036D01*
X156395193Y-94938483D01*
X157114688Y-95657978D01*
X157128632Y-95665592D01*
X157130465Y-95665461D01*
X157137080Y-95661210D01*
X157860528Y-94937762D01*
X157866958Y-94925987D01*
X157857662Y-94913972D01*
X157801054Y-94874335D01*
X157792022Y-94869120D01*
X157743028Y-94817737D01*
X157729591Y-94748024D01*
X157755978Y-94682113D01*
X157792022Y-94650880D01*
X157801054Y-94645665D01*
X157858500Y-94605441D01*
X157866875Y-94594964D01*
X157859807Y-94581517D01*
X157140312Y-93862022D01*
X157126368Y-93854408D01*
X157124535Y-93854539D01*
X157117920Y-93858790D01*
X156394472Y-94582238D01*
X156388042Y-94594013D01*
X155335692Y-94594013D01*
X155352509Y-94582238D01*
X155443421Y-94518581D01*
X155443424Y-94518579D01*
X155447932Y-94515422D01*
X155612922Y-94350432D01*
X155617668Y-94343655D01*
X155743599Y-94163805D01*
X155746756Y-94159297D01*
X155748812Y-94154887D01*
X155800051Y-94106030D01*
X155869765Y-94092593D01*
X155935676Y-94118979D01*
X155966906Y-94155019D01*
X155971832Y-94163551D01*
X156012059Y-94221000D01*
X156022536Y-94229375D01*
X156035983Y-94222307D01*
X157038405Y-93219885D01*
X157100717Y-93185859D01*
X157171532Y-93190924D01*
X157216595Y-93219885D01*
X158219738Y-94223028D01*
X158231513Y-94229458D01*
X158243527Y-94220162D01*
X158262787Y-94192657D01*
X158318244Y-94148329D01*
X158388863Y-94141020D01*
X158452224Y-94173051D01*
X158488209Y-94234252D01*
X158492000Y-94264928D01*
X158492000Y-95255072D01*
X158471998Y-95323193D01*
X158418342Y-95369686D01*
X158348068Y-95379790D01*
X158283488Y-95350296D01*
X158262787Y-95327343D01*
X158242941Y-95299000D01*
X158232464Y-95290625D01*
X158219017Y-95297693D01*
X157499522Y-96017188D01*
X157491908Y-96031132D01*
X157492039Y-96032965D01*
X157496290Y-96039580D01*
X158219738Y-96763028D01*
X158231513Y-96769458D01*
X158243527Y-96760162D01*
X158262787Y-96732657D01*
X158318244Y-96688329D01*
X158388863Y-96681020D01*
X158452224Y-96713051D01*
X158488209Y-96774252D01*
X158492000Y-96804928D01*
X158492000Y-97795072D01*
X158471998Y-97863193D01*
X158418342Y-97909686D01*
X158348068Y-97919790D01*
X158283488Y-97890296D01*
X158262787Y-97867343D01*
X158242941Y-97839000D01*
X158232464Y-97830625D01*
X158219017Y-97837693D01*
X157499522Y-98557188D01*
X157491908Y-98571132D01*
X157492039Y-98572965D01*
X157496290Y-98579580D01*
X158219738Y-99303028D01*
X158231513Y-99309458D01*
X158243527Y-99300162D01*
X158262787Y-99272657D01*
X158318244Y-99228329D01*
X158388863Y-99221020D01*
X158452224Y-99253051D01*
X158488209Y-99314252D01*
X158492000Y-99344928D01*
X158492000Y-100335072D01*
X158471998Y-100403193D01*
X158418342Y-100449686D01*
X158348068Y-100459790D01*
X158283488Y-100430296D01*
X158262787Y-100407343D01*
X158242941Y-100379000D01*
X158232464Y-100370625D01*
X158219017Y-100377693D01*
X157499522Y-101097188D01*
X157491908Y-101111132D01*
X157492039Y-101112965D01*
X157496290Y-101119580D01*
X158219738Y-101843028D01*
X158231513Y-101849458D01*
X158243527Y-101840162D01*
X158262787Y-101812657D01*
X158318244Y-101768329D01*
X158388863Y-101761020D01*
X158452224Y-101793051D01*
X158488209Y-101854252D01*
X158492000Y-101884928D01*
X158492000Y-104915072D01*
X158471998Y-104983193D01*
X158418342Y-105029686D01*
X158348068Y-105039790D01*
X158283488Y-105010296D01*
X158262787Y-104987343D01*
X158242941Y-104959000D01*
X158232464Y-104950625D01*
X158219017Y-104957693D01*
X157499522Y-105677188D01*
X157491908Y-105691132D01*
X157492039Y-105692965D01*
X157496290Y-105699580D01*
X158219738Y-106423028D01*
X158231513Y-106429458D01*
X158243527Y-106420162D01*
X158262787Y-106392657D01*
X158318244Y-106348329D01*
X158388863Y-106341020D01*
X158452224Y-106373051D01*
X158488209Y-106434252D01*
X158492000Y-106464928D01*
X158492000Y-107455072D01*
X158471998Y-107523193D01*
X158418342Y-107569686D01*
X158348068Y-107579790D01*
X158283488Y-107550296D01*
X158262787Y-107527343D01*
X158242941Y-107499000D01*
X158232464Y-107490625D01*
X158219017Y-107497693D01*
X157499522Y-108217188D01*
X157491908Y-108231132D01*
X157492039Y-108232965D01*
X157496290Y-108239580D01*
X158219738Y-108963028D01*
X158231513Y-108969458D01*
X158243527Y-108960162D01*
X158262787Y-108932657D01*
X158318244Y-108888329D01*
X158388863Y-108881020D01*
X158452224Y-108913051D01*
X158488209Y-108974252D01*
X158492000Y-109004928D01*
X158492000Y-109995072D01*
X158471998Y-110063193D01*
X158418342Y-110109686D01*
X158348068Y-110119790D01*
X158283488Y-110090296D01*
X158262787Y-110067343D01*
X158242941Y-110039000D01*
X158232464Y-110030625D01*
X158219017Y-110037693D01*
X157499522Y-110757188D01*
X157491908Y-110771132D01*
X157492039Y-110772965D01*
X157496290Y-110779580D01*
X158219738Y-111503028D01*
X158231513Y-111509458D01*
X158243527Y-111500162D01*
X158262787Y-111472657D01*
X158318244Y-111428329D01*
X158388863Y-111421020D01*
X158452224Y-111453051D01*
X158488209Y-111514252D01*
X158492000Y-111544928D01*
X158492000Y-112535072D01*
X158471998Y-112603193D01*
X158418342Y-112649686D01*
X158348068Y-112659790D01*
X158283488Y-112630296D01*
X158262787Y-112607343D01*
X158242941Y-112579000D01*
X158232464Y-112570625D01*
X158219017Y-112577693D01*
X157499522Y-113297188D01*
X157491908Y-113311132D01*
X157492039Y-113312965D01*
X157496290Y-113319580D01*
X158219738Y-114043028D01*
X158231513Y-114049458D01*
X158243527Y-114040162D01*
X158262787Y-114012657D01*
X158318244Y-113968329D01*
X158388863Y-113961020D01*
X158452224Y-113993051D01*
X158488209Y-114054252D01*
X158492000Y-114084928D01*
X158492000Y-117115072D01*
X158471998Y-117183193D01*
X158418342Y-117229686D01*
X158348068Y-117239790D01*
X158283488Y-117210296D01*
X158262787Y-117187343D01*
X158242941Y-117159000D01*
X158232464Y-117150625D01*
X158219017Y-117157693D01*
X157499522Y-117877188D01*
X157491908Y-117891132D01*
X157492039Y-117892965D01*
X157496290Y-117899580D01*
X158219738Y-118623028D01*
X158231513Y-118629458D01*
X158243527Y-118620162D01*
X158262787Y-118592657D01*
X158318244Y-118548329D01*
X158388863Y-118541020D01*
X158452224Y-118573051D01*
X158488209Y-118634252D01*
X158492000Y-118664928D01*
X158492000Y-119655072D01*
X158471998Y-119723193D01*
X158418342Y-119769686D01*
X158348068Y-119779790D01*
X158283488Y-119750296D01*
X158262787Y-119727343D01*
X158242941Y-119699000D01*
X158232464Y-119690625D01*
X158219017Y-119697693D01*
X157499522Y-120417188D01*
X157491908Y-120431132D01*
X157492039Y-120432965D01*
X157496290Y-120439580D01*
X158219738Y-121163028D01*
X158231513Y-121169458D01*
X158243527Y-121160162D01*
X158262787Y-121132657D01*
X158318244Y-121088329D01*
X158388863Y-121081020D01*
X158452224Y-121113051D01*
X158488209Y-121174252D01*
X158492000Y-121204928D01*
X158492000Y-122195072D01*
X158471998Y-122263193D01*
X158418342Y-122309686D01*
X158348068Y-122319790D01*
X158283488Y-122290296D01*
X158262787Y-122267343D01*
X158242941Y-122239000D01*
X158232464Y-122230625D01*
X158219017Y-122237693D01*
X157499522Y-122957188D01*
X157491908Y-122971132D01*
X157492039Y-122972965D01*
X157496290Y-122979580D01*
X158219738Y-123703028D01*
X158231513Y-123709458D01*
X158243527Y-123700162D01*
X158262787Y-123672657D01*
X158318244Y-123628329D01*
X158388863Y-123621020D01*
X158452224Y-123653051D01*
X158488209Y-123714252D01*
X158492000Y-123744928D01*
X158492000Y-124735072D01*
X158471998Y-124803193D01*
X158418342Y-124849686D01*
X158348068Y-124859790D01*
X158283488Y-124830296D01*
X158262787Y-124807343D01*
X158242941Y-124779000D01*
X158232464Y-124770625D01*
X158219017Y-124777693D01*
X157216595Y-125780115D01*
X157154283Y-125814141D01*
X157083468Y-125809076D01*
X157038405Y-125780115D01*
X156035262Y-124776972D01*
X156023487Y-124770542D01*
X156011472Y-124779838D01*
X155971832Y-124836449D01*
X155966906Y-124844981D01*
X155915521Y-124893973D01*
X155845807Y-124907406D01*
X155779897Y-124881017D01*
X155748841Y-124845175D01*
X155746756Y-124840703D01*
X155648235Y-124700000D01*
X155616081Y-124654079D01*
X155616079Y-124654076D01*
X155612922Y-124649568D01*
X155447932Y-124484578D01*
X155443424Y-124481421D01*
X155443421Y-124481419D01*
X155261301Y-124353898D01*
X155256797Y-124350744D01*
X155252793Y-124348877D01*
X155204031Y-124297736D01*
X155190595Y-124228023D01*
X155216982Y-124162112D01*
X155252688Y-124131172D01*
X155256797Y-124129256D01*
X155335692Y-124074013D01*
X156388042Y-124074013D01*
X156397338Y-124086028D01*
X156453946Y-124125665D01*
X156462978Y-124130880D01*
X156511972Y-124182263D01*
X156525409Y-124251976D01*
X156499022Y-124317887D01*
X156462978Y-124349120D01*
X156453946Y-124354335D01*
X156396500Y-124394559D01*
X156388125Y-124405036D01*
X156395193Y-124418483D01*
X157114688Y-125137978D01*
X157128632Y-125145592D01*
X157130465Y-125145461D01*
X157137080Y-125141210D01*
X157860528Y-124417762D01*
X157866958Y-124405987D01*
X157857662Y-124393972D01*
X157801054Y-124354335D01*
X157792022Y-124349120D01*
X157743028Y-124297737D01*
X157729591Y-124228024D01*
X157755978Y-124162113D01*
X157792022Y-124130880D01*
X157801054Y-124125665D01*
X157858500Y-124085441D01*
X157866875Y-124074964D01*
X157859807Y-124061517D01*
X157140312Y-123342022D01*
X157126368Y-123334408D01*
X157124535Y-123334539D01*
X157117920Y-123338790D01*
X156394472Y-124062238D01*
X156388042Y-124074013D01*
X155335692Y-124074013D01*
X155352509Y-124062238D01*
X155443421Y-123998581D01*
X155443424Y-123998579D01*
X155447932Y-123995422D01*
X155612922Y-123830432D01*
X155630532Y-123805283D01*
X155737125Y-123653051D01*
X155746756Y-123639297D01*
X155748812Y-123634887D01*
X155800051Y-123586030D01*
X155869765Y-123572593D01*
X155935676Y-123598979D01*
X155966906Y-123635019D01*
X155971832Y-123643551D01*
X156012059Y-123701000D01*
X156022536Y-123709375D01*
X156035983Y-123702307D01*
X156755478Y-122982812D01*
X156763092Y-122968868D01*
X156762961Y-122967035D01*
X156758710Y-122960420D01*
X156035262Y-122236972D01*
X156023487Y-122230542D01*
X156011472Y-122239838D01*
X155971832Y-122296449D01*
X155966906Y-122304981D01*
X155915521Y-122353973D01*
X155845807Y-122367406D01*
X155779897Y-122341017D01*
X155748841Y-122305175D01*
X155746756Y-122300703D01*
X155612922Y-122109568D01*
X155447932Y-121944578D01*
X155443424Y-121941421D01*
X155443421Y-121941419D01*
X155261301Y-121813898D01*
X155256797Y-121810744D01*
X155252793Y-121808877D01*
X155204031Y-121757736D01*
X155190595Y-121688023D01*
X155216982Y-121622112D01*
X155252688Y-121591172D01*
X155256797Y-121589256D01*
X155335692Y-121534013D01*
X156388042Y-121534013D01*
X156397338Y-121546028D01*
X156453946Y-121585665D01*
X156462978Y-121590880D01*
X156511972Y-121642263D01*
X156525409Y-121711976D01*
X156499022Y-121777887D01*
X156462978Y-121809120D01*
X156453946Y-121814335D01*
X156396500Y-121854559D01*
X156388125Y-121865036D01*
X156395193Y-121878483D01*
X157114688Y-122597978D01*
X157128632Y-122605592D01*
X157130465Y-122605461D01*
X157137080Y-122601210D01*
X157860528Y-121877762D01*
X157866958Y-121865987D01*
X157857662Y-121853972D01*
X157801054Y-121814335D01*
X157792022Y-121809120D01*
X157743028Y-121757737D01*
X157729591Y-121688024D01*
X157755978Y-121622113D01*
X157792022Y-121590880D01*
X157801054Y-121585665D01*
X157858500Y-121545441D01*
X157866875Y-121534964D01*
X157859807Y-121521517D01*
X157140312Y-120802022D01*
X157126368Y-120794408D01*
X157124535Y-120794539D01*
X157117920Y-120798790D01*
X156394472Y-121522238D01*
X156388042Y-121534013D01*
X155335692Y-121534013D01*
X155352509Y-121522238D01*
X155443421Y-121458581D01*
X155443424Y-121458579D01*
X155447932Y-121455422D01*
X155612922Y-121290432D01*
X155653517Y-121232457D01*
X155703551Y-121161000D01*
X155746756Y-121099297D01*
X155748812Y-121094887D01*
X155800051Y-121046030D01*
X155869765Y-121032593D01*
X155935676Y-121058979D01*
X155966906Y-121095019D01*
X155971832Y-121103551D01*
X156012059Y-121161000D01*
X156022536Y-121169375D01*
X156035983Y-121162307D01*
X156755478Y-120442812D01*
X156763092Y-120428868D01*
X156762961Y-120427035D01*
X156758710Y-120420420D01*
X156035262Y-119696972D01*
X156023487Y-119690542D01*
X156011472Y-119699838D01*
X155971832Y-119756449D01*
X155966906Y-119764981D01*
X155915521Y-119813973D01*
X155845807Y-119827406D01*
X155779897Y-119801017D01*
X155748841Y-119765175D01*
X155746756Y-119760703D01*
X155643706Y-119613532D01*
X155616081Y-119574079D01*
X155616079Y-119574076D01*
X155612922Y-119569568D01*
X155447932Y-119404578D01*
X155443424Y-119401421D01*
X155443421Y-119401419D01*
X155261301Y-119273898D01*
X155256797Y-119270744D01*
X155252793Y-119268877D01*
X155204031Y-119217736D01*
X155190595Y-119148023D01*
X155216982Y-119082112D01*
X155252688Y-119051172D01*
X155256797Y-119049256D01*
X155335692Y-118994013D01*
X156388042Y-118994013D01*
X156397338Y-119006028D01*
X156453946Y-119045665D01*
X156462978Y-119050880D01*
X156511972Y-119102263D01*
X156525409Y-119171976D01*
X156499022Y-119237887D01*
X156462978Y-119269120D01*
X156453946Y-119274335D01*
X156396500Y-119314559D01*
X156388125Y-119325036D01*
X156395193Y-119338483D01*
X157114688Y-120057978D01*
X157128632Y-120065592D01*
X157130465Y-120065461D01*
X157137080Y-120061210D01*
X157860528Y-119337762D01*
X157866958Y-119325987D01*
X157857662Y-119313972D01*
X157801054Y-119274335D01*
X157792022Y-119269120D01*
X157743028Y-119217737D01*
X157729591Y-119148024D01*
X157755978Y-119082113D01*
X157792022Y-119050880D01*
X157801054Y-119045665D01*
X157858500Y-119005441D01*
X157866875Y-118994964D01*
X157859807Y-118981517D01*
X157140312Y-118262022D01*
X157126368Y-118254408D01*
X157124535Y-118254539D01*
X157117920Y-118258790D01*
X156394472Y-118982238D01*
X156388042Y-118994013D01*
X155335692Y-118994013D01*
X155352509Y-118982238D01*
X155443421Y-118918581D01*
X155443424Y-118918579D01*
X155447932Y-118915422D01*
X155612922Y-118750432D01*
X155617668Y-118743655D01*
X155743599Y-118563805D01*
X155746756Y-118559297D01*
X155748812Y-118554887D01*
X155800051Y-118506030D01*
X155869765Y-118492593D01*
X155935676Y-118518979D01*
X155966906Y-118555019D01*
X155971832Y-118563551D01*
X156012059Y-118621000D01*
X156022536Y-118629375D01*
X156035983Y-118622307D01*
X156755478Y-117902812D01*
X156763092Y-117888868D01*
X156762961Y-117887035D01*
X156758710Y-117880420D01*
X156035262Y-117156972D01*
X156023487Y-117150542D01*
X156011472Y-117159838D01*
X155971832Y-117216449D01*
X155966906Y-117224981D01*
X155915521Y-117273973D01*
X155845807Y-117287406D01*
X155779897Y-117261017D01*
X155748841Y-117225175D01*
X155746756Y-117220703D01*
X155621823Y-117042280D01*
X155616081Y-117034079D01*
X155616079Y-117034076D01*
X155612922Y-117029568D01*
X155447932Y-116864578D01*
X155443424Y-116861421D01*
X155443421Y-116861419D01*
X155334335Y-116785036D01*
X156388125Y-116785036D01*
X156395193Y-116798483D01*
X157114688Y-117517978D01*
X157128632Y-117525592D01*
X157130465Y-117525461D01*
X157137080Y-117521210D01*
X157860528Y-116797762D01*
X157866958Y-116785987D01*
X157857662Y-116773972D01*
X157801054Y-116734335D01*
X157791559Y-116728852D01*
X157590136Y-116634928D01*
X157579844Y-116631182D01*
X157365172Y-116573661D01*
X157354377Y-116571758D01*
X157132975Y-116552387D01*
X157122025Y-116552387D01*
X156900623Y-116571758D01*
X156889828Y-116573661D01*
X156675156Y-116631182D01*
X156664864Y-116634928D01*
X156463441Y-116728852D01*
X156453946Y-116734335D01*
X156396500Y-116774559D01*
X156388125Y-116785036D01*
X155334335Y-116785036D01*
X155261306Y-116733901D01*
X155261304Y-116733900D01*
X155256797Y-116730744D01*
X155251815Y-116728421D01*
X155251810Y-116728418D01*
X155050308Y-116634456D01*
X155050306Y-116634455D01*
X155045326Y-116632133D01*
X155040018Y-116630711D01*
X155040016Y-116630710D01*
X154825259Y-116573166D01*
X154825257Y-116573166D01*
X154819944Y-116571742D01*
X154587500Y-116551406D01*
X154355056Y-116571742D01*
X154349743Y-116573166D01*
X154349741Y-116573166D01*
X154134984Y-116630710D01*
X154134982Y-116630711D01*
X154129674Y-116632133D01*
X154124694Y-116634455D01*
X154124692Y-116634456D01*
X153923190Y-116728418D01*
X153923185Y-116728421D01*
X153918203Y-116730744D01*
X153913696Y-116733900D01*
X153913694Y-116733901D01*
X153731579Y-116861419D01*
X153731576Y-116861421D01*
X153727068Y-116864578D01*
X153583392Y-117008254D01*
X153521080Y-117042280D01*
X153450265Y-117037215D01*
X153393429Y-116994668D01*
X153374633Y-116954538D01*
X153374245Y-116954684D01*
X153372415Y-116949803D01*
X153371472Y-116947285D01*
X153326267Y-116826703D01*
X153323115Y-116818295D01*
X153235761Y-116701739D01*
X153119205Y-116614385D01*
X152982816Y-116563255D01*
X152920634Y-116556500D01*
X151174366Y-116556500D01*
X151112184Y-116563255D01*
X150975795Y-116614385D01*
X150859239Y-116701739D01*
X150771885Y-116818295D01*
X150720755Y-116954684D01*
X150714000Y-117016866D01*
X150714000Y-118763134D01*
X150720755Y-118825316D01*
X150771885Y-118961705D01*
X150859239Y-119078261D01*
X150975795Y-119165615D01*
X150984203Y-119168767D01*
X151104789Y-119213973D01*
X151104791Y-119213973D01*
X151112184Y-119216745D01*
X151111840Y-119217661D01*
X151167454Y-119249434D01*
X151200272Y-119312390D01*
X151193845Y-119383095D01*
X151165754Y-119425892D01*
X151022078Y-119569568D01*
X151018921Y-119574076D01*
X151018919Y-119574079D01*
X150891401Y-119756194D01*
X150891400Y-119756196D01*
X150888244Y-119760703D01*
X150885921Y-119765685D01*
X150885918Y-119765690D01*
X150797592Y-119955106D01*
X150789633Y-119972174D01*
X150788211Y-119977482D01*
X150788210Y-119977484D01*
X150737468Y-120166857D01*
X150729242Y-120197556D01*
X150708906Y-120430000D01*
X150729242Y-120662444D01*
X150730666Y-120667757D01*
X150730666Y-120667759D01*
X150783599Y-120865305D01*
X150789633Y-120887826D01*
X150791955Y-120892806D01*
X150791956Y-120892808D01*
X150885918Y-121094310D01*
X150885921Y-121094315D01*
X150888244Y-121099297D01*
X150891398Y-121103801D01*
X150891401Y-121103806D01*
X150981484Y-121232457D01*
X151022078Y-121290432D01*
X151187068Y-121455422D01*
X151191576Y-121458579D01*
X151191579Y-121458581D01*
X151282491Y-121522238D01*
X151378203Y-121589256D01*
X151382207Y-121591123D01*
X151430969Y-121642264D01*
X151444405Y-121711977D01*
X151418018Y-121777888D01*
X151382312Y-121808828D01*
X151378203Y-121810744D01*
X151373699Y-121813898D01*
X151191579Y-121941419D01*
X151191576Y-121941421D01*
X151187068Y-121944578D01*
X151022078Y-122109568D01*
X151018921Y-122114076D01*
X151018919Y-122114079D01*
X150891401Y-122296194D01*
X150891400Y-122296196D01*
X150888244Y-122300703D01*
X150885921Y-122305685D01*
X150885918Y-122305690D01*
X150800119Y-122489686D01*
X150789633Y-122512174D01*
X150788211Y-122517482D01*
X150788210Y-122517484D01*
X150747424Y-122669700D01*
X150729242Y-122737556D01*
X150708906Y-122970000D01*
X150729242Y-123202444D01*
X150730666Y-123207757D01*
X150730666Y-123207759D01*
X150783055Y-123403275D01*
X150789633Y-123427826D01*
X150791955Y-123432806D01*
X150791956Y-123432808D01*
X150885918Y-123634310D01*
X150885921Y-123634315D01*
X150888244Y-123639297D01*
X150891398Y-123643801D01*
X150891401Y-123643806D01*
X151004469Y-123805283D01*
X151022078Y-123830432D01*
X151187068Y-123995422D01*
X151191576Y-123998579D01*
X151191579Y-123998581D01*
X151282491Y-124062238D01*
X151378203Y-124129256D01*
X151382207Y-124131123D01*
X151430969Y-124182264D01*
X151444405Y-124251977D01*
X151418018Y-124317888D01*
X151382312Y-124348828D01*
X151378203Y-124350744D01*
X151373699Y-124353898D01*
X151191579Y-124481419D01*
X151191576Y-124481421D01*
X151187068Y-124484578D01*
X151022078Y-124649568D01*
X151018921Y-124654076D01*
X151018919Y-124654079D01*
X150891401Y-124836194D01*
X150891400Y-124836196D01*
X150888244Y-124840703D01*
X150885921Y-124845685D01*
X150885918Y-124845690D01*
X150791956Y-125047192D01*
X150789633Y-125052174D01*
X150729242Y-125277556D01*
X150708906Y-125510000D01*
X150729242Y-125742444D01*
X150730666Y-125747757D01*
X150730666Y-125747759D01*
X150778622Y-125926731D01*
X150789633Y-125967826D01*
X150791955Y-125972806D01*
X150791956Y-125972808D01*
X150885918Y-126174310D01*
X150885921Y-126174315D01*
X150888244Y-126179297D01*
X150891398Y-126183801D01*
X150891401Y-126183806D01*
X150968370Y-126293729D01*
X150991058Y-126361003D01*
X150973773Y-126429864D01*
X150922003Y-126478448D01*
X150865157Y-126492000D01*
X120058679Y-126492000D01*
X120038415Y-126490359D01*
X120017010Y-126486871D01*
X120008107Y-126487971D01*
X120008100Y-126487971D01*
X120007861Y-126488001D01*
X119977545Y-126488072D01*
X119934353Y-126482940D01*
X119913097Y-126480415D01*
X119885868Y-126474055D01*
X119880065Y-126471998D01*
X119806482Y-126445915D01*
X119781327Y-126433707D01*
X119710101Y-126388751D01*
X119688258Y-126371295D01*
X119628705Y-126311742D01*
X119611249Y-126289899D01*
X119566293Y-126218673D01*
X119554084Y-126193517D01*
X119550642Y-126183805D01*
X119525945Y-126114131D01*
X119519585Y-126086902D01*
X119512711Y-126029045D01*
X119512919Y-126013395D01*
X119511854Y-126013390D01*
X119511900Y-126004407D01*
X119513218Y-125995530D01*
X119509200Y-125966412D01*
X119508019Y-125949145D01*
X119508175Y-125598134D01*
X120866500Y-125598134D01*
X120873255Y-125660316D01*
X120924385Y-125796705D01*
X121011739Y-125913261D01*
X121128295Y-126000615D01*
X121264684Y-126051745D01*
X121326866Y-126058500D01*
X123123134Y-126058500D01*
X123185316Y-126051745D01*
X123321705Y-126000615D01*
X123438261Y-125913261D01*
X123525615Y-125796705D01*
X123547799Y-125737529D01*
X123569598Y-125679382D01*
X123612240Y-125622618D01*
X123678802Y-125597918D01*
X123748150Y-125613126D01*
X123782817Y-125641114D01*
X123811250Y-125673938D01*
X123983126Y-125816632D01*
X124176000Y-125929338D01*
X124384692Y-126009030D01*
X124389760Y-126010061D01*
X124389763Y-126010062D01*
X124483068Y-126029045D01*
X124603597Y-126053567D01*
X124608772Y-126053757D01*
X124608774Y-126053757D01*
X124821673Y-126061564D01*
X124821677Y-126061564D01*
X124826837Y-126061753D01*
X124831957Y-126061097D01*
X124831959Y-126061097D01*
X125043288Y-126034025D01*
X125043289Y-126034025D01*
X125048416Y-126033368D01*
X125053366Y-126031883D01*
X125257429Y-125970661D01*
X125257434Y-125970659D01*
X125262384Y-125969174D01*
X125462994Y-125870896D01*
X125644860Y-125741173D01*
X125803096Y-125583489D01*
X125933453Y-125402077D01*
X125934640Y-125402930D01*
X125981960Y-125359362D01*
X126051897Y-125347145D01*
X126117338Y-125374678D01*
X126145166Y-125406511D01*
X126202694Y-125500388D01*
X126208777Y-125508699D01*
X126348213Y-125669667D01*
X126355580Y-125676883D01*
X126519434Y-125812916D01*
X126527881Y-125818831D01*
X126711756Y-125926279D01*
X126721042Y-125930729D01*
X126920001Y-126006703D01*
X126929899Y-126009579D01*
X127033250Y-126030606D01*
X127047299Y-126029410D01*
X127051000Y-126019065D01*
X127051000Y-126018517D01*
X127559000Y-126018517D01*
X127563064Y-126032359D01*
X127576478Y-126034393D01*
X127583184Y-126033534D01*
X127593262Y-126031392D01*
X127797255Y-125970191D01*
X127806842Y-125966433D01*
X127998095Y-125872739D01*
X128006945Y-125867464D01*
X128180328Y-125743792D01*
X128188200Y-125737139D01*
X128339052Y-125586812D01*
X128345730Y-125578965D01*
X128473022Y-125401819D01*
X128474279Y-125402722D01*
X128521373Y-125359362D01*
X128591311Y-125347145D01*
X128656751Y-125374678D01*
X128684579Y-125406511D01*
X128744987Y-125505088D01*
X128891250Y-125673938D01*
X129063126Y-125816632D01*
X129256000Y-125929338D01*
X129464692Y-126009030D01*
X129469760Y-126010061D01*
X129469763Y-126010062D01*
X129563068Y-126029045D01*
X129683597Y-126053567D01*
X129688772Y-126053757D01*
X129688774Y-126053757D01*
X129901673Y-126061564D01*
X129901677Y-126061564D01*
X129906837Y-126061753D01*
X129911957Y-126061097D01*
X129911959Y-126061097D01*
X130123288Y-126034025D01*
X130123289Y-126034025D01*
X130128416Y-126033368D01*
X130133366Y-126031883D01*
X130337429Y-125970661D01*
X130337434Y-125970659D01*
X130342384Y-125969174D01*
X130542994Y-125870896D01*
X130724860Y-125741173D01*
X130883096Y-125583489D01*
X131013453Y-125402077D01*
X131014776Y-125403028D01*
X131061645Y-125359857D01*
X131131580Y-125347625D01*
X131197026Y-125375144D01*
X131224875Y-125406994D01*
X131284987Y-125505088D01*
X131431250Y-125673938D01*
X131603126Y-125816632D01*
X131796000Y-125929338D01*
X132004692Y-126009030D01*
X132009760Y-126010061D01*
X132009763Y-126010062D01*
X132103068Y-126029045D01*
X132223597Y-126053567D01*
X132228772Y-126053757D01*
X132228774Y-126053757D01*
X132441673Y-126061564D01*
X132441677Y-126061564D01*
X132446837Y-126061753D01*
X132451957Y-126061097D01*
X132451959Y-126061097D01*
X132663288Y-126034025D01*
X132663289Y-126034025D01*
X132668416Y-126033368D01*
X132673366Y-126031883D01*
X132877429Y-125970661D01*
X132877434Y-125970659D01*
X132882384Y-125969174D01*
X133082994Y-125870896D01*
X133264860Y-125741173D01*
X133423096Y-125583489D01*
X133553453Y-125402077D01*
X133566995Y-125374678D01*
X133650136Y-125206453D01*
X133650137Y-125206451D01*
X133652430Y-125201811D01*
X133717370Y-124988069D01*
X133746529Y-124766590D01*
X133748156Y-124700000D01*
X133729852Y-124477361D01*
X133675431Y-124260702D01*
X133586354Y-124055840D01*
X133465014Y-123868277D01*
X133314670Y-123703051D01*
X133310619Y-123699852D01*
X133310615Y-123699848D01*
X133143414Y-123567800D01*
X133143410Y-123567798D01*
X133139359Y-123564598D01*
X133103028Y-123544542D01*
X133087136Y-123535769D01*
X132943789Y-123456638D01*
X132938920Y-123454914D01*
X132938916Y-123454912D01*
X132738087Y-123383795D01*
X132738083Y-123383794D01*
X132733212Y-123382069D01*
X132728119Y-123381162D01*
X132728116Y-123381161D01*
X132518373Y-123343800D01*
X132518367Y-123343799D01*
X132513284Y-123342894D01*
X132439452Y-123341992D01*
X132295081Y-123340228D01*
X132295079Y-123340228D01*
X132289911Y-123340165D01*
X132069091Y-123373955D01*
X131856756Y-123443357D01*
X131658607Y-123546507D01*
X131654474Y-123549610D01*
X131654471Y-123549612D01*
X131484100Y-123677530D01*
X131479965Y-123680635D01*
X131476393Y-123684373D01*
X131336816Y-123830432D01*
X131325629Y-123842138D01*
X131218201Y-123999621D01*
X131163293Y-124044621D01*
X131092768Y-124052792D01*
X131029021Y-124021538D01*
X131008324Y-123997054D01*
X130927822Y-123872617D01*
X130927820Y-123872614D01*
X130925014Y-123868277D01*
X130774670Y-123703051D01*
X130770619Y-123699852D01*
X130770615Y-123699848D01*
X130603414Y-123567800D01*
X130603410Y-123567798D01*
X130599359Y-123564598D01*
X130563028Y-123544542D01*
X130547136Y-123535769D01*
X130403789Y-123456638D01*
X130398920Y-123454914D01*
X130398916Y-123454912D01*
X130198087Y-123383795D01*
X130198083Y-123383794D01*
X130193212Y-123382069D01*
X130188119Y-123381162D01*
X130188116Y-123381161D01*
X129978373Y-123343800D01*
X129978367Y-123343799D01*
X129973284Y-123342894D01*
X129899452Y-123341992D01*
X129755081Y-123340228D01*
X129755079Y-123340228D01*
X129749911Y-123340165D01*
X129529091Y-123373955D01*
X129316756Y-123443357D01*
X129118607Y-123546507D01*
X129114474Y-123549610D01*
X129114471Y-123549612D01*
X128944100Y-123677530D01*
X128939965Y-123680635D01*
X128936393Y-123684373D01*
X128796816Y-123830432D01*
X128785629Y-123842138D01*
X128678204Y-123999618D01*
X128677898Y-124000066D01*
X128622987Y-124045069D01*
X128552462Y-124053240D01*
X128488715Y-124021986D01*
X128468018Y-123997502D01*
X128387426Y-123872926D01*
X128381136Y-123864757D01*
X128237806Y-123707240D01*
X128230273Y-123700215D01*
X128063139Y-123568222D01*
X128054552Y-123562517D01*
X127868117Y-123459599D01*
X127858705Y-123455369D01*
X127657959Y-123384280D01*
X127647988Y-123381646D01*
X127576837Y-123368972D01*
X127563540Y-123370432D01*
X127559000Y-123384989D01*
X127559000Y-126018517D01*
X127051000Y-126018517D01*
X127051000Y-123383102D01*
X127047082Y-123369758D01*
X127032806Y-123367771D01*
X126994324Y-123373660D01*
X126984288Y-123376051D01*
X126781868Y-123442212D01*
X126772359Y-123446209D01*
X126583463Y-123544542D01*
X126574738Y-123550036D01*
X126404433Y-123677905D01*
X126396726Y-123684748D01*
X126249590Y-123838717D01*
X126243109Y-123846722D01*
X126138498Y-124000074D01*
X126083587Y-124045076D01*
X126013062Y-124053247D01*
X125949315Y-124021993D01*
X125928618Y-123997509D01*
X125847822Y-123872617D01*
X125847820Y-123872614D01*
X125845014Y-123868277D01*
X125694670Y-123703051D01*
X125690619Y-123699852D01*
X125690615Y-123699848D01*
X125523414Y-123567800D01*
X125523410Y-123567798D01*
X125519359Y-123564598D01*
X125483028Y-123544542D01*
X125467136Y-123535769D01*
X125323789Y-123456638D01*
X125318920Y-123454914D01*
X125318916Y-123454912D01*
X125118087Y-123383795D01*
X125118083Y-123383794D01*
X125113212Y-123382069D01*
X125108119Y-123381162D01*
X125108116Y-123381161D01*
X124898373Y-123343800D01*
X124898367Y-123343799D01*
X124893284Y-123342894D01*
X124819452Y-123341992D01*
X124675081Y-123340228D01*
X124675079Y-123340228D01*
X124669911Y-123340165D01*
X124449091Y-123373955D01*
X124236756Y-123443357D01*
X124038607Y-123546507D01*
X124034474Y-123549610D01*
X124034471Y-123549612D01*
X123864100Y-123677530D01*
X123859965Y-123680635D01*
X123803537Y-123739684D01*
X123779283Y-123765064D01*
X123717759Y-123800494D01*
X123646846Y-123797037D01*
X123589060Y-123755791D01*
X123570207Y-123722243D01*
X123528767Y-123611703D01*
X123525615Y-123603295D01*
X123438261Y-123486739D01*
X123321705Y-123399385D01*
X123185316Y-123348255D01*
X123123134Y-123341500D01*
X121326866Y-123341500D01*
X121264684Y-123348255D01*
X121128295Y-123399385D01*
X121011739Y-123486739D01*
X120924385Y-123603295D01*
X120873255Y-123739684D01*
X120866500Y-123801866D01*
X120866500Y-125598134D01*
X119508175Y-125598134D01*
X119509299Y-123062429D01*
X119529331Y-122994317D01*
X119583008Y-122947848D01*
X119583638Y-122947584D01*
X119586905Y-122946092D01*
X119590641Y-122944664D01*
X119630040Y-122923550D01*
X119801554Y-122831636D01*
X119801562Y-122831631D01*
X119805072Y-122829750D01*
X119895425Y-122765400D01*
X135476500Y-122765400D01*
X135476837Y-122768646D01*
X135476837Y-122768650D01*
X135485203Y-122849277D01*
X135487474Y-122871166D01*
X135489655Y-122877702D01*
X135489655Y-122877704D01*
X135520070Y-122968868D01*
X135543450Y-123038946D01*
X135636522Y-123189348D01*
X135641704Y-123194521D01*
X135670697Y-123223463D01*
X135761697Y-123314305D01*
X135767927Y-123318145D01*
X135767928Y-123318146D01*
X135905090Y-123402694D01*
X135912262Y-123407115D01*
X135958695Y-123422516D01*
X136073611Y-123460632D01*
X136073613Y-123460632D01*
X136080139Y-123462797D01*
X136086975Y-123463497D01*
X136086978Y-123463498D01*
X136130031Y-123467909D01*
X136184600Y-123473500D01*
X136815400Y-123473500D01*
X136818646Y-123473163D01*
X136818650Y-123473163D01*
X136914308Y-123463238D01*
X136914312Y-123463237D01*
X136921166Y-123462526D01*
X136927702Y-123460345D01*
X136927704Y-123460345D01*
X137059806Y-123416272D01*
X137088946Y-123406550D01*
X137239348Y-123313478D01*
X137244522Y-123308295D01*
X137244527Y-123308291D01*
X137248138Y-123304674D01*
X137310421Y-123270595D01*
X137381241Y-123275600D01*
X137417625Y-123296609D01*
X137424897Y-123302625D01*
X137601459Y-123398092D01*
X137630608Y-123407115D01*
X137787314Y-123455624D01*
X137787317Y-123455625D01*
X137793201Y-123457446D01*
X137799326Y-123458090D01*
X137799327Y-123458090D01*
X137986692Y-123477783D01*
X137986693Y-123477783D01*
X137992820Y-123478427D01*
X138075838Y-123470872D01*
X138186574Y-123460794D01*
X138186577Y-123460793D01*
X138192713Y-123460235D01*
X138198619Y-123458497D01*
X138198623Y-123458496D01*
X138365371Y-123409419D01*
X138385265Y-123403564D01*
X138563142Y-123310572D01*
X138612864Y-123270595D01*
X138671382Y-123223545D01*
X138737005Y-123196449D01*
X138806859Y-123209132D01*
X138830649Y-123224657D01*
X138920147Y-123298697D01*
X138920157Y-123298704D01*
X138924897Y-123302625D01*
X139101459Y-123398092D01*
X139130608Y-123407115D01*
X139287314Y-123455624D01*
X139287317Y-123455625D01*
X139293201Y-123457446D01*
X139299326Y-123458090D01*
X139299327Y-123458090D01*
X139486692Y-123477783D01*
X139486693Y-123477783D01*
X139492820Y-123478427D01*
X139575838Y-123470872D01*
X139686574Y-123460794D01*
X139686577Y-123460793D01*
X139692713Y-123460235D01*
X139698619Y-123458497D01*
X139698623Y-123458496D01*
X139865371Y-123409419D01*
X139885265Y-123403564D01*
X140063142Y-123310572D01*
X140219570Y-123184801D01*
X140249451Y-123149191D01*
X140344631Y-123035759D01*
X140348590Y-123031041D01*
X140351554Y-123025649D01*
X140351557Y-123025645D01*
X140442320Y-122860547D01*
X140445287Y-122855150D01*
X140505978Y-122663827D01*
X140507193Y-122653000D01*
X140516503Y-122569995D01*
X140523500Y-122507615D01*
X140523500Y-121699496D01*
X140522376Y-121688024D01*
X140512850Y-121590880D01*
X140508865Y-121550239D01*
X140450851Y-121358087D01*
X140356620Y-121180863D01*
X140347251Y-121169375D01*
X140301108Y-121112800D01*
X140229759Y-121025318D01*
X140075103Y-120897375D01*
X139898541Y-120801908D01*
X139779682Y-120765115D01*
X139712686Y-120744376D01*
X139712683Y-120744375D01*
X139706799Y-120742554D01*
X139700674Y-120741910D01*
X139700673Y-120741910D01*
X139513308Y-120722217D01*
X139513307Y-120722217D01*
X139507180Y-120721573D01*
X139424162Y-120729128D01*
X139313426Y-120739206D01*
X139313423Y-120739207D01*
X139307287Y-120739765D01*
X139301381Y-120741503D01*
X139301377Y-120741504D01*
X139159121Y-120783373D01*
X139114735Y-120796436D01*
X138936858Y-120889428D01*
X138932058Y-120893288D01*
X138932057Y-120893288D01*
X138828618Y-120976455D01*
X138762995Y-121003551D01*
X138693141Y-120990868D01*
X138669351Y-120975343D01*
X138579853Y-120901303D01*
X138579843Y-120901296D01*
X138575103Y-120897375D01*
X138398541Y-120801908D01*
X138279682Y-120765115D01*
X138212686Y-120744376D01*
X138212683Y-120744375D01*
X138206799Y-120742554D01*
X138200674Y-120741910D01*
X138200673Y-120741910D01*
X138013308Y-120722217D01*
X138013307Y-120722217D01*
X138007180Y-120721573D01*
X137924162Y-120729128D01*
X137813426Y-120739206D01*
X137813423Y-120739207D01*
X137807287Y-120739765D01*
X137801381Y-120741503D01*
X137801377Y-120741504D01*
X137659121Y-120783373D01*
X137614735Y-120796436D01*
X137436858Y-120889428D01*
X137422089Y-120901303D01*
X137416983Y-120905408D01*
X137351361Y-120932505D01*
X137281506Y-120919822D01*
X137249014Y-120896387D01*
X137243484Y-120890867D01*
X137238303Y-120885695D01*
X137208748Y-120867477D01*
X137093968Y-120796725D01*
X137093966Y-120796724D01*
X137087738Y-120792885D01*
X136991622Y-120761005D01*
X136926389Y-120739368D01*
X136926387Y-120739368D01*
X136919861Y-120737203D01*
X136913025Y-120736503D01*
X136913022Y-120736502D01*
X136869969Y-120732091D01*
X136815400Y-120726500D01*
X136184600Y-120726500D01*
X136181354Y-120726837D01*
X136181350Y-120726837D01*
X136085692Y-120736762D01*
X136085688Y-120736763D01*
X136078834Y-120737474D01*
X136072298Y-120739655D01*
X136072296Y-120739655D01*
X136009673Y-120760548D01*
X135911054Y-120793450D01*
X135760652Y-120886522D01*
X135635695Y-121011697D01*
X135631855Y-121017927D01*
X135631854Y-121017928D01*
X135572981Y-121113438D01*
X135542885Y-121162262D01*
X135519375Y-121233143D01*
X135499081Y-121294329D01*
X135487203Y-121330139D01*
X135476500Y-121434600D01*
X135476500Y-122765400D01*
X119895425Y-122765400D01*
X119934521Y-122737556D01*
X119999981Y-122690935D01*
X119999983Y-122690933D01*
X120003234Y-122688618D01*
X120041792Y-122653000D01*
X120165502Y-122538720D01*
X120181937Y-122523538D01*
X120184507Y-122520475D01*
X120335736Y-122340232D01*
X120335739Y-122340228D01*
X120338308Y-122337166D01*
X120378210Y-122275073D01*
X120431864Y-122228578D01*
X120502138Y-122218472D01*
X120566719Y-122247963D01*
X120591299Y-122276798D01*
X120592691Y-122279043D01*
X120600440Y-122289105D01*
X120724690Y-122420496D01*
X120734310Y-122428799D01*
X120882443Y-122532523D01*
X120893531Y-122538720D01*
X121059495Y-122610540D01*
X121071607Y-122614382D01*
X121250134Y-122651677D01*
X121259666Y-122652915D01*
X121262889Y-122653000D01*
X121412885Y-122653000D01*
X121428124Y-122648525D01*
X121429329Y-122647135D01*
X121431000Y-122639452D01*
X121431000Y-122634885D01*
X121939000Y-122634885D01*
X121943475Y-122650124D01*
X121944865Y-122651329D01*
X121952548Y-122653000D01*
X122060192Y-122653000D01*
X122066567Y-122652677D01*
X122201267Y-122638995D01*
X122213707Y-122636441D01*
X122386264Y-122582365D01*
X122397952Y-122577356D01*
X122556111Y-122489686D01*
X122566544Y-122482435D01*
X122703843Y-122364756D01*
X122712612Y-122355547D01*
X122823442Y-122212667D01*
X122830178Y-122201887D01*
X122910019Y-122039626D01*
X122914445Y-122027727D01*
X122929082Y-121971531D01*
X122928648Y-121957436D01*
X122920467Y-121954000D01*
X121957115Y-121954000D01*
X121941876Y-121958475D01*
X121940671Y-121959865D01*
X121939000Y-121967548D01*
X121939000Y-122634885D01*
X121431000Y-122634885D01*
X121431000Y-121427885D01*
X121939000Y-121427885D01*
X121943475Y-121443124D01*
X121944865Y-121444329D01*
X121952548Y-121446000D01*
X122918901Y-121446000D01*
X122932432Y-121442027D01*
X122933309Y-121435925D01*
X122878170Y-121286064D01*
X122872608Y-121274658D01*
X122777309Y-121120956D01*
X122769560Y-121110895D01*
X122645310Y-120979504D01*
X122635690Y-120971201D01*
X122634967Y-120970695D01*
X123409191Y-120970695D01*
X123416467Y-121042331D01*
X123419021Y-121054770D01*
X123474920Y-121233143D01*
X123479929Y-121244831D01*
X123570553Y-121408320D01*
X123577804Y-121418753D01*
X123699456Y-121560688D01*
X123708647Y-121569441D01*
X123856364Y-121684021D01*
X123867124Y-121690745D01*
X124034860Y-121773281D01*
X124046767Y-121777709D01*
X124113469Y-121795083D01*
X124127564Y-121794649D01*
X124131000Y-121786468D01*
X124131000Y-121785867D01*
X124639000Y-121785867D01*
X124642973Y-121799398D01*
X124649075Y-121800275D01*
X124812145Y-121740277D01*
X124823573Y-121734703D01*
X124982440Y-121636201D01*
X124992504Y-121628451D01*
X125128322Y-121500014D01*
X125136625Y-121490394D01*
X125243845Y-121337269D01*
X125250042Y-121326180D01*
X125324284Y-121154618D01*
X125328123Y-121142515D01*
X125363801Y-120971736D01*
X125362678Y-120957675D01*
X125352571Y-120954000D01*
X124657115Y-120954000D01*
X124641876Y-120958475D01*
X124640671Y-120959865D01*
X124639000Y-120967548D01*
X124639000Y-121785867D01*
X124131000Y-121785867D01*
X124131000Y-120972115D01*
X124126525Y-120956876D01*
X124125135Y-120955671D01*
X124117452Y-120954000D01*
X123425610Y-120954000D01*
X123411250Y-120958216D01*
X123409191Y-120970695D01*
X122634967Y-120970695D01*
X122487557Y-120867477D01*
X122476469Y-120861280D01*
X122310505Y-120789460D01*
X122298393Y-120785618D01*
X122119866Y-120748323D01*
X122110334Y-120747085D01*
X122107111Y-120747000D01*
X121957115Y-120747000D01*
X121941876Y-120751475D01*
X121940671Y-120752865D01*
X121939000Y-120760548D01*
X121939000Y-121427885D01*
X121431000Y-121427885D01*
X121431000Y-120765115D01*
X121426525Y-120749876D01*
X121425135Y-120748671D01*
X121417452Y-120747000D01*
X121309808Y-120747000D01*
X121303433Y-120747323D01*
X121168733Y-120761005D01*
X121156293Y-120763559D01*
X120983736Y-120817635D01*
X120972048Y-120822644D01*
X120895086Y-120865305D01*
X120825809Y-120880837D01*
X120759133Y-120856449D01*
X120716226Y-120799884D01*
X120708000Y-120755103D01*
X120708000Y-120428264D01*
X123406199Y-120428264D01*
X123407322Y-120442325D01*
X123417429Y-120446000D01*
X124112885Y-120446000D01*
X124128124Y-120441525D01*
X124129329Y-120440135D01*
X124131000Y-120432452D01*
X124131000Y-120427885D01*
X124639000Y-120427885D01*
X124643475Y-120443124D01*
X124644865Y-120444329D01*
X124652548Y-120446000D01*
X125344390Y-120446000D01*
X125358750Y-120441784D01*
X125360809Y-120429305D01*
X125353533Y-120357669D01*
X125350979Y-120345230D01*
X125333245Y-120288640D01*
X145686463Y-120288640D01*
X145704163Y-120469160D01*
X145761418Y-120641273D01*
X145765065Y-120647295D01*
X145765066Y-120647297D01*
X145848836Y-120785618D01*
X145855380Y-120796424D01*
X145860269Y-120801487D01*
X145860270Y-120801488D01*
X145881027Y-120822982D01*
X145981382Y-120926902D01*
X146006305Y-120943211D01*
X146125786Y-121021397D01*
X146133159Y-121026222D01*
X146139763Y-121028678D01*
X146139765Y-121028679D01*
X146296558Y-121086990D01*
X146296560Y-121086990D01*
X146303168Y-121089448D01*
X146386995Y-121100633D01*
X146475980Y-121112507D01*
X146475984Y-121112507D01*
X146482961Y-121113438D01*
X146489972Y-121112800D01*
X146489976Y-121112800D01*
X146638339Y-121099297D01*
X146663600Y-121096998D01*
X146670302Y-121094820D01*
X146670304Y-121094820D01*
X146829409Y-121043124D01*
X146829412Y-121043123D01*
X146836108Y-121040947D01*
X146974456Y-120958475D01*
X146985860Y-120951677D01*
X146985862Y-120951676D01*
X146991912Y-120948069D01*
X147123266Y-120822982D01*
X147223643Y-120671902D01*
X147288055Y-120502338D01*
X147289035Y-120495366D01*
X147312748Y-120326639D01*
X147312748Y-120326636D01*
X147313299Y-120322717D01*
X147313616Y-120300000D01*
X147293397Y-120119745D01*
X147291080Y-120113091D01*
X147236064Y-119955106D01*
X147236062Y-119955103D01*
X147233745Y-119948448D01*
X147165550Y-119839312D01*
X147141359Y-119800598D01*
X147137626Y-119794624D01*
X147122895Y-119779790D01*
X147014778Y-119670915D01*
X147014774Y-119670912D01*
X147009815Y-119665918D01*
X147000054Y-119659723D01*
X146941070Y-119622291D01*
X146856666Y-119568727D01*
X146827463Y-119558328D01*
X146692425Y-119510243D01*
X146692420Y-119510242D01*
X146685790Y-119507881D01*
X146678802Y-119507048D01*
X146678799Y-119507047D01*
X146539023Y-119490380D01*
X146505680Y-119486404D01*
X146498677Y-119487140D01*
X146498676Y-119487140D01*
X146332288Y-119504628D01*
X146332286Y-119504629D01*
X146325288Y-119505364D01*
X146153579Y-119563818D01*
X146147575Y-119567512D01*
X146005095Y-119655166D01*
X146005092Y-119655168D01*
X145999088Y-119658862D01*
X145994053Y-119663793D01*
X145994050Y-119663795D01*
X145874525Y-119780843D01*
X145869493Y-119785771D01*
X145771235Y-119938238D01*
X145768826Y-119944858D01*
X145768824Y-119944861D01*
X145721887Y-120073820D01*
X145709197Y-120108685D01*
X145686463Y-120288640D01*
X125333245Y-120288640D01*
X125295080Y-120166857D01*
X125290071Y-120155169D01*
X125199447Y-119991680D01*
X125192196Y-119981247D01*
X125070544Y-119839312D01*
X125061353Y-119830559D01*
X124913636Y-119715979D01*
X124902876Y-119709255D01*
X124735140Y-119626719D01*
X124723233Y-119622291D01*
X124656531Y-119604917D01*
X124642436Y-119605351D01*
X124639000Y-119613532D01*
X124639000Y-120427885D01*
X124131000Y-120427885D01*
X124131000Y-119614133D01*
X124127027Y-119600602D01*
X124120925Y-119599725D01*
X123957855Y-119659723D01*
X123946427Y-119665297D01*
X123787560Y-119763799D01*
X123777496Y-119771549D01*
X123641678Y-119899986D01*
X123633375Y-119909606D01*
X123526155Y-120062731D01*
X123519958Y-120073820D01*
X123445716Y-120245382D01*
X123441877Y-120257485D01*
X123406199Y-120428264D01*
X120708000Y-120428264D01*
X120708000Y-118688640D01*
X137286463Y-118688640D01*
X137304163Y-118869160D01*
X137361418Y-119041273D01*
X137365065Y-119047295D01*
X137365066Y-119047297D01*
X137436722Y-119165615D01*
X137455380Y-119196424D01*
X137460269Y-119201487D01*
X137460270Y-119201488D01*
X137525581Y-119269119D01*
X137581382Y-119326902D01*
X137587278Y-119330760D01*
X137706039Y-119408475D01*
X137733159Y-119426222D01*
X137739763Y-119428678D01*
X137739765Y-119428679D01*
X137896558Y-119486990D01*
X137896560Y-119486990D01*
X137903168Y-119489448D01*
X137986995Y-119500633D01*
X138075980Y-119512507D01*
X138075984Y-119512507D01*
X138082961Y-119513438D01*
X138089972Y-119512800D01*
X138089976Y-119512800D01*
X138232459Y-119499832D01*
X138263600Y-119496998D01*
X138270302Y-119494820D01*
X138270304Y-119494820D01*
X138429409Y-119443124D01*
X138429412Y-119443123D01*
X138436108Y-119440947D01*
X138591912Y-119348069D01*
X138723266Y-119222982D01*
X138823643Y-119071902D01*
X138888055Y-118902338D01*
X138889035Y-118895366D01*
X138912748Y-118726639D01*
X138912748Y-118726636D01*
X138913299Y-118722717D01*
X138913616Y-118700000D01*
X138906241Y-118634252D01*
X138899547Y-118574569D01*
X138911831Y-118504643D01*
X138959970Y-118452459D01*
X139028680Y-118434585D01*
X139093755Y-118455092D01*
X139125362Y-118475775D01*
X139131966Y-118478231D01*
X139131968Y-118478232D01*
X139288761Y-118536543D01*
X139288763Y-118536543D01*
X139295371Y-118539001D01*
X139365280Y-118548329D01*
X139468183Y-118562060D01*
X139468187Y-118562060D01*
X139475164Y-118562991D01*
X139482175Y-118562353D01*
X139482179Y-118562353D01*
X139624662Y-118549385D01*
X139655803Y-118546551D01*
X139662505Y-118544373D01*
X139662507Y-118544373D01*
X139821612Y-118492677D01*
X139821615Y-118492676D01*
X139828311Y-118490500D01*
X139984115Y-118397622D01*
X140115469Y-118272535D01*
X140215846Y-118121455D01*
X140263566Y-117995833D01*
X140277758Y-117958473D01*
X140277759Y-117958471D01*
X140280258Y-117951891D01*
X140286478Y-117907633D01*
X140304951Y-117776192D01*
X140304951Y-117776189D01*
X140305502Y-117772270D01*
X140305819Y-117749553D01*
X140285600Y-117569298D01*
X140283283Y-117562644D01*
X140228267Y-117404659D01*
X140228265Y-117404656D01*
X140225948Y-117398001D01*
X140129829Y-117244177D01*
X140115439Y-117229686D01*
X140006981Y-117120468D01*
X140006977Y-117120465D01*
X140002018Y-117115471D01*
X139990900Y-117108415D01*
X139886687Y-117042280D01*
X139848869Y-117018280D01*
X139797533Y-117000000D01*
X139684628Y-116959796D01*
X139684623Y-116959795D01*
X139677993Y-116957434D01*
X139671005Y-116956601D01*
X139671002Y-116956600D01*
X139547901Y-116941921D01*
X139497883Y-116935957D01*
X139490880Y-116936693D01*
X139490879Y-116936693D01*
X139324491Y-116954181D01*
X139324489Y-116954182D01*
X139317491Y-116954917D01*
X139145782Y-117013371D01*
X139098791Y-117042280D01*
X138997298Y-117104719D01*
X138997295Y-117104721D01*
X138991291Y-117108415D01*
X138986256Y-117113346D01*
X138986253Y-117113348D01*
X138881230Y-117216195D01*
X138861696Y-117235324D01*
X138763438Y-117387791D01*
X138761029Y-117394411D01*
X138761027Y-117394414D01*
X138703809Y-117551619D01*
X138701400Y-117558238D01*
X138678666Y-117738193D01*
X138685981Y-117812800D01*
X138692291Y-117877153D01*
X138679031Y-117946900D01*
X138630169Y-117998407D01*
X138561216Y-118015320D01*
X138499378Y-117995833D01*
X138462620Y-117972505D01*
X138462617Y-117972503D01*
X138456666Y-117968727D01*
X138409385Y-117951891D01*
X138292425Y-117910243D01*
X138292420Y-117910242D01*
X138285790Y-117907881D01*
X138278802Y-117907048D01*
X138278799Y-117907047D01*
X138145330Y-117891132D01*
X138105680Y-117886404D01*
X138098677Y-117887140D01*
X138098676Y-117887140D01*
X137932288Y-117904628D01*
X137932286Y-117904629D01*
X137925288Y-117905364D01*
X137753579Y-117963818D01*
X137747575Y-117967512D01*
X137605095Y-118055166D01*
X137605092Y-118055168D01*
X137599088Y-118058862D01*
X137594053Y-118063793D01*
X137594050Y-118063795D01*
X137535170Y-118121455D01*
X137469493Y-118185771D01*
X137371235Y-118338238D01*
X137368826Y-118344858D01*
X137368824Y-118344861D01*
X137321175Y-118475775D01*
X137309197Y-118508685D01*
X137286463Y-118688640D01*
X120708000Y-118688640D01*
X120708000Y-116988640D01*
X135686463Y-116988640D01*
X135704163Y-117169160D01*
X135761418Y-117341273D01*
X135765065Y-117347295D01*
X135765066Y-117347297D01*
X135799806Y-117404659D01*
X135855380Y-117496424D01*
X135860269Y-117501487D01*
X135860270Y-117501488D01*
X135915073Y-117558238D01*
X135981382Y-117626902D01*
X136133159Y-117726222D01*
X136139763Y-117728678D01*
X136139765Y-117728679D01*
X136296558Y-117786990D01*
X136296560Y-117786990D01*
X136303168Y-117789448D01*
X136386995Y-117800633D01*
X136475980Y-117812507D01*
X136475984Y-117812507D01*
X136482961Y-117813438D01*
X136489972Y-117812800D01*
X136489976Y-117812800D01*
X136632459Y-117799832D01*
X136663600Y-117796998D01*
X136670302Y-117794820D01*
X136670304Y-117794820D01*
X136829409Y-117743124D01*
X136829412Y-117743123D01*
X136836108Y-117740947D01*
X136932513Y-117683478D01*
X136985860Y-117651677D01*
X136985862Y-117651676D01*
X136991912Y-117648069D01*
X137123266Y-117522982D01*
X137223643Y-117371902D01*
X137277397Y-117230396D01*
X137285555Y-117208920D01*
X137285556Y-117208918D01*
X137288055Y-117202338D01*
X137289035Y-117195366D01*
X137312748Y-117026639D01*
X137312748Y-117026636D01*
X137313299Y-117022717D01*
X137313616Y-117000000D01*
X137293397Y-116819745D01*
X137290390Y-116811109D01*
X137236064Y-116655106D01*
X137236062Y-116655103D01*
X137233745Y-116648448D01*
X137137626Y-116494624D01*
X137062283Y-116418753D01*
X137014778Y-116370915D01*
X137014774Y-116370912D01*
X137009815Y-116365918D01*
X136998697Y-116358862D01*
X136947198Y-116326180D01*
X136856666Y-116268727D01*
X136789558Y-116244831D01*
X136692425Y-116210243D01*
X136692420Y-116210242D01*
X136685790Y-116207881D01*
X136678802Y-116207048D01*
X136678799Y-116207047D01*
X136555698Y-116192368D01*
X136505680Y-116186404D01*
X136498677Y-116187140D01*
X136498676Y-116187140D01*
X136332288Y-116204628D01*
X136332286Y-116204629D01*
X136325288Y-116205364D01*
X136153579Y-116263818D01*
X136147575Y-116267512D01*
X136005095Y-116355166D01*
X136005092Y-116355168D01*
X135999088Y-116358862D01*
X135994053Y-116363793D01*
X135994050Y-116363795D01*
X135948583Y-116408320D01*
X135869493Y-116485771D01*
X135771235Y-116638238D01*
X135768826Y-116644858D01*
X135768824Y-116644861D01*
X135717502Y-116785867D01*
X135709197Y-116808685D01*
X135686463Y-116988640D01*
X120708000Y-116988640D01*
X120708000Y-115970695D01*
X123409191Y-115970695D01*
X123416467Y-116042331D01*
X123419021Y-116054770D01*
X123474920Y-116233143D01*
X123479929Y-116244831D01*
X123570553Y-116408320D01*
X123577804Y-116418753D01*
X123699456Y-116560688D01*
X123708647Y-116569441D01*
X123856364Y-116684021D01*
X123867124Y-116690745D01*
X124034860Y-116773281D01*
X124046767Y-116777709D01*
X124113469Y-116795083D01*
X124127564Y-116794649D01*
X124131000Y-116786468D01*
X124131000Y-116785867D01*
X124639000Y-116785867D01*
X124642973Y-116799398D01*
X124649075Y-116800275D01*
X124812145Y-116740277D01*
X124823573Y-116734703D01*
X124982440Y-116636201D01*
X124992504Y-116628451D01*
X125128322Y-116500014D01*
X125136625Y-116490394D01*
X125243845Y-116337269D01*
X125250042Y-116326180D01*
X125324284Y-116154618D01*
X125328123Y-116142515D01*
X125363801Y-115971736D01*
X125362678Y-115957675D01*
X125352571Y-115954000D01*
X124657115Y-115954000D01*
X124641876Y-115958475D01*
X124640671Y-115959865D01*
X124639000Y-115967548D01*
X124639000Y-116785867D01*
X124131000Y-116785867D01*
X124131000Y-115972115D01*
X124126525Y-115956876D01*
X124125135Y-115955671D01*
X124117452Y-115954000D01*
X123425610Y-115954000D01*
X123411250Y-115958216D01*
X123409191Y-115970695D01*
X120708000Y-115970695D01*
X120708000Y-115649793D01*
X120728002Y-115581672D01*
X120781658Y-115535179D01*
X120851932Y-115525075D01*
X120887302Y-115537040D01*
X120887672Y-115536185D01*
X121059495Y-115610540D01*
X121071607Y-115614382D01*
X121250134Y-115651677D01*
X121259666Y-115652915D01*
X121262889Y-115653000D01*
X121412885Y-115653000D01*
X121428124Y-115648525D01*
X121429329Y-115647135D01*
X121431000Y-115639452D01*
X121431000Y-115634885D01*
X121939000Y-115634885D01*
X121943475Y-115650124D01*
X121944865Y-115651329D01*
X121952548Y-115653000D01*
X122060192Y-115653000D01*
X122066567Y-115652677D01*
X122201267Y-115638995D01*
X122213707Y-115636441D01*
X122386264Y-115582365D01*
X122397952Y-115577356D01*
X122556111Y-115489686D01*
X122566544Y-115482435D01*
X122629747Y-115428264D01*
X123406199Y-115428264D01*
X123407322Y-115442325D01*
X123417429Y-115446000D01*
X124112885Y-115446000D01*
X124128124Y-115441525D01*
X124129329Y-115440135D01*
X124131000Y-115432452D01*
X124131000Y-115427885D01*
X124639000Y-115427885D01*
X124643475Y-115443124D01*
X124644865Y-115444329D01*
X124652548Y-115446000D01*
X125344390Y-115446000D01*
X125358750Y-115441784D01*
X125360809Y-115429305D01*
X125353533Y-115357669D01*
X125350979Y-115345230D01*
X125295080Y-115166857D01*
X125290071Y-115155169D01*
X125199447Y-114991680D01*
X125192196Y-114981247D01*
X125070544Y-114839312D01*
X125061353Y-114830559D01*
X124913636Y-114715979D01*
X124902876Y-114709255D01*
X124735140Y-114626719D01*
X124723233Y-114622291D01*
X124656531Y-114604917D01*
X124642436Y-114605351D01*
X124639000Y-114613532D01*
X124639000Y-115427885D01*
X124131000Y-115427885D01*
X124131000Y-114614133D01*
X124127027Y-114600602D01*
X124120925Y-114599725D01*
X123957855Y-114659723D01*
X123946427Y-114665297D01*
X123787560Y-114763799D01*
X123777496Y-114771549D01*
X123641678Y-114899986D01*
X123633375Y-114909606D01*
X123526155Y-115062731D01*
X123519958Y-115073820D01*
X123445716Y-115245382D01*
X123441877Y-115257485D01*
X123406199Y-115428264D01*
X122629747Y-115428264D01*
X122703843Y-115364756D01*
X122712612Y-115355547D01*
X122823442Y-115212667D01*
X122830178Y-115201887D01*
X122910019Y-115039626D01*
X122914445Y-115027727D01*
X122929082Y-114971531D01*
X122928648Y-114957436D01*
X122920467Y-114954000D01*
X121957115Y-114954000D01*
X121941876Y-114958475D01*
X121940671Y-114959865D01*
X121939000Y-114967548D01*
X121939000Y-115634885D01*
X121431000Y-115634885D01*
X121431000Y-114427885D01*
X121939000Y-114427885D01*
X121943475Y-114443124D01*
X121944865Y-114444329D01*
X121952548Y-114446000D01*
X122918901Y-114446000D01*
X122932432Y-114442027D01*
X122933309Y-114435925D01*
X122878170Y-114286064D01*
X122872608Y-114274658D01*
X122777309Y-114120956D01*
X122769560Y-114110895D01*
X122645310Y-113979504D01*
X122635690Y-113971201D01*
X122487557Y-113867477D01*
X122476469Y-113861280D01*
X122310505Y-113789460D01*
X122298393Y-113785618D01*
X122119866Y-113748323D01*
X122110334Y-113747085D01*
X122107111Y-113747000D01*
X121957115Y-113747000D01*
X121941876Y-113751475D01*
X121940671Y-113752865D01*
X121939000Y-113760548D01*
X121939000Y-114427885D01*
X121431000Y-114427885D01*
X121431000Y-113765115D01*
X121426525Y-113749876D01*
X121425135Y-113748671D01*
X121417452Y-113747000D01*
X121309808Y-113747000D01*
X121303433Y-113747323D01*
X121168733Y-113761005D01*
X121156293Y-113763559D01*
X120983736Y-113817635D01*
X120972048Y-113822644D01*
X120813889Y-113910314D01*
X120803456Y-113917565D01*
X120666157Y-114035244D01*
X120657394Y-114044447D01*
X120609877Y-114105705D01*
X120552320Y-114147272D01*
X120481428Y-114151123D01*
X120419708Y-114116035D01*
X120402175Y-114093142D01*
X120363000Y-114027625D01*
X120328588Y-113983801D01*
X120209989Y-113832765D01*
X120209987Y-113832763D01*
X120207520Y-113829621D01*
X120050102Y-113674408D01*
X120031100Y-113655672D01*
X120031099Y-113655671D01*
X120028252Y-113652864D01*
X120015596Y-113643211D01*
X119857957Y-113522982D01*
X119828075Y-113500191D01*
X119824628Y-113498196D01*
X119824623Y-113498192D01*
X119719138Y-113437122D01*
X119610200Y-113374053D01*
X119606529Y-113372510D01*
X119606518Y-113372504D01*
X119585164Y-113363526D01*
X119530120Y-113318684D01*
X119520800Y-113288640D01*
X127586463Y-113288640D01*
X127604163Y-113469160D01*
X127661418Y-113641273D01*
X127665065Y-113647295D01*
X127665066Y-113647297D01*
X127751720Y-113790380D01*
X127755380Y-113796424D01*
X127760269Y-113801487D01*
X127760270Y-113801488D01*
X127781027Y-113822982D01*
X127881382Y-113926902D01*
X127906305Y-113943211D01*
X128000764Y-114005023D01*
X128033159Y-114026222D01*
X128039763Y-114028678D01*
X128039765Y-114028679D01*
X128196558Y-114086990D01*
X128196560Y-114086990D01*
X128203168Y-114089448D01*
X128286995Y-114100633D01*
X128375980Y-114112507D01*
X128375984Y-114112507D01*
X128382961Y-114113438D01*
X128389972Y-114112800D01*
X128389976Y-114112800D01*
X128532459Y-114099832D01*
X128563600Y-114096998D01*
X128570302Y-114094820D01*
X128570304Y-114094820D01*
X128729409Y-114043124D01*
X128729412Y-114043123D01*
X128736108Y-114040947D01*
X128846703Y-113975019D01*
X128885860Y-113951677D01*
X128885862Y-113951676D01*
X128891912Y-113948069D01*
X129023266Y-113822982D01*
X129123643Y-113671902D01*
X129188055Y-113502338D01*
X129189733Y-113490401D01*
X129212748Y-113326639D01*
X129212748Y-113326636D01*
X129213299Y-113322717D01*
X129213461Y-113311132D01*
X129213561Y-113303962D01*
X129213561Y-113303957D01*
X129213616Y-113300000D01*
X129193397Y-113119745D01*
X129191080Y-113113091D01*
X129147742Y-112988640D01*
X140186463Y-112988640D01*
X140204163Y-113169160D01*
X140261418Y-113341273D01*
X140265065Y-113347295D01*
X140265066Y-113347297D01*
X140334624Y-113462151D01*
X140355380Y-113496424D01*
X140360269Y-113501487D01*
X140360270Y-113501488D01*
X140367447Y-113508920D01*
X140481382Y-113626902D01*
X140633159Y-113726222D01*
X140639763Y-113728678D01*
X140639765Y-113728679D01*
X140796558Y-113786990D01*
X140796560Y-113786990D01*
X140803168Y-113789448D01*
X140886995Y-113800633D01*
X140975980Y-113812507D01*
X140975984Y-113812507D01*
X140982961Y-113813438D01*
X140989972Y-113812800D01*
X140989976Y-113812800D01*
X141132459Y-113799832D01*
X141163600Y-113796998D01*
X141170302Y-113794820D01*
X141170304Y-113794820D01*
X141329409Y-113743124D01*
X141329412Y-113743123D01*
X141336108Y-113740947D01*
X141451932Y-113671902D01*
X141485860Y-113651677D01*
X141485862Y-113651676D01*
X141491912Y-113648069D01*
X141623266Y-113522982D01*
X141723643Y-113371902D01*
X141788055Y-113202338D01*
X141789035Y-113195366D01*
X141812748Y-113026639D01*
X141812748Y-113026636D01*
X141813299Y-113022717D01*
X141813616Y-113000000D01*
X141793397Y-112819745D01*
X141791080Y-112813091D01*
X141736064Y-112655106D01*
X141736062Y-112655103D01*
X141733745Y-112648448D01*
X141723662Y-112632312D01*
X141641359Y-112500598D01*
X141637626Y-112494624D01*
X141632664Y-112489627D01*
X141514778Y-112370915D01*
X141514774Y-112370912D01*
X141509815Y-112365918D01*
X141498697Y-112358862D01*
X141450538Y-112328300D01*
X141356666Y-112268727D01*
X141327463Y-112258328D01*
X141192425Y-112210243D01*
X141192420Y-112210242D01*
X141185790Y-112207881D01*
X141178802Y-112207048D01*
X141178799Y-112207047D01*
X141055698Y-112192368D01*
X141005680Y-112186404D01*
X140998677Y-112187140D01*
X140998676Y-112187140D01*
X140832288Y-112204628D01*
X140832286Y-112204629D01*
X140825288Y-112205364D01*
X140653579Y-112263818D01*
X140613500Y-112288475D01*
X140505095Y-112355166D01*
X140505092Y-112355168D01*
X140499088Y-112358862D01*
X140494053Y-112363793D01*
X140494050Y-112363795D01*
X140374525Y-112480843D01*
X140369493Y-112485771D01*
X140271235Y-112638238D01*
X140268826Y-112644858D01*
X140268824Y-112644861D01*
X140214315Y-112794624D01*
X140209197Y-112808685D01*
X140186463Y-112988640D01*
X129147742Y-112988640D01*
X129136064Y-112955106D01*
X129136062Y-112955103D01*
X129133745Y-112948448D01*
X129037626Y-112794624D01*
X129023941Y-112780843D01*
X128914778Y-112670915D01*
X128914774Y-112670912D01*
X128909815Y-112665918D01*
X128898697Y-112658862D01*
X128774174Y-112579838D01*
X128756666Y-112568727D01*
X128727463Y-112558328D01*
X128592425Y-112510243D01*
X128592420Y-112510242D01*
X128585790Y-112507881D01*
X128578802Y-112507048D01*
X128578799Y-112507047D01*
X128455698Y-112492368D01*
X128405680Y-112486404D01*
X128398677Y-112487140D01*
X128398676Y-112487140D01*
X128232288Y-112504628D01*
X128232286Y-112504629D01*
X128225288Y-112505364D01*
X128053579Y-112563818D01*
X128039457Y-112572506D01*
X127905095Y-112655166D01*
X127905092Y-112655168D01*
X127899088Y-112658862D01*
X127894053Y-112663793D01*
X127894050Y-112663795D01*
X127774525Y-112780843D01*
X127769493Y-112785771D01*
X127671235Y-112938238D01*
X127668826Y-112944858D01*
X127668824Y-112944861D01*
X127611606Y-113102066D01*
X127609197Y-113108685D01*
X127586463Y-113288640D01*
X119520800Y-113288640D01*
X119508000Y-113247375D01*
X119508000Y-111288640D01*
X132786463Y-111288640D01*
X132804163Y-111469160D01*
X132861418Y-111641273D01*
X132865065Y-111647295D01*
X132865066Y-111647297D01*
X132875978Y-111665314D01*
X132955380Y-111796424D01*
X133081382Y-111926902D01*
X133233159Y-112026222D01*
X133239763Y-112028678D01*
X133239765Y-112028679D01*
X133396558Y-112086990D01*
X133396560Y-112086990D01*
X133403168Y-112089448D01*
X133486995Y-112100633D01*
X133575980Y-112112507D01*
X133575984Y-112112507D01*
X133582961Y-112113438D01*
X133589972Y-112112800D01*
X133589976Y-112112800D01*
X133732459Y-112099832D01*
X133763600Y-112096998D01*
X133770302Y-112094820D01*
X133770304Y-112094820D01*
X133929409Y-112043124D01*
X133929412Y-112043123D01*
X133936108Y-112040947D01*
X134091912Y-111948069D01*
X134223266Y-111822982D01*
X134323643Y-111671902D01*
X134365423Y-111561917D01*
X134385555Y-111508920D01*
X134385556Y-111508918D01*
X134388055Y-111502338D01*
X134389035Y-111495366D01*
X134412748Y-111326639D01*
X134412748Y-111326636D01*
X134413299Y-111322717D01*
X134413616Y-111300000D01*
X134393397Y-111119745D01*
X134391080Y-111113091D01*
X134336064Y-110955106D01*
X134336062Y-110955103D01*
X134333745Y-110948448D01*
X134237626Y-110794624D01*
X134216118Y-110772965D01*
X134114778Y-110670915D01*
X134114774Y-110670912D01*
X134109815Y-110665918D01*
X134098697Y-110658862D01*
X134050538Y-110628300D01*
X133956666Y-110568727D01*
X133927463Y-110558328D01*
X133792425Y-110510243D01*
X133792420Y-110510242D01*
X133785790Y-110507881D01*
X133778802Y-110507048D01*
X133778799Y-110507047D01*
X133655698Y-110492368D01*
X133605680Y-110486404D01*
X133598677Y-110487140D01*
X133598676Y-110487140D01*
X133432288Y-110504628D01*
X133432286Y-110504629D01*
X133425288Y-110505364D01*
X133253579Y-110563818D01*
X133247575Y-110567512D01*
X133105095Y-110655166D01*
X133105092Y-110655168D01*
X133099088Y-110658862D01*
X133094053Y-110663793D01*
X133094050Y-110663795D01*
X132984442Y-110771132D01*
X132969493Y-110785771D01*
X132871235Y-110938238D01*
X132868826Y-110944858D01*
X132868824Y-110944861D01*
X132845931Y-111007759D01*
X132809197Y-111108685D01*
X132786463Y-111288640D01*
X119508000Y-111288640D01*
X119508000Y-108903640D01*
X126901463Y-108903640D01*
X126919163Y-109084160D01*
X126976418Y-109256273D01*
X126980065Y-109262295D01*
X126980066Y-109262297D01*
X127057939Y-109390881D01*
X127070380Y-109411424D01*
X127196382Y-109541902D01*
X127272271Y-109591562D01*
X127306404Y-109613898D01*
X127348159Y-109641222D01*
X127354763Y-109643678D01*
X127354765Y-109643679D01*
X127511558Y-109701990D01*
X127511560Y-109701990D01*
X127518168Y-109704448D01*
X127601995Y-109715633D01*
X127690980Y-109727507D01*
X127690984Y-109727507D01*
X127697961Y-109728438D01*
X127704972Y-109727800D01*
X127704976Y-109727800D01*
X127847459Y-109714832D01*
X127878600Y-109711998D01*
X127885302Y-109709820D01*
X127885304Y-109709820D01*
X128044409Y-109658124D01*
X128044412Y-109658123D01*
X128051108Y-109655947D01*
X128206912Y-109563069D01*
X128338266Y-109437982D01*
X128438643Y-109286902D01*
X128503055Y-109117338D01*
X128506289Y-109094329D01*
X128520001Y-108996765D01*
X136353730Y-108996765D01*
X136371430Y-109177285D01*
X136428685Y-109349398D01*
X136432332Y-109355420D01*
X136432333Y-109355422D01*
X136512639Y-109488023D01*
X136522647Y-109504549D01*
X136527536Y-109509612D01*
X136527537Y-109509613D01*
X136562444Y-109545760D01*
X136648649Y-109635027D01*
X136654545Y-109638885D01*
X136767250Y-109712637D01*
X136800426Y-109734347D01*
X136807030Y-109736803D01*
X136807032Y-109736804D01*
X136963825Y-109795115D01*
X136963827Y-109795115D01*
X136970435Y-109797573D01*
X137054262Y-109808758D01*
X137143247Y-109820632D01*
X137143251Y-109820632D01*
X137150228Y-109821563D01*
X137157239Y-109820925D01*
X137157243Y-109820925D01*
X137299726Y-109807957D01*
X137330867Y-109805123D01*
X137337569Y-109802945D01*
X137337571Y-109802945D01*
X137496676Y-109751249D01*
X137496679Y-109751248D01*
X137503375Y-109749072D01*
X137621789Y-109678483D01*
X137653127Y-109659802D01*
X137653129Y-109659801D01*
X137659179Y-109656194D01*
X137790533Y-109531107D01*
X137890910Y-109380027D01*
X137935632Y-109262297D01*
X137952822Y-109217045D01*
X137952823Y-109217043D01*
X137955322Y-109210463D01*
X137956302Y-109203491D01*
X137980015Y-109034764D01*
X137980015Y-109034761D01*
X137980566Y-109030842D01*
X137980883Y-109008125D01*
X137960664Y-108827870D01*
X137958347Y-108821216D01*
X137903331Y-108663231D01*
X137903329Y-108663228D01*
X137901012Y-108656573D01*
X137804893Y-108502749D01*
X137791208Y-108488968D01*
X137682045Y-108379040D01*
X137682041Y-108379037D01*
X137677082Y-108374043D01*
X137665964Y-108366987D01*
X137617805Y-108336425D01*
X137523933Y-108276852D01*
X137482648Y-108262151D01*
X137359692Y-108218368D01*
X137359687Y-108218367D01*
X137353057Y-108216006D01*
X137346069Y-108215173D01*
X137346066Y-108215172D01*
X137222965Y-108200493D01*
X137172947Y-108194529D01*
X137165944Y-108195265D01*
X137165943Y-108195265D01*
X136999555Y-108212753D01*
X136999553Y-108212754D01*
X136992555Y-108213489D01*
X136820846Y-108271943D01*
X136798135Y-108285915D01*
X136672362Y-108363291D01*
X136672359Y-108363293D01*
X136666355Y-108366987D01*
X136661320Y-108371918D01*
X136661317Y-108371920D01*
X136541792Y-108488968D01*
X136536760Y-108493896D01*
X136438502Y-108646363D01*
X136436093Y-108652983D01*
X136436091Y-108652986D01*
X136397842Y-108758075D01*
X136376464Y-108816810D01*
X136353730Y-108996765D01*
X128520001Y-108996765D01*
X128527748Y-108941639D01*
X128527748Y-108941636D01*
X128528299Y-108937717D01*
X128528616Y-108915000D01*
X128508397Y-108734745D01*
X128505666Y-108726902D01*
X128451064Y-108570106D01*
X128451062Y-108570103D01*
X128448745Y-108563448D01*
X128407694Y-108497752D01*
X128356359Y-108415598D01*
X128352626Y-108409624D01*
X128322255Y-108379040D01*
X128229778Y-108285915D01*
X128229774Y-108285912D01*
X128224815Y-108280918D01*
X128216494Y-108275637D01*
X128164769Y-108242812D01*
X128071666Y-108183727D01*
X128042463Y-108173328D01*
X127907425Y-108125243D01*
X127907420Y-108125242D01*
X127900790Y-108122881D01*
X127893802Y-108122048D01*
X127893799Y-108122047D01*
X127770698Y-108107368D01*
X127720680Y-108101404D01*
X127713677Y-108102140D01*
X127713676Y-108102140D01*
X127547288Y-108119628D01*
X127547286Y-108119629D01*
X127540288Y-108120364D01*
X127368579Y-108178818D01*
X127341845Y-108195265D01*
X127220095Y-108270166D01*
X127220092Y-108270168D01*
X127214088Y-108273862D01*
X127209053Y-108278793D01*
X127209050Y-108278795D01*
X127106684Y-108379040D01*
X127084493Y-108400771D01*
X126986235Y-108553238D01*
X126983826Y-108559858D01*
X126983824Y-108559861D01*
X126937249Y-108687826D01*
X126924197Y-108723685D01*
X126901463Y-108903640D01*
X119508000Y-108903640D01*
X119508000Y-106613640D01*
X125586463Y-106613640D01*
X125604163Y-106794160D01*
X125661418Y-106966273D01*
X125665065Y-106972295D01*
X125665066Y-106972297D01*
X125749909Y-107112390D01*
X125755380Y-107121424D01*
X125760269Y-107126487D01*
X125760270Y-107126488D01*
X125771854Y-107138483D01*
X125881382Y-107251902D01*
X126033159Y-107351222D01*
X126039763Y-107353678D01*
X126039765Y-107353679D01*
X126196558Y-107411990D01*
X126196560Y-107411990D01*
X126203168Y-107414448D01*
X126286995Y-107425633D01*
X126375980Y-107437507D01*
X126375984Y-107437507D01*
X126382961Y-107438438D01*
X126389972Y-107437800D01*
X126389976Y-107437800D01*
X126532459Y-107424832D01*
X126563600Y-107421998D01*
X126570302Y-107419820D01*
X126570304Y-107419820D01*
X126729409Y-107368124D01*
X126729412Y-107368123D01*
X126736108Y-107365947D01*
X126833930Y-107307633D01*
X126865792Y-107288640D01*
X130786463Y-107288640D01*
X130804163Y-107469160D01*
X130861418Y-107641273D01*
X130865065Y-107647295D01*
X130865066Y-107647297D01*
X130940694Y-107772174D01*
X130955380Y-107796424D01*
X130960269Y-107801487D01*
X130960270Y-107801488D01*
X131022049Y-107865461D01*
X131081382Y-107926902D01*
X131233159Y-108026222D01*
X131239763Y-108028678D01*
X131239765Y-108028679D01*
X131396558Y-108086990D01*
X131396560Y-108086990D01*
X131403168Y-108089448D01*
X131486995Y-108100633D01*
X131575980Y-108112507D01*
X131575984Y-108112507D01*
X131582961Y-108113438D01*
X131589972Y-108112800D01*
X131589976Y-108112800D01*
X131732459Y-108099832D01*
X131763600Y-108096998D01*
X131770302Y-108094820D01*
X131770304Y-108094820D01*
X131789324Y-108088640D01*
X149286463Y-108088640D01*
X149304163Y-108269160D01*
X149361418Y-108441273D01*
X149365065Y-108447295D01*
X149365066Y-108447297D01*
X149439641Y-108570435D01*
X149455380Y-108596424D01*
X149581382Y-108726902D01*
X149733159Y-108826222D01*
X149739763Y-108828678D01*
X149739765Y-108828679D01*
X149896558Y-108886990D01*
X149896560Y-108886990D01*
X149903168Y-108889448D01*
X149986995Y-108900633D01*
X150075980Y-108912507D01*
X150075984Y-108912507D01*
X150082961Y-108913438D01*
X150089972Y-108912800D01*
X150089976Y-108912800D01*
X150238339Y-108899297D01*
X150263600Y-108896998D01*
X150270302Y-108894820D01*
X150270304Y-108894820D01*
X150429409Y-108843124D01*
X150429412Y-108843123D01*
X150436108Y-108840947D01*
X150591912Y-108748069D01*
X150621304Y-108720080D01*
X150684428Y-108687587D01*
X150755099Y-108694380D01*
X150810878Y-108738302D01*
X150822391Y-108758075D01*
X150885918Y-108894310D01*
X150885921Y-108894315D01*
X150888244Y-108899297D01*
X150891398Y-108903801D01*
X150891401Y-108903806D01*
X151012779Y-109077151D01*
X151022078Y-109090432D01*
X151187068Y-109255422D01*
X151191576Y-109258579D01*
X151191579Y-109258581D01*
X151282491Y-109322238D01*
X151378203Y-109389256D01*
X151382207Y-109391123D01*
X151430969Y-109442264D01*
X151444405Y-109511977D01*
X151418018Y-109577888D01*
X151382312Y-109608828D01*
X151378203Y-109610744D01*
X151334676Y-109641222D01*
X151191579Y-109741419D01*
X151191576Y-109741421D01*
X151187068Y-109744578D01*
X151022078Y-109909568D01*
X151018921Y-109914076D01*
X151018919Y-109914079D01*
X150891401Y-110096194D01*
X150891400Y-110096196D01*
X150888244Y-110100703D01*
X150885921Y-110105685D01*
X150885918Y-110105690D01*
X150791956Y-110307192D01*
X150789633Y-110312174D01*
X150788211Y-110317482D01*
X150788210Y-110317484D01*
X150730666Y-110532241D01*
X150729242Y-110537556D01*
X150708906Y-110770000D01*
X150729242Y-111002444D01*
X150730666Y-111007757D01*
X150730666Y-111007759D01*
X150755936Y-111102066D01*
X150789633Y-111227826D01*
X150791955Y-111232806D01*
X150791956Y-111232808D01*
X150885918Y-111434310D01*
X150885921Y-111434315D01*
X150888244Y-111439297D01*
X150891398Y-111443801D01*
X150891401Y-111443806D01*
X150962208Y-111544928D01*
X151022078Y-111630432D01*
X151187068Y-111795422D01*
X151191576Y-111798579D01*
X151191579Y-111798581D01*
X151282491Y-111862238D01*
X151378203Y-111929256D01*
X151382207Y-111931123D01*
X151430969Y-111982264D01*
X151444405Y-112051977D01*
X151418018Y-112117888D01*
X151382312Y-112148828D01*
X151378203Y-112150744D01*
X151373699Y-112153898D01*
X151191579Y-112281419D01*
X151191576Y-112281421D01*
X151187068Y-112284578D01*
X151022078Y-112449568D01*
X151018921Y-112454076D01*
X151018919Y-112454079D01*
X150891401Y-112636194D01*
X150891400Y-112636196D01*
X150888244Y-112640703D01*
X150885921Y-112645685D01*
X150885918Y-112645690D01*
X150822895Y-112780843D01*
X150789633Y-112852174D01*
X150788211Y-112857482D01*
X150788210Y-112857484D01*
X150764637Y-112945461D01*
X150729242Y-113077556D01*
X150708906Y-113310000D01*
X150729242Y-113542444D01*
X150730666Y-113547757D01*
X150730666Y-113547759D01*
X150784053Y-113747000D01*
X150789633Y-113767826D01*
X150791955Y-113772806D01*
X150791956Y-113772808D01*
X150885918Y-113974310D01*
X150885921Y-113974315D01*
X150888244Y-113979297D01*
X150891398Y-113983801D01*
X150891401Y-113983806D01*
X151008558Y-114151123D01*
X151022078Y-114170432D01*
X151187068Y-114335422D01*
X151191576Y-114338579D01*
X151191579Y-114338581D01*
X151373694Y-114466099D01*
X151378203Y-114469256D01*
X151383185Y-114471579D01*
X151383190Y-114471582D01*
X151583680Y-114565072D01*
X151589674Y-114567867D01*
X151594982Y-114569289D01*
X151594984Y-114569290D01*
X151809741Y-114626834D01*
X151809743Y-114626834D01*
X151815056Y-114628258D01*
X152047500Y-114648594D01*
X152279944Y-114628258D01*
X152285257Y-114626834D01*
X152285259Y-114626834D01*
X152500016Y-114569290D01*
X152500018Y-114569289D01*
X152505326Y-114567867D01*
X152511320Y-114565072D01*
X152711810Y-114471582D01*
X152711815Y-114471579D01*
X152716797Y-114469256D01*
X152721306Y-114466099D01*
X152903421Y-114338581D01*
X152903424Y-114338579D01*
X152907932Y-114335422D01*
X153072922Y-114170432D01*
X153086443Y-114151123D01*
X153157687Y-114049375D01*
X153206756Y-113979297D01*
X153208623Y-113975293D01*
X153259764Y-113926531D01*
X153329477Y-113913095D01*
X153395388Y-113939482D01*
X153426328Y-113975188D01*
X153428244Y-113979297D01*
X153477313Y-114049375D01*
X153548558Y-114151123D01*
X153562078Y-114170432D01*
X153727068Y-114335422D01*
X153731576Y-114338579D01*
X153731579Y-114338581D01*
X153913694Y-114466099D01*
X153918203Y-114469256D01*
X153923185Y-114471579D01*
X153923190Y-114471582D01*
X154123680Y-114565072D01*
X154129674Y-114567867D01*
X154134982Y-114569289D01*
X154134984Y-114569290D01*
X154349741Y-114626834D01*
X154349743Y-114626834D01*
X154355056Y-114628258D01*
X154587500Y-114648594D01*
X154819944Y-114628258D01*
X154825257Y-114626834D01*
X154825259Y-114626834D01*
X155040016Y-114569290D01*
X155040018Y-114569289D01*
X155045326Y-114567867D01*
X155051320Y-114565072D01*
X155251810Y-114471582D01*
X155251815Y-114471579D01*
X155256797Y-114469256D01*
X155261306Y-114466099D01*
X155335693Y-114414013D01*
X156388042Y-114414013D01*
X156397338Y-114426028D01*
X156453946Y-114465665D01*
X156463441Y-114471148D01*
X156664864Y-114565072D01*
X156675156Y-114568818D01*
X156889828Y-114626339D01*
X156900623Y-114628242D01*
X157122025Y-114647613D01*
X157132975Y-114647613D01*
X157354377Y-114628242D01*
X157365172Y-114626339D01*
X157579844Y-114568818D01*
X157590136Y-114565072D01*
X157791559Y-114471148D01*
X157801054Y-114465665D01*
X157858500Y-114425441D01*
X157866875Y-114414964D01*
X157859807Y-114401517D01*
X157140312Y-113682022D01*
X157126368Y-113674408D01*
X157124535Y-113674539D01*
X157117920Y-113678790D01*
X156394472Y-114402238D01*
X156388042Y-114414013D01*
X155335693Y-114414013D01*
X155443421Y-114338581D01*
X155443424Y-114338579D01*
X155447932Y-114335422D01*
X155612922Y-114170432D01*
X155626443Y-114151123D01*
X155697687Y-114049375D01*
X155746756Y-113979297D01*
X155748812Y-113974887D01*
X155800051Y-113926030D01*
X155869765Y-113912593D01*
X155935676Y-113938979D01*
X155966906Y-113975019D01*
X155971832Y-113983551D01*
X156012059Y-114041000D01*
X156022536Y-114049375D01*
X156035983Y-114042307D01*
X156755478Y-113322812D01*
X156763092Y-113308868D01*
X156762961Y-113307035D01*
X156758710Y-113300420D01*
X156035262Y-112576972D01*
X156023487Y-112570542D01*
X156011472Y-112579838D01*
X155971832Y-112636449D01*
X155966906Y-112644981D01*
X155915521Y-112693973D01*
X155845807Y-112707406D01*
X155779897Y-112681017D01*
X155748841Y-112645175D01*
X155746756Y-112640703D01*
X155653753Y-112507881D01*
X155616081Y-112454079D01*
X155616079Y-112454076D01*
X155612922Y-112449568D01*
X155447932Y-112284578D01*
X155443424Y-112281421D01*
X155443421Y-112281419D01*
X155261301Y-112153898D01*
X155256797Y-112150744D01*
X155252793Y-112148877D01*
X155204031Y-112097736D01*
X155190595Y-112028023D01*
X155216982Y-111962112D01*
X155252688Y-111931172D01*
X155256797Y-111929256D01*
X155335692Y-111874013D01*
X156388042Y-111874013D01*
X156397338Y-111886028D01*
X156453946Y-111925665D01*
X156462978Y-111930880D01*
X156511972Y-111982263D01*
X156525409Y-112051976D01*
X156499022Y-112117887D01*
X156462978Y-112149120D01*
X156453946Y-112154335D01*
X156396500Y-112194559D01*
X156388125Y-112205036D01*
X156395193Y-112218483D01*
X157114688Y-112937978D01*
X157128632Y-112945592D01*
X157130465Y-112945461D01*
X157137080Y-112941210D01*
X157860528Y-112217762D01*
X157866958Y-112205987D01*
X157857662Y-112193972D01*
X157801054Y-112154335D01*
X157792022Y-112149120D01*
X157743028Y-112097737D01*
X157729591Y-112028024D01*
X157755978Y-111962113D01*
X157792022Y-111930880D01*
X157801054Y-111925665D01*
X157858500Y-111885441D01*
X157866875Y-111874964D01*
X157859807Y-111861517D01*
X157140312Y-111142022D01*
X157126368Y-111134408D01*
X157124535Y-111134539D01*
X157117920Y-111138790D01*
X156394472Y-111862238D01*
X156388042Y-111874013D01*
X155335692Y-111874013D01*
X155352509Y-111862238D01*
X155443421Y-111798581D01*
X155443424Y-111798579D01*
X155447932Y-111795422D01*
X155612922Y-111630432D01*
X155746756Y-111439297D01*
X155748812Y-111434887D01*
X155800051Y-111386030D01*
X155869765Y-111372593D01*
X155935676Y-111398979D01*
X155966906Y-111435019D01*
X155971832Y-111443551D01*
X156012059Y-111501000D01*
X156022536Y-111509375D01*
X156035983Y-111502307D01*
X156755478Y-110782812D01*
X156763092Y-110768868D01*
X156762961Y-110767035D01*
X156758710Y-110760420D01*
X156035262Y-110036972D01*
X156023487Y-110030542D01*
X156011472Y-110039838D01*
X155971832Y-110096449D01*
X155966906Y-110104981D01*
X155915521Y-110153973D01*
X155845807Y-110167406D01*
X155779897Y-110141017D01*
X155748841Y-110105175D01*
X155746756Y-110100703D01*
X155612922Y-109909568D01*
X155447932Y-109744578D01*
X155443424Y-109741421D01*
X155443421Y-109741419D01*
X155300324Y-109641222D01*
X155256797Y-109610744D01*
X155252793Y-109608877D01*
X155204031Y-109557736D01*
X155190595Y-109488023D01*
X155216982Y-109422112D01*
X155252688Y-109391172D01*
X155256797Y-109389256D01*
X155335692Y-109334013D01*
X156388042Y-109334013D01*
X156397338Y-109346028D01*
X156453946Y-109385665D01*
X156462978Y-109390880D01*
X156511972Y-109442263D01*
X156525409Y-109511976D01*
X156499022Y-109577887D01*
X156462978Y-109609120D01*
X156453946Y-109614335D01*
X156396500Y-109654559D01*
X156388125Y-109665036D01*
X156395193Y-109678483D01*
X157114688Y-110397978D01*
X157128632Y-110405592D01*
X157130465Y-110405461D01*
X157137080Y-110401210D01*
X157860528Y-109677762D01*
X157866958Y-109665987D01*
X157857662Y-109653972D01*
X157801054Y-109614335D01*
X157792022Y-109609120D01*
X157743028Y-109557737D01*
X157729591Y-109488024D01*
X157755978Y-109422113D01*
X157792022Y-109390880D01*
X157801054Y-109385665D01*
X157858500Y-109345441D01*
X157866875Y-109334964D01*
X157859807Y-109321517D01*
X157140312Y-108602022D01*
X157126368Y-108594408D01*
X157124535Y-108594539D01*
X157117920Y-108598790D01*
X156394472Y-109322238D01*
X156388042Y-109334013D01*
X155335692Y-109334013D01*
X155352509Y-109322238D01*
X155443421Y-109258581D01*
X155443424Y-109258579D01*
X155447932Y-109255422D01*
X155612922Y-109090432D01*
X155622222Y-109077151D01*
X155678508Y-108996765D01*
X155746756Y-108899297D01*
X155748812Y-108894887D01*
X155800051Y-108846030D01*
X155869765Y-108832593D01*
X155935676Y-108858979D01*
X155966906Y-108895019D01*
X155971832Y-108903551D01*
X156012059Y-108961000D01*
X156022536Y-108969375D01*
X156035983Y-108962307D01*
X156755478Y-108242812D01*
X156763092Y-108228868D01*
X156762961Y-108227035D01*
X156758710Y-108220420D01*
X156035262Y-107496972D01*
X156023487Y-107490542D01*
X156011472Y-107499838D01*
X155971832Y-107556449D01*
X155966906Y-107564981D01*
X155915521Y-107613973D01*
X155845807Y-107627406D01*
X155779897Y-107601017D01*
X155748841Y-107565175D01*
X155746756Y-107560703D01*
X155612922Y-107369568D01*
X155447932Y-107204578D01*
X155443424Y-107201421D01*
X155443421Y-107201419D01*
X155310982Y-107108685D01*
X155256797Y-107070744D01*
X155252793Y-107068877D01*
X155204031Y-107017736D01*
X155190595Y-106948023D01*
X155216982Y-106882112D01*
X155252688Y-106851172D01*
X155256797Y-106849256D01*
X155335692Y-106794013D01*
X156388042Y-106794013D01*
X156397338Y-106806028D01*
X156453946Y-106845665D01*
X156462978Y-106850880D01*
X156511972Y-106902263D01*
X156525409Y-106971976D01*
X156499022Y-107037887D01*
X156462978Y-107069120D01*
X156453946Y-107074335D01*
X156396500Y-107114559D01*
X156388125Y-107125036D01*
X156395193Y-107138483D01*
X157114688Y-107857978D01*
X157128632Y-107865592D01*
X157130465Y-107865461D01*
X157137080Y-107861210D01*
X157860528Y-107137762D01*
X157866958Y-107125987D01*
X157857662Y-107113972D01*
X157801054Y-107074335D01*
X157792022Y-107069120D01*
X157743028Y-107017737D01*
X157729591Y-106948024D01*
X157755978Y-106882113D01*
X157792022Y-106850880D01*
X157801054Y-106845665D01*
X157858500Y-106805441D01*
X157866875Y-106794964D01*
X157859807Y-106781517D01*
X157140312Y-106062022D01*
X157126368Y-106054408D01*
X157124535Y-106054539D01*
X157117920Y-106058790D01*
X156394472Y-106782238D01*
X156388042Y-106794013D01*
X155335692Y-106794013D01*
X155352509Y-106782238D01*
X155443421Y-106718581D01*
X155443424Y-106718579D01*
X155447932Y-106715422D01*
X155612922Y-106550432D01*
X155617668Y-106543655D01*
X155689356Y-106441273D01*
X155746756Y-106359297D01*
X155748812Y-106354887D01*
X155800051Y-106306030D01*
X155869765Y-106292593D01*
X155935676Y-106318979D01*
X155966906Y-106355019D01*
X155971832Y-106363551D01*
X156012059Y-106421000D01*
X156022536Y-106429375D01*
X156035983Y-106422307D01*
X156755478Y-105702812D01*
X156763092Y-105688868D01*
X156762961Y-105687035D01*
X156758710Y-105680420D01*
X156035262Y-104956972D01*
X156023487Y-104950542D01*
X156011472Y-104959838D01*
X155971832Y-105016449D01*
X155966906Y-105024981D01*
X155915521Y-105073973D01*
X155845807Y-105087406D01*
X155779897Y-105061017D01*
X155748841Y-105025175D01*
X155746756Y-105020703D01*
X155652469Y-104886047D01*
X155616081Y-104834079D01*
X155616079Y-104834076D01*
X155612922Y-104829568D01*
X155447932Y-104664578D01*
X155443424Y-104661421D01*
X155443421Y-104661419D01*
X155334335Y-104585036D01*
X156388125Y-104585036D01*
X156395193Y-104598483D01*
X157114688Y-105317978D01*
X157128632Y-105325592D01*
X157130465Y-105325461D01*
X157137080Y-105321210D01*
X157860528Y-104597762D01*
X157866958Y-104585987D01*
X157857662Y-104573972D01*
X157801054Y-104534335D01*
X157791559Y-104528852D01*
X157590136Y-104434928D01*
X157579844Y-104431182D01*
X157365172Y-104373661D01*
X157354377Y-104371758D01*
X157132975Y-104352387D01*
X157122025Y-104352387D01*
X156900623Y-104371758D01*
X156889828Y-104373661D01*
X156675156Y-104431182D01*
X156664864Y-104434928D01*
X156463441Y-104528852D01*
X156453946Y-104534335D01*
X156396500Y-104574559D01*
X156388125Y-104585036D01*
X155334335Y-104585036D01*
X155261306Y-104533901D01*
X155261304Y-104533900D01*
X155256797Y-104530744D01*
X155251815Y-104528421D01*
X155251810Y-104528418D01*
X155050308Y-104434456D01*
X155050306Y-104434455D01*
X155045326Y-104432133D01*
X155040018Y-104430711D01*
X155040016Y-104430710D01*
X154825259Y-104373166D01*
X154825257Y-104373166D01*
X154819944Y-104371742D01*
X154587500Y-104351406D01*
X154355056Y-104371742D01*
X154349743Y-104373166D01*
X154349741Y-104373166D01*
X154134984Y-104430710D01*
X154134982Y-104430711D01*
X154129674Y-104432133D01*
X154124694Y-104434455D01*
X154124692Y-104434456D01*
X153923190Y-104528418D01*
X153923185Y-104528421D01*
X153918203Y-104530744D01*
X153913696Y-104533900D01*
X153913694Y-104533901D01*
X153731579Y-104661419D01*
X153731576Y-104661421D01*
X153727068Y-104664578D01*
X153583392Y-104808254D01*
X153521080Y-104842280D01*
X153450265Y-104837215D01*
X153393429Y-104794668D01*
X153374633Y-104754538D01*
X153374245Y-104754684D01*
X153372415Y-104749803D01*
X153371472Y-104747285D01*
X153326267Y-104626703D01*
X153323115Y-104618295D01*
X153235761Y-104501739D01*
X153119205Y-104414385D01*
X152982816Y-104363255D01*
X152920634Y-104356500D01*
X151174366Y-104356500D01*
X151112184Y-104363255D01*
X150975795Y-104414385D01*
X150859239Y-104501739D01*
X150771885Y-104618295D01*
X150720755Y-104754684D01*
X150714000Y-104816866D01*
X150714000Y-106563134D01*
X150720755Y-106625316D01*
X150771885Y-106761705D01*
X150859239Y-106878261D01*
X150975795Y-106965615D01*
X150984203Y-106968767D01*
X151104789Y-107013973D01*
X151104791Y-107013973D01*
X151112184Y-107016745D01*
X151111840Y-107017661D01*
X151167454Y-107049434D01*
X151200272Y-107112390D01*
X151193845Y-107183095D01*
X151165754Y-107225892D01*
X151022078Y-107369568D01*
X151018921Y-107374076D01*
X151018919Y-107374079D01*
X150898464Y-107546107D01*
X150843007Y-107590435D01*
X150772388Y-107597744D01*
X150705845Y-107562620D01*
X150614778Y-107470915D01*
X150614774Y-107470912D01*
X150609815Y-107465918D01*
X150598697Y-107458862D01*
X150537176Y-107419820D01*
X150456666Y-107368727D01*
X150396672Y-107347364D01*
X150292425Y-107310243D01*
X150292420Y-107310242D01*
X150285790Y-107307881D01*
X150278802Y-107307048D01*
X150278799Y-107307047D01*
X150124431Y-107288640D01*
X150105680Y-107286404D01*
X150098677Y-107287140D01*
X150098676Y-107287140D01*
X149932288Y-107304628D01*
X149932286Y-107304629D01*
X149925288Y-107305364D01*
X149753579Y-107363818D01*
X149747575Y-107367512D01*
X149605095Y-107455166D01*
X149605092Y-107455168D01*
X149599088Y-107458862D01*
X149594053Y-107463793D01*
X149594050Y-107463795D01*
X149474525Y-107580843D01*
X149469493Y-107585771D01*
X149371235Y-107738238D01*
X149368826Y-107744858D01*
X149368824Y-107744861D01*
X149311606Y-107902066D01*
X149309197Y-107908685D01*
X149286463Y-108088640D01*
X131789324Y-108088640D01*
X131929409Y-108043124D01*
X131929412Y-108043123D01*
X131936108Y-108040947D01*
X132091912Y-107948069D01*
X132223266Y-107822982D01*
X132323643Y-107671902D01*
X132371429Y-107546107D01*
X132385555Y-107508920D01*
X132385556Y-107508918D01*
X132388055Y-107502338D01*
X132389713Y-107490542D01*
X132412748Y-107326639D01*
X132412748Y-107326636D01*
X132413299Y-107322717D01*
X132413506Y-107307881D01*
X132413561Y-107303962D01*
X132413561Y-107303957D01*
X132413616Y-107300000D01*
X132393397Y-107119745D01*
X132390836Y-107112390D01*
X132336064Y-106955106D01*
X132336062Y-106955103D01*
X132333745Y-106948448D01*
X132258068Y-106827338D01*
X132241359Y-106800598D01*
X132237626Y-106794624D01*
X132204936Y-106761705D01*
X132114778Y-106670915D01*
X132114774Y-106670912D01*
X132109815Y-106665918D01*
X132098697Y-106658862D01*
X132039133Y-106621062D01*
X131956666Y-106568727D01*
X131916232Y-106554329D01*
X131792425Y-106510243D01*
X131792420Y-106510242D01*
X131785790Y-106507881D01*
X131778802Y-106507048D01*
X131778799Y-106507047D01*
X131655698Y-106492368D01*
X131605680Y-106486404D01*
X131598677Y-106487140D01*
X131598676Y-106487140D01*
X131432288Y-106504628D01*
X131432286Y-106504629D01*
X131425288Y-106505364D01*
X131253579Y-106563818D01*
X131239457Y-106572506D01*
X131105095Y-106655166D01*
X131105092Y-106655168D01*
X131099088Y-106658862D01*
X131094053Y-106663793D01*
X131094050Y-106663795D01*
X131002654Y-106753297D01*
X130969493Y-106785771D01*
X130871235Y-106938238D01*
X130868826Y-106944858D01*
X130868824Y-106944861D01*
X130821699Y-107074335D01*
X130809197Y-107108685D01*
X130786463Y-107288640D01*
X126865792Y-107288640D01*
X126885860Y-107276677D01*
X126885862Y-107276676D01*
X126891912Y-107273069D01*
X127023266Y-107147982D01*
X127123643Y-106996902D01*
X127168711Y-106878261D01*
X127185555Y-106833920D01*
X127185556Y-106833918D01*
X127188055Y-106827338D01*
X127191050Y-106806028D01*
X127212748Y-106651639D01*
X127212748Y-106651636D01*
X127213299Y-106647717D01*
X127213508Y-106632715D01*
X127213561Y-106628962D01*
X127213561Y-106628957D01*
X127213616Y-106625000D01*
X127193397Y-106444745D01*
X127191027Y-106437938D01*
X127136064Y-106280106D01*
X127136062Y-106280103D01*
X127133745Y-106273448D01*
X127119969Y-106251402D01*
X127041359Y-106125598D01*
X127037626Y-106119624D01*
X127022073Y-106103962D01*
X126914778Y-105995915D01*
X126914774Y-105995912D01*
X126909815Y-105990918D01*
X126898697Y-105983862D01*
X126850538Y-105953300D01*
X126756666Y-105893727D01*
X126676873Y-105865314D01*
X126592425Y-105835243D01*
X126592420Y-105835242D01*
X126585790Y-105832881D01*
X126578802Y-105832048D01*
X126578799Y-105832047D01*
X126455698Y-105817368D01*
X126405680Y-105811404D01*
X126398677Y-105812140D01*
X126398676Y-105812140D01*
X126232288Y-105829628D01*
X126232286Y-105829629D01*
X126225288Y-105830364D01*
X126053579Y-105888818D01*
X126004844Y-105918800D01*
X125905095Y-105980166D01*
X125905092Y-105980168D01*
X125899088Y-105983862D01*
X125894053Y-105988793D01*
X125894050Y-105988795D01*
X125799234Y-106081646D01*
X125769493Y-106110771D01*
X125671235Y-106263238D01*
X125668826Y-106269858D01*
X125668824Y-106269861D01*
X125614425Y-106419320D01*
X125609197Y-106433685D01*
X125586463Y-106613640D01*
X119508000Y-106613640D01*
X119508000Y-105488640D01*
X121186463Y-105488640D01*
X121204163Y-105669160D01*
X121261418Y-105841273D01*
X121265065Y-105847295D01*
X121265066Y-105847297D01*
X121351379Y-105989817D01*
X121355380Y-105996424D01*
X121360269Y-106001487D01*
X121360270Y-106001488D01*
X121418728Y-106062022D01*
X121481382Y-106126902D01*
X121633159Y-106226222D01*
X121639763Y-106228678D01*
X121639765Y-106228679D01*
X121796558Y-106286990D01*
X121796560Y-106286990D01*
X121803168Y-106289448D01*
X121886995Y-106300633D01*
X121975980Y-106312507D01*
X121975984Y-106312507D01*
X121982961Y-106313438D01*
X121989972Y-106312800D01*
X121989976Y-106312800D01*
X122132459Y-106299832D01*
X122163600Y-106296998D01*
X122170302Y-106294820D01*
X122170304Y-106294820D01*
X122329409Y-106243124D01*
X122329412Y-106243123D01*
X122336108Y-106240947D01*
X122491912Y-106148069D01*
X122623266Y-106022982D01*
X122723643Y-105871902D01*
X122788055Y-105702338D01*
X122790985Y-105681488D01*
X122812748Y-105526639D01*
X122812748Y-105526636D01*
X122813299Y-105522717D01*
X122813616Y-105500000D01*
X122793397Y-105319745D01*
X122790088Y-105310243D01*
X122740777Y-105168640D01*
X133166463Y-105168640D01*
X133184163Y-105349160D01*
X133241418Y-105521273D01*
X133245065Y-105527295D01*
X133245066Y-105527297D01*
X133330981Y-105669160D01*
X133335380Y-105676424D01*
X133340269Y-105681487D01*
X133340270Y-105681488D01*
X133360405Y-105702338D01*
X133461382Y-105806902D01*
X133516735Y-105843124D01*
X133600040Y-105897637D01*
X133613159Y-105906222D01*
X133619763Y-105908678D01*
X133619765Y-105908679D01*
X133776558Y-105966990D01*
X133776560Y-105966990D01*
X133783168Y-105969448D01*
X133863494Y-105980166D01*
X133955980Y-105992507D01*
X133955984Y-105992507D01*
X133962961Y-105993438D01*
X133969972Y-105992800D01*
X133969976Y-105992800D01*
X134112459Y-105979832D01*
X134143600Y-105976998D01*
X134150302Y-105974820D01*
X134150304Y-105974820D01*
X134309409Y-105923124D01*
X134309412Y-105923123D01*
X134316108Y-105920947D01*
X134471912Y-105828069D01*
X134603266Y-105702982D01*
X134662957Y-105613140D01*
X136566863Y-105613140D01*
X136584563Y-105793660D01*
X136641818Y-105965773D01*
X136645465Y-105971795D01*
X136645466Y-105971797D01*
X136726647Y-106105843D01*
X136735780Y-106120924D01*
X136740669Y-106125987D01*
X136740670Y-106125988D01*
X136755757Y-106141611D01*
X136861782Y-106251402D01*
X136921347Y-106290380D01*
X136998733Y-106341020D01*
X137013559Y-106350722D01*
X137020163Y-106353178D01*
X137020165Y-106353179D01*
X137176958Y-106411490D01*
X137176960Y-106411490D01*
X137183568Y-106413948D01*
X137267395Y-106425133D01*
X137356380Y-106437007D01*
X137356384Y-106437007D01*
X137363361Y-106437938D01*
X137370372Y-106437300D01*
X137370376Y-106437300D01*
X137512859Y-106424332D01*
X137544000Y-106421498D01*
X137550702Y-106419320D01*
X137550704Y-106419320D01*
X137709809Y-106367624D01*
X137709812Y-106367623D01*
X137716508Y-106365447D01*
X137834986Y-106294820D01*
X137866260Y-106276177D01*
X137866262Y-106276176D01*
X137872312Y-106272569D01*
X138003666Y-106147482D01*
X138042760Y-106088640D01*
X141486463Y-106088640D01*
X141504163Y-106269160D01*
X141561418Y-106441273D01*
X141565065Y-106447295D01*
X141565066Y-106447297D01*
X141640435Y-106571746D01*
X141655380Y-106596424D01*
X141660269Y-106601487D01*
X141660270Y-106601488D01*
X141720440Y-106663795D01*
X141781382Y-106726902D01*
X141933159Y-106826222D01*
X141939763Y-106828678D01*
X141939765Y-106828679D01*
X142096558Y-106886990D01*
X142096560Y-106886990D01*
X142103168Y-106889448D01*
X142186995Y-106900633D01*
X142275980Y-106912507D01*
X142275984Y-106912507D01*
X142282961Y-106913438D01*
X142289972Y-106912800D01*
X142289976Y-106912800D01*
X142432459Y-106899832D01*
X142463600Y-106896998D01*
X142470302Y-106894820D01*
X142470304Y-106894820D01*
X142629409Y-106843124D01*
X142629412Y-106843123D01*
X142636108Y-106840947D01*
X142756983Y-106768891D01*
X142785860Y-106751677D01*
X142785862Y-106751676D01*
X142791912Y-106748069D01*
X142923266Y-106622982D01*
X143023643Y-106471902D01*
X143068742Y-106353179D01*
X143085555Y-106308920D01*
X143085556Y-106308918D01*
X143088055Y-106302338D01*
X143090212Y-106286990D01*
X143112748Y-106126639D01*
X143112748Y-106126636D01*
X143113299Y-106122717D01*
X143113466Y-106110771D01*
X143113561Y-106103962D01*
X143113561Y-106103957D01*
X143113616Y-106100000D01*
X143093397Y-105919745D01*
X143091080Y-105913091D01*
X143036064Y-105755106D01*
X143036062Y-105755103D01*
X143033745Y-105748448D01*
X142937626Y-105594624D01*
X142923941Y-105580843D01*
X142814778Y-105470915D01*
X142814774Y-105470912D01*
X142809815Y-105465918D01*
X142798697Y-105458862D01*
X142697782Y-105394820D01*
X142656666Y-105368727D01*
X142620486Y-105355844D01*
X142492425Y-105310243D01*
X142492420Y-105310242D01*
X142485790Y-105307881D01*
X142478802Y-105307048D01*
X142478799Y-105307047D01*
X142355698Y-105292368D01*
X142305680Y-105286404D01*
X142298677Y-105287140D01*
X142298676Y-105287140D01*
X142132288Y-105304628D01*
X142132286Y-105304629D01*
X142125288Y-105305364D01*
X141953579Y-105363818D01*
X141911918Y-105389448D01*
X141805095Y-105455166D01*
X141805092Y-105455168D01*
X141799088Y-105458862D01*
X141794053Y-105463793D01*
X141794050Y-105463795D01*
X141674525Y-105580843D01*
X141669493Y-105585771D01*
X141571235Y-105738238D01*
X141568826Y-105744858D01*
X141568824Y-105744861D01*
X141514641Y-105893727D01*
X141509197Y-105908685D01*
X141486463Y-106088640D01*
X138042760Y-106088640D01*
X138083155Y-106027841D01*
X138100142Y-106002274D01*
X138100143Y-106002272D01*
X138104043Y-105996402D01*
X138112030Y-105975377D01*
X138154916Y-105918800D01*
X138221585Y-105894390D01*
X138246481Y-105895228D01*
X138375979Y-105912507D01*
X138375984Y-105912507D01*
X138382961Y-105913438D01*
X138389972Y-105912800D01*
X138389976Y-105912800D01*
X138532459Y-105899832D01*
X138563600Y-105896998D01*
X138570302Y-105894820D01*
X138570304Y-105894820D01*
X138729409Y-105843124D01*
X138729412Y-105843123D01*
X138736108Y-105840947D01*
X138832513Y-105783478D01*
X138885860Y-105751677D01*
X138885862Y-105751676D01*
X138891912Y-105748069D01*
X139023266Y-105622982D01*
X139123643Y-105471902D01*
X139179222Y-105325592D01*
X139185555Y-105308920D01*
X139185556Y-105308918D01*
X139188055Y-105302338D01*
X139190191Y-105287140D01*
X139212748Y-105126639D01*
X139212748Y-105126636D01*
X139213299Y-105122717D01*
X139213473Y-105110271D01*
X139213561Y-105103962D01*
X139213561Y-105103957D01*
X139213616Y-105100000D01*
X139193397Y-104919745D01*
X139191080Y-104913091D01*
X139136064Y-104755106D01*
X139136062Y-104755103D01*
X139133745Y-104748448D01*
X139106823Y-104705364D01*
X139041359Y-104600598D01*
X139037626Y-104594624D01*
X139031684Y-104588640D01*
X139586463Y-104588640D01*
X139604163Y-104769160D01*
X139661418Y-104941273D01*
X139665065Y-104947295D01*
X139665066Y-104947297D01*
X139749919Y-105087406D01*
X139755380Y-105096424D01*
X139760269Y-105101487D01*
X139760270Y-105101488D01*
X139799845Y-105142469D01*
X139881382Y-105226902D01*
X139906305Y-105243211D01*
X140013093Y-105313091D01*
X140033159Y-105326222D01*
X140039763Y-105328678D01*
X140039765Y-105328679D01*
X140196558Y-105386990D01*
X140196560Y-105386990D01*
X140203168Y-105389448D01*
X140286995Y-105400633D01*
X140375980Y-105412507D01*
X140375984Y-105412507D01*
X140382961Y-105413438D01*
X140389972Y-105412800D01*
X140389976Y-105412800D01*
X140532459Y-105399832D01*
X140563600Y-105396998D01*
X140570302Y-105394820D01*
X140570304Y-105394820D01*
X140729409Y-105343124D01*
X140729412Y-105343123D01*
X140736108Y-105340947D01*
X140832513Y-105283478D01*
X140885860Y-105251677D01*
X140885862Y-105251676D01*
X140891912Y-105248069D01*
X141023266Y-105122982D01*
X141123643Y-104971902D01*
X141174806Y-104837215D01*
X141185555Y-104808920D01*
X141185556Y-104808918D01*
X141188055Y-104802338D01*
X141189133Y-104794668D01*
X141212748Y-104626639D01*
X141212748Y-104626636D01*
X141213299Y-104622717D01*
X141213616Y-104600000D01*
X141193397Y-104419745D01*
X141190433Y-104411233D01*
X141136064Y-104255106D01*
X141136062Y-104255103D01*
X141133745Y-104248448D01*
X141037626Y-104094624D01*
X141020960Y-104077841D01*
X140914778Y-103970915D01*
X140914774Y-103970912D01*
X140909815Y-103965918D01*
X140898697Y-103958862D01*
X140840457Y-103921902D01*
X140756666Y-103868727D01*
X140727463Y-103858328D01*
X140592425Y-103810243D01*
X140592420Y-103810242D01*
X140585790Y-103807881D01*
X140578802Y-103807048D01*
X140578799Y-103807047D01*
X140455698Y-103792368D01*
X140405680Y-103786404D01*
X140398677Y-103787140D01*
X140398676Y-103787140D01*
X140232288Y-103804628D01*
X140232286Y-103804629D01*
X140225288Y-103805364D01*
X140053579Y-103863818D01*
X140047575Y-103867512D01*
X139905095Y-103955166D01*
X139905092Y-103955168D01*
X139899088Y-103958862D01*
X139894053Y-103963793D01*
X139894050Y-103963795D01*
X139777591Y-104077841D01*
X139769493Y-104085771D01*
X139671235Y-104238238D01*
X139668826Y-104244858D01*
X139668824Y-104244861D01*
X139616859Y-104387633D01*
X139609197Y-104408685D01*
X139586463Y-104588640D01*
X139031684Y-104588640D01*
X139028105Y-104585036D01*
X138914778Y-104470915D01*
X138914774Y-104470912D01*
X138909815Y-104465918D01*
X138898697Y-104458862D01*
X138828612Y-104414385D01*
X138756666Y-104368727D01*
X138723365Y-104356869D01*
X138592425Y-104310243D01*
X138592420Y-104310242D01*
X138585790Y-104307881D01*
X138578802Y-104307048D01*
X138578799Y-104307047D01*
X138443778Y-104290947D01*
X138405680Y-104286404D01*
X138398677Y-104287140D01*
X138398676Y-104287140D01*
X138232288Y-104304628D01*
X138232286Y-104304629D01*
X138225288Y-104305364D01*
X138053579Y-104363818D01*
X138010626Y-104390243D01*
X137905095Y-104455166D01*
X137905092Y-104455168D01*
X137899088Y-104458862D01*
X137894053Y-104463793D01*
X137894050Y-104463795D01*
X137780942Y-104574559D01*
X137769493Y-104585771D01*
X137671235Y-104738238D01*
X137668825Y-104744860D01*
X137668181Y-104746630D01*
X137667462Y-104747607D01*
X137665694Y-104751168D01*
X137665068Y-104750857D01*
X137626084Y-104803800D01*
X137559761Y-104829135D01*
X137534862Y-104828645D01*
X137432698Y-104816463D01*
X137386080Y-104810904D01*
X137379077Y-104811640D01*
X137379076Y-104811640D01*
X137212688Y-104829128D01*
X137212686Y-104829129D01*
X137205688Y-104829864D01*
X137033979Y-104888318D01*
X136971519Y-104926744D01*
X136885495Y-104979666D01*
X136885492Y-104979668D01*
X136879488Y-104983362D01*
X136874453Y-104988293D01*
X136874450Y-104988295D01*
X136754925Y-105105343D01*
X136749893Y-105110271D01*
X136651635Y-105262738D01*
X136649226Y-105269358D01*
X136649224Y-105269361D01*
X136596784Y-105413438D01*
X136589597Y-105433185D01*
X136566863Y-105613140D01*
X134662957Y-105613140D01*
X134703643Y-105551902D01*
X134756241Y-105413438D01*
X134765555Y-105388920D01*
X134765556Y-105388918D01*
X134768055Y-105382338D01*
X134770977Y-105361547D01*
X134792748Y-105206639D01*
X134792748Y-105206636D01*
X134793299Y-105202717D01*
X134793616Y-105180000D01*
X134773397Y-104999745D01*
X134769874Y-104989627D01*
X134716064Y-104835106D01*
X134716062Y-104835103D01*
X134713745Y-104828448D01*
X134673360Y-104763818D01*
X134621359Y-104680598D01*
X134617626Y-104674624D01*
X134603941Y-104660843D01*
X134494778Y-104550915D01*
X134494774Y-104550912D01*
X134489815Y-104545918D01*
X134478697Y-104538862D01*
X134411721Y-104496358D01*
X134336666Y-104448727D01*
X134296588Y-104434456D01*
X134172425Y-104390243D01*
X134172420Y-104390242D01*
X134165790Y-104387881D01*
X134158802Y-104387048D01*
X134158799Y-104387047D01*
X134035698Y-104372368D01*
X133985680Y-104366404D01*
X133978677Y-104367140D01*
X133978676Y-104367140D01*
X133812288Y-104384628D01*
X133812286Y-104384629D01*
X133805288Y-104385364D01*
X133633579Y-104443818D01*
X133601107Y-104463795D01*
X133485095Y-104535166D01*
X133485092Y-104535168D01*
X133479088Y-104538862D01*
X133474053Y-104543793D01*
X133474050Y-104543795D01*
X133354525Y-104660843D01*
X133349493Y-104665771D01*
X133251235Y-104818238D01*
X133248826Y-104824858D01*
X133248824Y-104824861D01*
X133193169Y-104977773D01*
X133189197Y-104988685D01*
X133166463Y-105168640D01*
X122740777Y-105168640D01*
X122736064Y-105155106D01*
X122736062Y-105155103D01*
X122733745Y-105148448D01*
X122637626Y-104994624D01*
X122632664Y-104989627D01*
X122514778Y-104870915D01*
X122514774Y-104870912D01*
X122509815Y-104865918D01*
X122498697Y-104858862D01*
X122441350Y-104822469D01*
X122356666Y-104768727D01*
X122316819Y-104754538D01*
X122192425Y-104710243D01*
X122192420Y-104710242D01*
X122185790Y-104707881D01*
X122178802Y-104707048D01*
X122178799Y-104707047D01*
X122055698Y-104692368D01*
X122005680Y-104686404D01*
X121998677Y-104687140D01*
X121998676Y-104687140D01*
X121832288Y-104704628D01*
X121832286Y-104704629D01*
X121825288Y-104705364D01*
X121653579Y-104763818D01*
X121647575Y-104767512D01*
X121505095Y-104855166D01*
X121505092Y-104855168D01*
X121499088Y-104858862D01*
X121494053Y-104863793D01*
X121494050Y-104863795D01*
X121377660Y-104977773D01*
X121369493Y-104985771D01*
X121271235Y-105138238D01*
X121268826Y-105144858D01*
X121268824Y-105144861D01*
X121229946Y-105251677D01*
X121209197Y-105308685D01*
X121186463Y-105488640D01*
X119508000Y-105488640D01*
X119508000Y-103538640D01*
X120036463Y-103538640D01*
X120054163Y-103719160D01*
X120111418Y-103891273D01*
X120115065Y-103897295D01*
X120115066Y-103897297D01*
X120159651Y-103970915D01*
X120205380Y-104046424D01*
X120210269Y-104051487D01*
X120210270Y-104051488D01*
X120287121Y-104131068D01*
X120331382Y-104176902D01*
X120483159Y-104276222D01*
X120489763Y-104278678D01*
X120489765Y-104278679D01*
X120646558Y-104336990D01*
X120646560Y-104336990D01*
X120653168Y-104339448D01*
X120736995Y-104350633D01*
X120825980Y-104362507D01*
X120825984Y-104362507D01*
X120832961Y-104363438D01*
X120839972Y-104362800D01*
X120839976Y-104362800D01*
X120982459Y-104349832D01*
X121013600Y-104346998D01*
X121020302Y-104344820D01*
X121020304Y-104344820D01*
X121179409Y-104293124D01*
X121179412Y-104293123D01*
X121186108Y-104290947D01*
X121341912Y-104198069D01*
X121473266Y-104072982D01*
X121573643Y-103921902D01*
X121624835Y-103787140D01*
X121635555Y-103758920D01*
X121635556Y-103758918D01*
X121638055Y-103752338D01*
X121639035Y-103745366D01*
X121662748Y-103576639D01*
X121662748Y-103576636D01*
X121663299Y-103572717D01*
X121663616Y-103550000D01*
X121643397Y-103369745D01*
X121641080Y-103363091D01*
X121586064Y-103205106D01*
X121586062Y-103205103D01*
X121583745Y-103198448D01*
X121487626Y-103044624D01*
X121473941Y-103030843D01*
X121364778Y-102920915D01*
X121364774Y-102920912D01*
X121359815Y-102915918D01*
X121348697Y-102908862D01*
X121300538Y-102878300D01*
X121206666Y-102818727D01*
X121177463Y-102808328D01*
X121042425Y-102760243D01*
X121042420Y-102760242D01*
X121035790Y-102757881D01*
X121028802Y-102757048D01*
X121028799Y-102757047D01*
X120905698Y-102742368D01*
X120855680Y-102736404D01*
X120848677Y-102737140D01*
X120848676Y-102737140D01*
X120682288Y-102754628D01*
X120682286Y-102754629D01*
X120675288Y-102755364D01*
X120503579Y-102813818D01*
X120497575Y-102817512D01*
X120355095Y-102905166D01*
X120355092Y-102905168D01*
X120349088Y-102908862D01*
X120344053Y-102913793D01*
X120344050Y-102913795D01*
X120224525Y-103030843D01*
X120219493Y-103035771D01*
X120121235Y-103188238D01*
X120118826Y-103194858D01*
X120118824Y-103194861D01*
X120061606Y-103352066D01*
X120059197Y-103358685D01*
X120036463Y-103538640D01*
X119508000Y-103538640D01*
X119508000Y-101188640D01*
X135486463Y-101188640D01*
X135504163Y-101369160D01*
X135561418Y-101541273D01*
X135565065Y-101547295D01*
X135565066Y-101547297D01*
X135575978Y-101565314D01*
X135655380Y-101696424D01*
X135660269Y-101701487D01*
X135660270Y-101701488D01*
X135735410Y-101779297D01*
X135781382Y-101826902D01*
X135933159Y-101926222D01*
X135939763Y-101928678D01*
X135939765Y-101928679D01*
X136096558Y-101986990D01*
X136096560Y-101986990D01*
X136103168Y-101989448D01*
X136186995Y-102000633D01*
X136275980Y-102012507D01*
X136275984Y-102012507D01*
X136282961Y-102013438D01*
X136289972Y-102012800D01*
X136289976Y-102012800D01*
X136432459Y-101999832D01*
X136463600Y-101996998D01*
X136470302Y-101994820D01*
X136470304Y-101994820D01*
X136629409Y-101943124D01*
X136629412Y-101943123D01*
X136636108Y-101940947D01*
X136791912Y-101848069D01*
X136923266Y-101722982D01*
X137023643Y-101571902D01*
X137088055Y-101402338D01*
X137089035Y-101395366D01*
X137112748Y-101226639D01*
X137112748Y-101226636D01*
X137113299Y-101222717D01*
X137113616Y-101200000D01*
X137093397Y-101019745D01*
X137091080Y-101013091D01*
X137036064Y-100855106D01*
X137036062Y-100855103D01*
X137033745Y-100848448D01*
X136937626Y-100694624D01*
X136923941Y-100680843D01*
X136814778Y-100570915D01*
X136814774Y-100570912D01*
X136809815Y-100565918D01*
X136798697Y-100558862D01*
X136750538Y-100528300D01*
X136656666Y-100468727D01*
X136627463Y-100458328D01*
X136492425Y-100410243D01*
X136492420Y-100410242D01*
X136485790Y-100407881D01*
X136478802Y-100407048D01*
X136478799Y-100407047D01*
X136355698Y-100392368D01*
X136305680Y-100386404D01*
X136298677Y-100387140D01*
X136298676Y-100387140D01*
X136132288Y-100404628D01*
X136132286Y-100404629D01*
X136125288Y-100405364D01*
X135953579Y-100463818D01*
X135947575Y-100467512D01*
X135805095Y-100555166D01*
X135805092Y-100555168D01*
X135799088Y-100558862D01*
X135794053Y-100563793D01*
X135794050Y-100563795D01*
X135674525Y-100680843D01*
X135669493Y-100685771D01*
X135571235Y-100838238D01*
X135568826Y-100844858D01*
X135568824Y-100844861D01*
X135511606Y-101002066D01*
X135509197Y-101008685D01*
X135486463Y-101188640D01*
X119508000Y-101188640D01*
X119508000Y-97350504D01*
X128676500Y-97350504D01*
X128691135Y-97499761D01*
X128692917Y-97505662D01*
X128692917Y-97505664D01*
X128703712Y-97541419D01*
X128749149Y-97691913D01*
X128843380Y-97869137D01*
X128847274Y-97873911D01*
X128847275Y-97873913D01*
X128865655Y-97896449D01*
X128970241Y-98024682D01*
X129124897Y-98152625D01*
X129301459Y-98248092D01*
X129330608Y-98257115D01*
X129487314Y-98305624D01*
X129487317Y-98305625D01*
X129493201Y-98307446D01*
X129499326Y-98308090D01*
X129499327Y-98308090D01*
X129686692Y-98327783D01*
X129686693Y-98327783D01*
X129692820Y-98328427D01*
X129799074Y-98318757D01*
X129886574Y-98310794D01*
X129886577Y-98310793D01*
X129892713Y-98310235D01*
X129898619Y-98308497D01*
X129898623Y-98308496D01*
X130065371Y-98259419D01*
X130085265Y-98253564D01*
X130263142Y-98160572D01*
X130371382Y-98073545D01*
X130437005Y-98046449D01*
X130506859Y-98059132D01*
X130530649Y-98074657D01*
X130620147Y-98148697D01*
X130620157Y-98148704D01*
X130624897Y-98152625D01*
X130801459Y-98248092D01*
X130830608Y-98257115D01*
X130987314Y-98305624D01*
X130987317Y-98305625D01*
X130993201Y-98307446D01*
X130999326Y-98308090D01*
X130999327Y-98308090D01*
X131186692Y-98327783D01*
X131186693Y-98327783D01*
X131192820Y-98328427D01*
X131299074Y-98318757D01*
X131386574Y-98310794D01*
X131386577Y-98310793D01*
X131392713Y-98310235D01*
X131398619Y-98308497D01*
X131398623Y-98308496D01*
X131565371Y-98259419D01*
X131585265Y-98253564D01*
X131763142Y-98160572D01*
X131783018Y-98144592D01*
X131848639Y-98117495D01*
X131918494Y-98130178D01*
X131950986Y-98153613D01*
X131956050Y-98158668D01*
X131961697Y-98164305D01*
X131967927Y-98168145D01*
X131967928Y-98168146D01*
X132105090Y-98252694D01*
X132112262Y-98257115D01*
X132186221Y-98281646D01*
X132273611Y-98310632D01*
X132273613Y-98310632D01*
X132280139Y-98312797D01*
X132286975Y-98313497D01*
X132286978Y-98313498D01*
X132330031Y-98317909D01*
X132384600Y-98323500D01*
X133015400Y-98323500D01*
X133018646Y-98323163D01*
X133018650Y-98323163D01*
X133114308Y-98313238D01*
X133114312Y-98313237D01*
X133121166Y-98312526D01*
X133127702Y-98310345D01*
X133127704Y-98310345D01*
X133259806Y-98266272D01*
X133288946Y-98256550D01*
X133439348Y-98163478D01*
X133564305Y-98038303D01*
X133646486Y-97904981D01*
X133653275Y-97893968D01*
X133653276Y-97893966D01*
X133657115Y-97887738D01*
X133712797Y-97719861D01*
X133723500Y-97615400D01*
X133723500Y-97350504D01*
X140176500Y-97350504D01*
X140191135Y-97499761D01*
X140192917Y-97505662D01*
X140192917Y-97505664D01*
X140203712Y-97541419D01*
X140249149Y-97691913D01*
X140343380Y-97869137D01*
X140347274Y-97873911D01*
X140347275Y-97873913D01*
X140365655Y-97896449D01*
X140470241Y-98024682D01*
X140624897Y-98152625D01*
X140801459Y-98248092D01*
X140830608Y-98257115D01*
X140987314Y-98305624D01*
X140987317Y-98305625D01*
X140993201Y-98307446D01*
X140999326Y-98308090D01*
X140999327Y-98308090D01*
X141186692Y-98327783D01*
X141186693Y-98327783D01*
X141192820Y-98328427D01*
X141299074Y-98318757D01*
X141386574Y-98310794D01*
X141386577Y-98310793D01*
X141392713Y-98310235D01*
X141398619Y-98308497D01*
X141398623Y-98308496D01*
X141565371Y-98259419D01*
X141585265Y-98253564D01*
X141763142Y-98160572D01*
X141871382Y-98073545D01*
X141937005Y-98046449D01*
X142006859Y-98059132D01*
X142030649Y-98074657D01*
X142120147Y-98148697D01*
X142120157Y-98148704D01*
X142124897Y-98152625D01*
X142301459Y-98248092D01*
X142330608Y-98257115D01*
X142487314Y-98305624D01*
X142487317Y-98305625D01*
X142493201Y-98307446D01*
X142499326Y-98308090D01*
X142499327Y-98308090D01*
X142686692Y-98327783D01*
X142686693Y-98327783D01*
X142692820Y-98328427D01*
X142799074Y-98318757D01*
X142886574Y-98310794D01*
X142886577Y-98310793D01*
X142892713Y-98310235D01*
X142898619Y-98308497D01*
X142898623Y-98308496D01*
X143065371Y-98259419D01*
X143085265Y-98253564D01*
X143263142Y-98160572D01*
X143283018Y-98144592D01*
X143348639Y-98117495D01*
X143418494Y-98130178D01*
X143450986Y-98153613D01*
X143456050Y-98158668D01*
X143461697Y-98164305D01*
X143467927Y-98168145D01*
X143467928Y-98168146D01*
X143605090Y-98252694D01*
X143612262Y-98257115D01*
X143686221Y-98281646D01*
X143773611Y-98310632D01*
X143773613Y-98310632D01*
X143780139Y-98312797D01*
X143786975Y-98313497D01*
X143786978Y-98313498D01*
X143830031Y-98317909D01*
X143884600Y-98323500D01*
X144515400Y-98323500D01*
X144518646Y-98323163D01*
X144518650Y-98323163D01*
X144614308Y-98313238D01*
X144614312Y-98313237D01*
X144621166Y-98312526D01*
X144627702Y-98310345D01*
X144627704Y-98310345D01*
X144692761Y-98288640D01*
X145986463Y-98288640D01*
X146004163Y-98469160D01*
X146061418Y-98641273D01*
X146065065Y-98647295D01*
X146065066Y-98647297D01*
X146075978Y-98665314D01*
X146155380Y-98796424D01*
X146281382Y-98926902D01*
X146433159Y-99026222D01*
X146439763Y-99028678D01*
X146439765Y-99028679D01*
X146596558Y-99086990D01*
X146596560Y-99086990D01*
X146603168Y-99089448D01*
X146686995Y-99100633D01*
X146775980Y-99112507D01*
X146775984Y-99112507D01*
X146782961Y-99113438D01*
X146789972Y-99112800D01*
X146789976Y-99112800D01*
X146932459Y-99099832D01*
X146963600Y-99096998D01*
X146970302Y-99094820D01*
X146970304Y-99094820D01*
X147129409Y-99043124D01*
X147129412Y-99043123D01*
X147136108Y-99040947D01*
X147291912Y-98948069D01*
X147423266Y-98822982D01*
X147523643Y-98671902D01*
X147588055Y-98502338D01*
X147589035Y-98495366D01*
X147612748Y-98326639D01*
X147612748Y-98326636D01*
X147613299Y-98322717D01*
X147613473Y-98310235D01*
X147613561Y-98303962D01*
X147613561Y-98303957D01*
X147613616Y-98300000D01*
X147593397Y-98119745D01*
X147591080Y-98113091D01*
X147536064Y-97955106D01*
X147536062Y-97955103D01*
X147533745Y-97948448D01*
X147487171Y-97873913D01*
X147441359Y-97800598D01*
X147437626Y-97794624D01*
X147423941Y-97780843D01*
X147314778Y-97670915D01*
X147314774Y-97670912D01*
X147309815Y-97665918D01*
X147298697Y-97658862D01*
X147225142Y-97612183D01*
X147156666Y-97568727D01*
X147099792Y-97548475D01*
X146992425Y-97510243D01*
X146992420Y-97510242D01*
X146985790Y-97507881D01*
X146978802Y-97507048D01*
X146978799Y-97507047D01*
X146855698Y-97492368D01*
X146805680Y-97486404D01*
X146798677Y-97487140D01*
X146798676Y-97487140D01*
X146632288Y-97504628D01*
X146632286Y-97504629D01*
X146625288Y-97505364D01*
X146453579Y-97563818D01*
X146447575Y-97567512D01*
X146305095Y-97655166D01*
X146305092Y-97655168D01*
X146299088Y-97658862D01*
X146294053Y-97663793D01*
X146294050Y-97663795D01*
X146174525Y-97780843D01*
X146169493Y-97785771D01*
X146071235Y-97938238D01*
X146068826Y-97944858D01*
X146068824Y-97944861D01*
X146031849Y-98046449D01*
X146009197Y-98108685D01*
X145986463Y-98288640D01*
X144692761Y-98288640D01*
X144759806Y-98266272D01*
X144788946Y-98256550D01*
X144939348Y-98163478D01*
X145064305Y-98038303D01*
X145146486Y-97904981D01*
X145153275Y-97893968D01*
X145153276Y-97893966D01*
X145157115Y-97887738D01*
X145212797Y-97719861D01*
X145223500Y-97615400D01*
X145223500Y-96284600D01*
X145220633Y-96256964D01*
X145213238Y-96185692D01*
X145213237Y-96185688D01*
X145212526Y-96178834D01*
X145156550Y-96011054D01*
X145063478Y-95860652D01*
X145043660Y-95840868D01*
X144943483Y-95740866D01*
X144938303Y-95735695D01*
X144932072Y-95731854D01*
X144793968Y-95646725D01*
X144793966Y-95646724D01*
X144787738Y-95642885D01*
X144707995Y-95616436D01*
X144626389Y-95589368D01*
X144626387Y-95589368D01*
X144619861Y-95587203D01*
X144613025Y-95586503D01*
X144613022Y-95586502D01*
X144569969Y-95582091D01*
X144515400Y-95576500D01*
X143884600Y-95576500D01*
X143881354Y-95576837D01*
X143881350Y-95576837D01*
X143785692Y-95586762D01*
X143785688Y-95586763D01*
X143778834Y-95587474D01*
X143772298Y-95589655D01*
X143772296Y-95589655D01*
X143763607Y-95592554D01*
X143611054Y-95643450D01*
X143460652Y-95736522D01*
X143455478Y-95741705D01*
X143455473Y-95741709D01*
X143451862Y-95745326D01*
X143389579Y-95779405D01*
X143318759Y-95774400D01*
X143282375Y-95753391D01*
X143279852Y-95751304D01*
X143279851Y-95751303D01*
X143275103Y-95747375D01*
X143098541Y-95651908D01*
X142987241Y-95617455D01*
X142912686Y-95594376D01*
X142912683Y-95594375D01*
X142906799Y-95592554D01*
X142900674Y-95591910D01*
X142900673Y-95591910D01*
X142713308Y-95572217D01*
X142713307Y-95572217D01*
X142707180Y-95571573D01*
X142624162Y-95579128D01*
X142513426Y-95589206D01*
X142513423Y-95589207D01*
X142507287Y-95589765D01*
X142501381Y-95591503D01*
X142501377Y-95591504D01*
X142413204Y-95617455D01*
X142314735Y-95646436D01*
X142136858Y-95739428D01*
X142132058Y-95743288D01*
X142132057Y-95743288D01*
X142028618Y-95826455D01*
X141962995Y-95853551D01*
X141893141Y-95840868D01*
X141869351Y-95825343D01*
X141779853Y-95751303D01*
X141779843Y-95751296D01*
X141775103Y-95747375D01*
X141598541Y-95651908D01*
X141487241Y-95617455D01*
X141412686Y-95594376D01*
X141412683Y-95594375D01*
X141406799Y-95592554D01*
X141400674Y-95591910D01*
X141400673Y-95591910D01*
X141213308Y-95572217D01*
X141213307Y-95572217D01*
X141207180Y-95571573D01*
X141124162Y-95579128D01*
X141013426Y-95589206D01*
X141013423Y-95589207D01*
X141007287Y-95589765D01*
X141001381Y-95591503D01*
X141001377Y-95591504D01*
X140913204Y-95617455D01*
X140814735Y-95646436D01*
X140636858Y-95739428D01*
X140480430Y-95865199D01*
X140476472Y-95869916D01*
X140476470Y-95869918D01*
X140392403Y-95970106D01*
X140351410Y-96018959D01*
X140348446Y-96024351D01*
X140348443Y-96024355D01*
X140267112Y-96172296D01*
X140254713Y-96194850D01*
X140194022Y-96386173D01*
X140193336Y-96392290D01*
X140193335Y-96392294D01*
X140192244Y-96402022D01*
X140176500Y-96542385D01*
X140176500Y-97350504D01*
X133723500Y-97350504D01*
X133723500Y-96284600D01*
X133720633Y-96256964D01*
X133713238Y-96185692D01*
X133713237Y-96185688D01*
X133712526Y-96178834D01*
X133656550Y-96011054D01*
X133563478Y-95860652D01*
X133543660Y-95840868D01*
X133443483Y-95740866D01*
X133438303Y-95735695D01*
X133432072Y-95731854D01*
X133293968Y-95646725D01*
X133293966Y-95646724D01*
X133287738Y-95642885D01*
X133207995Y-95616436D01*
X133126389Y-95589368D01*
X133126387Y-95589368D01*
X133119861Y-95587203D01*
X133113025Y-95586503D01*
X133113022Y-95586502D01*
X133069969Y-95582091D01*
X133015400Y-95576500D01*
X132384600Y-95576500D01*
X132381354Y-95576837D01*
X132381350Y-95576837D01*
X132285692Y-95586762D01*
X132285688Y-95586763D01*
X132278834Y-95587474D01*
X132272298Y-95589655D01*
X132272296Y-95589655D01*
X132263607Y-95592554D01*
X132111054Y-95643450D01*
X131960652Y-95736522D01*
X131955478Y-95741705D01*
X131955473Y-95741709D01*
X131951862Y-95745326D01*
X131889579Y-95779405D01*
X131818759Y-95774400D01*
X131782375Y-95753391D01*
X131779852Y-95751304D01*
X131779851Y-95751303D01*
X131775103Y-95747375D01*
X131598541Y-95651908D01*
X131487241Y-95617455D01*
X131412686Y-95594376D01*
X131412683Y-95594375D01*
X131406799Y-95592554D01*
X131400674Y-95591910D01*
X131400673Y-95591910D01*
X131213308Y-95572217D01*
X131213307Y-95572217D01*
X131207180Y-95571573D01*
X131124162Y-95579128D01*
X131013426Y-95589206D01*
X131013423Y-95589207D01*
X131007287Y-95589765D01*
X131001381Y-95591503D01*
X131001377Y-95591504D01*
X130913204Y-95617455D01*
X130814735Y-95646436D01*
X130636858Y-95739428D01*
X130632058Y-95743288D01*
X130632057Y-95743288D01*
X130528618Y-95826455D01*
X130462995Y-95853551D01*
X130393141Y-95840868D01*
X130369351Y-95825343D01*
X130279853Y-95751303D01*
X130279843Y-95751296D01*
X130275103Y-95747375D01*
X130098541Y-95651908D01*
X129987241Y-95617455D01*
X129912686Y-95594376D01*
X129912683Y-95594375D01*
X129906799Y-95592554D01*
X129900674Y-95591910D01*
X129900673Y-95591910D01*
X129713308Y-95572217D01*
X129713307Y-95572217D01*
X129707180Y-95571573D01*
X129624162Y-95579128D01*
X129513426Y-95589206D01*
X129513423Y-95589207D01*
X129507287Y-95589765D01*
X129501381Y-95591503D01*
X129501377Y-95591504D01*
X129413204Y-95617455D01*
X129314735Y-95646436D01*
X129136858Y-95739428D01*
X128980430Y-95865199D01*
X128976472Y-95869916D01*
X128976470Y-95869918D01*
X128892403Y-95970106D01*
X128851410Y-96018959D01*
X128848446Y-96024351D01*
X128848443Y-96024355D01*
X128767112Y-96172296D01*
X128754713Y-96194850D01*
X128694022Y-96386173D01*
X128693336Y-96392290D01*
X128693335Y-96392294D01*
X128692244Y-96402022D01*
X128676500Y-96542385D01*
X128676500Y-97350504D01*
X119508000Y-97350504D01*
X119508000Y-93320472D01*
X119512771Y-93286129D01*
X119543820Y-93176529D01*
X119551518Y-93156222D01*
X119618307Y-93017491D01*
X119629379Y-92998810D01*
X119719004Y-92873619D01*
X119733126Y-92857111D01*
X119842915Y-92749184D01*
X119859657Y-92735350D01*
X119986375Y-92647872D01*
X120005239Y-92637125D01*
X120145086Y-92572720D01*
X120165517Y-92565371D01*
X120314352Y-92525946D01*
X120335749Y-92522214D01*
X120459381Y-92511516D01*
X120475879Y-92512079D01*
X120475884Y-92511695D01*
X120484860Y-92511805D01*
X120493731Y-92513186D01*
X120502633Y-92512022D01*
X120502636Y-92512022D01*
X120525252Y-92509064D01*
X120541590Y-92508000D01*
X150588000Y-92508000D01*
X150656121Y-92528002D01*
G37*
G04 #@! TD.AperFunction*
M02*
