%FSLAX45Y45*%
G04 Gerber Fmt 4.5, Leading zero omitted, Abs format (unit mm)*
G04 Created by KiCad (PCBNEW (6.0.0)) date 2022-05-01 20:50:56*
%MOMM*%
%LPD*%
G01*
G04 APERTURE LIST*
%TA.AperFunction,Profile*%
%ADD10C,0.050000*%
%TD*%
%ADD11C,0.200000*%
%ADD12C,0.030000*%
%ADD13C,0.050000*%
%ADD14C,0.055000*%
%ADD15C,0.073000*%
%ADD16C,0.100000*%
%ADD17C,0.110000*%
G04 APERTURE END LIST*
D10*
X12020000Y-11520000D02*
G75*
G03*
X11921000Y-11376000I-147450J4659D01*
G01*
X12000711Y-12700000D02*
X15750000Y-12700000D01*
X11921137Y-12254282D02*
G75*
G03*
X12020000Y-12120000I-41772J134288D01*
G01*
X12020000Y-11520000D02*
X12020000Y-12120000D01*
X15750000Y-12700000D02*
G75*
G03*
X15900000Y-12576066I0J152741D01*
G01*
X15900000Y-9350000D02*
X15900000Y-12576066D01*
X11900000Y-12599289D02*
G75*
G03*
X12000711Y-12700000I101429J718D01*
G01*
X12050000Y-9200000D02*
X15776066Y-9200000D01*
X11900000Y-12599289D02*
X11900137Y-12289282D01*
X11900000Y-9323934D02*
X11900000Y-11341000D01*
X11900000Y-11341000D02*
G75*
G03*
X11921000Y-11376000I41201J921D01*
G01*
X11921137Y-12254282D02*
G75*
G03*
X11900137Y-12289282I20199J-35919D01*
G01*
X12050000Y-9200000D02*
G75*
G03*
X11900000Y-9323934I0J-152741D01*
G01*
X15900000Y-9350000D02*
G75*
G03*
X15776066Y-9200000I-152741J0D01*
G01*
D11*
D12*
X12070000Y-10340000D02*
X12100000Y-10370000D01*
X12100000Y-10340000D02*
X12070000Y-10370000D01*
X12185000Y-10535000D02*
X12215000Y-10565000D01*
X12215000Y-10535000D02*
X12185000Y-10565000D01*
X12256250Y-10423750D02*
X12286250Y-10453750D01*
X12286250Y-10423750D02*
X12256250Y-10453750D01*
X12325000Y-10985000D02*
X12355000Y-11015000D01*
X12355000Y-10985000D02*
X12325000Y-11015000D01*
X12435000Y-9695000D02*
X12465000Y-9725000D01*
X12465000Y-9695000D02*
X12435000Y-9725000D01*
X12605000Y-10825000D02*
X12635000Y-10855000D01*
X12635000Y-10825000D02*
X12605000Y-10855000D01*
X12625000Y-10647500D02*
X12655000Y-10677500D01*
X12655000Y-10647500D02*
X12625000Y-10677500D01*
X12700000Y-11490000D02*
X12730000Y-11520000D01*
X12730000Y-11490000D02*
X12700000Y-11520000D01*
X12745000Y-10395000D02*
X12775000Y-10425000D01*
X12775000Y-10395000D02*
X12745000Y-10425000D01*
X12756500Y-10876500D02*
X12786500Y-10906500D01*
X12786500Y-10876500D02*
X12756500Y-10906500D01*
X12825000Y-11315000D02*
X12855000Y-11345000D01*
X12855000Y-11315000D02*
X12825000Y-11345000D01*
X12865000Y-10585000D02*
X12895000Y-10615000D01*
X12895000Y-10585000D02*
X12865000Y-10615000D01*
X13145000Y-10715000D02*
X13175000Y-10745000D01*
X13175000Y-10715000D02*
X13145000Y-10745000D01*
X13155000Y-11045000D02*
X13185000Y-11075000D01*
X13185000Y-11045000D02*
X13155000Y-11075000D01*
X13287000Y-10497000D02*
X13317000Y-10527000D01*
X13317000Y-10497000D02*
X13287000Y-10527000D01*
X13305000Y-10815000D02*
X13335000Y-10845000D01*
X13335000Y-10815000D02*
X13305000Y-10845000D01*
X13345000Y-11115000D02*
X13375000Y-11145000D01*
X13375000Y-11115000D02*
X13345000Y-11145000D01*
X13383000Y-10503000D02*
X13413000Y-10533000D01*
X13413000Y-10503000D02*
X13383000Y-10533000D01*
X13525000Y-11595000D02*
X13555000Y-11625000D01*
X13555000Y-11595000D02*
X13525000Y-11625000D01*
X13615000Y-10105000D02*
X13645000Y-10135000D01*
X13645000Y-10105000D02*
X13615000Y-10135000D01*
X13635000Y-11685000D02*
X13665000Y-11715000D01*
X13665000Y-11685000D02*
X13635000Y-11715000D01*
X13701727Y-10885813D02*
X13731727Y-10915813D01*
X13731727Y-10885813D02*
X13701727Y-10915813D01*
X13704750Y-10644750D02*
X13734750Y-10674750D01*
X13734750Y-10644750D02*
X13704750Y-10674750D01*
X13723040Y-10547450D02*
X13753040Y-10577450D01*
X13753040Y-10547450D02*
X13723040Y-10577450D01*
X13765000Y-9615000D02*
X13795000Y-9645000D01*
X13795000Y-9615000D02*
X13765000Y-9645000D01*
X13795000Y-11855000D02*
X13825000Y-11885000D01*
X13825000Y-11855000D02*
X13795000Y-11885000D01*
X13825000Y-10495000D02*
X13855000Y-10525000D01*
X13855000Y-10495000D02*
X13825000Y-10525000D01*
X13879000Y-9511000D02*
X13909000Y-9541000D01*
X13909000Y-9511000D02*
X13879000Y-9541000D01*
X13934220Y-11759955D02*
X13964220Y-11789955D01*
X13964220Y-11759955D02*
X13934220Y-11789955D01*
X14025000Y-10445000D02*
X14055000Y-10475000D01*
X14055000Y-10445000D02*
X14025000Y-10475000D01*
X14085000Y-11285000D02*
X14115000Y-11315000D01*
X14115000Y-11285000D02*
X14085000Y-11315000D01*
X14115000Y-11985000D02*
X14145000Y-12015000D01*
X14145000Y-11985000D02*
X14115000Y-12015000D01*
X14125000Y-10435000D02*
X14155000Y-10465000D01*
X14155000Y-10435000D02*
X14125000Y-10465000D01*
X14175000Y-12265000D02*
X14205000Y-12295000D01*
X14205000Y-12265000D02*
X14175000Y-12295000D01*
X14185000Y-11315000D02*
X14215000Y-11345000D01*
X14215000Y-11315000D02*
X14185000Y-11345000D01*
X14215000Y-10595000D02*
X14245000Y-10625000D01*
X14245000Y-10595000D02*
X14215000Y-10625000D01*
X14525250Y-10894750D02*
X14555250Y-10924750D01*
X14555250Y-10894750D02*
X14525250Y-10924750D01*
X14615000Y-11735000D02*
X14645000Y-11765000D01*
X14645000Y-11735000D02*
X14615000Y-11765000D01*
X14625000Y-11575000D02*
X14655000Y-11605000D01*
X14655000Y-11575000D02*
X14625000Y-11605000D01*
X14635000Y-12015000D02*
X14665000Y-12045000D01*
X14665000Y-12015000D02*
X14635000Y-12045000D01*
X14665000Y-9815000D02*
X14695000Y-9845000D01*
X14695000Y-9815000D02*
X14665000Y-9845000D01*
X14715000Y-9385000D02*
X14745000Y-9415000D01*
X14745000Y-9385000D02*
X14715000Y-9415000D01*
X14720000Y-12050000D02*
X14750000Y-12080000D01*
X14750000Y-12050000D02*
X14720000Y-12080000D01*
X14995000Y-10795000D02*
X15025000Y-10825000D01*
X15025000Y-10795000D02*
X14995000Y-10825000D01*
D13*
X12193500Y-11470000D02*
G75*
G03*
X12193500Y-11470000I-25000J0D01*
G01*
D11*
X12201000Y-11455000D02*
X12136000Y-11455000D01*
X12201000Y-11485000D02*
X12136000Y-11485000D01*
X12136000Y-11455000D02*
G75*
G03*
X12136000Y-11485000I0J-15000D01*
G01*
X12201000Y-11485000D02*
G75*
G03*
X12201000Y-11455000I0J15000D01*
G01*
D13*
X12193500Y-12170000D02*
G75*
G03*
X12193500Y-12170000I-25000J0D01*
G01*
D11*
X12201000Y-12155000D02*
X12136000Y-12155000D01*
X12201000Y-12185000D02*
X12136000Y-12185000D01*
X12136000Y-12155000D02*
G75*
G03*
X12136000Y-12185000I0J-15000D01*
G01*
X12201000Y-12185000D02*
G75*
G03*
X12201000Y-12155000I0J15000D01*
G01*
D14*
X12438500Y-11542500D02*
X12438500Y-11597500D01*
X12411000Y-11570000D02*
X12466000Y-11570000D01*
D11*
X12421000Y-11555000D02*
X12421000Y-11585000D01*
X12456000Y-11555000D02*
X12456000Y-11585000D01*
X12421000Y-11585000D02*
G75*
G03*
X12456000Y-11585000I17500J0D01*
G01*
X12456000Y-11555000D02*
G75*
G03*
X12421000Y-11555000I-17500J0D01*
G01*
D14*
X12438500Y-12042500D02*
X12438500Y-12097500D01*
X12411000Y-12070000D02*
X12466000Y-12070000D01*
D11*
X12421000Y-12055000D02*
X12421000Y-12085000D01*
X12456000Y-12055000D02*
X12456000Y-12085000D01*
X12421000Y-12085000D02*
G75*
G03*
X12456000Y-12085000I17500J0D01*
G01*
X12456000Y-12055000D02*
G75*
G03*
X12421000Y-12055000I-17500J0D01*
G01*
D15*
X12995810Y-9720810D02*
X12995810Y-9669190D01*
X12944190Y-9669190D01*
X12944190Y-9720810D01*
X12995810Y-9720810D01*
X13145810Y-9720810D02*
X13145810Y-9669190D01*
X13094190Y-9669190D01*
X13094190Y-9720810D01*
X13145810Y-9720810D01*
X13295810Y-9720810D02*
X13295810Y-9669190D01*
X13244190Y-9669190D01*
X13244190Y-9720810D01*
X13295810Y-9720810D01*
X13675810Y-12235810D02*
X13675810Y-12184190D01*
X13624190Y-12184190D01*
X13624190Y-12235810D01*
X13675810Y-12235810D01*
X13825810Y-12235810D02*
X13825810Y-12184190D01*
X13774190Y-12184190D01*
X13774190Y-12235810D01*
X13825810Y-12235810D01*
X13975810Y-12235810D02*
X13975810Y-12184190D01*
X13924190Y-12184190D01*
X13924190Y-12235810D01*
X13975810Y-12235810D01*
X14145810Y-9720810D02*
X14145810Y-9669190D01*
X14094190Y-9669190D01*
X14094190Y-9720810D01*
X14145810Y-9720810D01*
X14295810Y-9720810D02*
X14295810Y-9669190D01*
X14244190Y-9669190D01*
X14244190Y-9720810D01*
X14295810Y-9720810D01*
X14445810Y-9720810D02*
X14445810Y-9669190D01*
X14394190Y-9669190D01*
X14394190Y-9720810D01*
X14445810Y-9720810D01*
D16*
X12222500Y-12520000D02*
X12272500Y-12470000D01*
X12222500Y-12420000D01*
X12172500Y-12470000D01*
X12222500Y-12520000D01*
X12476500Y-12520000D02*
X12526500Y-12470000D01*
X12476500Y-12420000D01*
X12426500Y-12470000D01*
X12476500Y-12520000D01*
X12730500Y-12520000D02*
X12780500Y-12470000D01*
X12730500Y-12420000D01*
X12680500Y-12470000D01*
X12730500Y-12520000D01*
X12984500Y-12520000D02*
X13034500Y-12470000D01*
X12984500Y-12420000D01*
X12934500Y-12470000D01*
X12984500Y-12520000D01*
X13238500Y-12520000D02*
X13288500Y-12470000D01*
X13238500Y-12420000D01*
X13188500Y-12470000D01*
X13238500Y-12520000D01*
D17*
X15149750Y-9294000D02*
X15259750Y-9404000D01*
X15259750Y-9294000D02*
X15149750Y-9404000D01*
X15259750Y-9349000D02*
G75*
G03*
X15259750Y-9349000I-55000J0D01*
G01*
X15149750Y-9548000D02*
X15259750Y-9658000D01*
X15259750Y-9548000D02*
X15149750Y-9658000D01*
X15259750Y-9603000D02*
G75*
G03*
X15259750Y-9603000I-55000J0D01*
G01*
X15149750Y-9802000D02*
X15259750Y-9912000D01*
X15259750Y-9802000D02*
X15149750Y-9912000D01*
X15259750Y-9857000D02*
G75*
G03*
X15259750Y-9857000I-55000J0D01*
G01*
X15149750Y-10056000D02*
X15259750Y-10166000D01*
X15259750Y-10056000D02*
X15149750Y-10166000D01*
X15259750Y-10111000D02*
G75*
G03*
X15259750Y-10111000I-55000J0D01*
G01*
X15149750Y-10514000D02*
X15259750Y-10624000D01*
X15259750Y-10514000D02*
X15149750Y-10624000D01*
X15259750Y-10569000D02*
G75*
G03*
X15259750Y-10569000I-55000J0D01*
G01*
X15149750Y-10768000D02*
X15259750Y-10878000D01*
X15259750Y-10768000D02*
X15149750Y-10878000D01*
X15259750Y-10823000D02*
G75*
G03*
X15259750Y-10823000I-55000J0D01*
G01*
X15149750Y-11022000D02*
X15259750Y-11132000D01*
X15259750Y-11022000D02*
X15149750Y-11132000D01*
X15259750Y-11077000D02*
G75*
G03*
X15259750Y-11077000I-55000J0D01*
G01*
X15149750Y-11276000D02*
X15259750Y-11386000D01*
X15259750Y-11276000D02*
X15149750Y-11386000D01*
X15259750Y-11331000D02*
G75*
G03*
X15259750Y-11331000I-55000J0D01*
G01*
X15149750Y-11734000D02*
X15259750Y-11844000D01*
X15259750Y-11734000D02*
X15149750Y-11844000D01*
X15259750Y-11789000D02*
G75*
G03*
X15259750Y-11789000I-55000J0D01*
G01*
X15149750Y-11988000D02*
X15259750Y-12098000D01*
X15259750Y-11988000D02*
X15149750Y-12098000D01*
X15259750Y-12043000D02*
G75*
G03*
X15259750Y-12043000I-55000J0D01*
G01*
X15149750Y-12242000D02*
X15259750Y-12352000D01*
X15259750Y-12242000D02*
X15149750Y-12352000D01*
X15259750Y-12297000D02*
G75*
G03*
X15259750Y-12297000I-55000J0D01*
G01*
X15149750Y-12496000D02*
X15259750Y-12606000D01*
X15259750Y-12496000D02*
X15149750Y-12606000D01*
X15259750Y-12551000D02*
G75*
G03*
X15259750Y-12551000I-55000J0D01*
G01*
X15403750Y-9294000D02*
X15513750Y-9404000D01*
X15513750Y-9294000D02*
X15403750Y-9404000D01*
X15513750Y-9349000D02*
G75*
G03*
X15513750Y-9349000I-55000J0D01*
G01*
X15403750Y-9548000D02*
X15513750Y-9658000D01*
X15513750Y-9548000D02*
X15403750Y-9658000D01*
X15513750Y-9603000D02*
G75*
G03*
X15513750Y-9603000I-55000J0D01*
G01*
X15403750Y-9802000D02*
X15513750Y-9912000D01*
X15513750Y-9802000D02*
X15403750Y-9912000D01*
X15513750Y-9857000D02*
G75*
G03*
X15513750Y-9857000I-55000J0D01*
G01*
X15403750Y-10056000D02*
X15513750Y-10166000D01*
X15513750Y-10056000D02*
X15403750Y-10166000D01*
X15513750Y-10111000D02*
G75*
G03*
X15513750Y-10111000I-55000J0D01*
G01*
X15403750Y-10514000D02*
X15513750Y-10624000D01*
X15513750Y-10514000D02*
X15403750Y-10624000D01*
X15513750Y-10569000D02*
G75*
G03*
X15513750Y-10569000I-55000J0D01*
G01*
X15403750Y-10768000D02*
X15513750Y-10878000D01*
X15513750Y-10768000D02*
X15403750Y-10878000D01*
X15513750Y-10823000D02*
G75*
G03*
X15513750Y-10823000I-55000J0D01*
G01*
X15403750Y-11022000D02*
X15513750Y-11132000D01*
X15513750Y-11022000D02*
X15403750Y-11132000D01*
X15513750Y-11077000D02*
G75*
G03*
X15513750Y-11077000I-55000J0D01*
G01*
X15403750Y-11276000D02*
X15513750Y-11386000D01*
X15513750Y-11276000D02*
X15403750Y-11386000D01*
X15513750Y-11331000D02*
G75*
G03*
X15513750Y-11331000I-55000J0D01*
G01*
X15403750Y-11734000D02*
X15513750Y-11844000D01*
X15513750Y-11734000D02*
X15403750Y-11844000D01*
X15513750Y-11789000D02*
G75*
G03*
X15513750Y-11789000I-55000J0D01*
G01*
X15403750Y-11988000D02*
X15513750Y-12098000D01*
X15513750Y-11988000D02*
X15403750Y-12098000D01*
X15513750Y-12043000D02*
G75*
G03*
X15513750Y-12043000I-55000J0D01*
G01*
X15403750Y-12242000D02*
X15513750Y-12352000D01*
X15513750Y-12242000D02*
X15403750Y-12352000D01*
X15513750Y-12297000D02*
G75*
G03*
X15513750Y-12297000I-55000J0D01*
G01*
X15403750Y-12496000D02*
X15513750Y-12606000D01*
X15513750Y-12496000D02*
X15403750Y-12606000D01*
X15513750Y-12551000D02*
G75*
G03*
X15513750Y-12551000I-55000J0D01*
G01*
X15657750Y-9294000D02*
X15767750Y-9404000D01*
X15767750Y-9294000D02*
X15657750Y-9404000D01*
X15767750Y-9349000D02*
G75*
G03*
X15767750Y-9349000I-55000J0D01*
G01*
X15657750Y-9548000D02*
X15767750Y-9658000D01*
X15767750Y-9548000D02*
X15657750Y-9658000D01*
X15767750Y-9603000D02*
G75*
G03*
X15767750Y-9603000I-55000J0D01*
G01*
X15657750Y-9802000D02*
X15767750Y-9912000D01*
X15767750Y-9802000D02*
X15657750Y-9912000D01*
X15767750Y-9857000D02*
G75*
G03*
X15767750Y-9857000I-55000J0D01*
G01*
X15657750Y-10056000D02*
X15767750Y-10166000D01*
X15767750Y-10056000D02*
X15657750Y-10166000D01*
X15767750Y-10111000D02*
G75*
G03*
X15767750Y-10111000I-55000J0D01*
G01*
X15657750Y-10514000D02*
X15767750Y-10624000D01*
X15767750Y-10514000D02*
X15657750Y-10624000D01*
X15767750Y-10569000D02*
G75*
G03*
X15767750Y-10569000I-55000J0D01*
G01*
X15657750Y-10768000D02*
X15767750Y-10878000D01*
X15767750Y-10768000D02*
X15657750Y-10878000D01*
X15767750Y-10823000D02*
G75*
G03*
X15767750Y-10823000I-55000J0D01*
G01*
X15657750Y-11022000D02*
X15767750Y-11132000D01*
X15767750Y-11022000D02*
X15657750Y-11132000D01*
X15767750Y-11077000D02*
G75*
G03*
X15767750Y-11077000I-55000J0D01*
G01*
X15657750Y-11276000D02*
X15767750Y-11386000D01*
X15767750Y-11276000D02*
X15657750Y-11386000D01*
X15767750Y-11331000D02*
G75*
G03*
X15767750Y-11331000I-55000J0D01*
G01*
X15657750Y-11734000D02*
X15767750Y-11844000D01*
X15767750Y-11734000D02*
X15657750Y-11844000D01*
X15767750Y-11789000D02*
G75*
G03*
X15767750Y-11789000I-55000J0D01*
G01*
X15657750Y-11988000D02*
X15767750Y-12098000D01*
X15767750Y-11988000D02*
X15657750Y-12098000D01*
X15767750Y-12043000D02*
G75*
G03*
X15767750Y-12043000I-55000J0D01*
G01*
X15657750Y-12242000D02*
X15767750Y-12352000D01*
X15767750Y-12242000D02*
X15657750Y-12352000D01*
X15767750Y-12297000D02*
G75*
G03*
X15767750Y-12297000I-55000J0D01*
G01*
X15657750Y-12496000D02*
X15767750Y-12606000D01*
X15767750Y-12496000D02*
X15657750Y-12606000D01*
X15767750Y-12551000D02*
G75*
G03*
X15767750Y-12551000I-55000J0D01*
G01*
D11*
X12155119Y-13012976D02*
X12155119Y-12812976D01*
X12202738Y-12812976D01*
X12231309Y-12822500D01*
X12250357Y-12841548D01*
X12259881Y-12860595D01*
X12269405Y-12898690D01*
X12269405Y-12927262D01*
X12259881Y-12965357D01*
X12250357Y-12984405D01*
X12231309Y-13003452D01*
X12202738Y-13012976D01*
X12155119Y-13012976D01*
X12355119Y-13012976D02*
X12355119Y-12879643D01*
X12355119Y-12917738D02*
X12364643Y-12898690D01*
X12374167Y-12889167D01*
X12393214Y-12879643D01*
X12412262Y-12879643D01*
X12478928Y-13012976D02*
X12478928Y-12879643D01*
X12478928Y-12812976D02*
X12469405Y-12822500D01*
X12478928Y-12832024D01*
X12488452Y-12822500D01*
X12478928Y-12812976D01*
X12478928Y-12832024D01*
X12602738Y-13012976D02*
X12583690Y-13003452D01*
X12574167Y-12984405D01*
X12574167Y-12812976D01*
X12707500Y-13012976D02*
X12688452Y-13003452D01*
X12678928Y-12984405D01*
X12678928Y-12812976D01*
X12936071Y-13012976D02*
X12936071Y-12812976D01*
X13002738Y-12955833D01*
X13069405Y-12812976D01*
X13069405Y-13012976D01*
X13250357Y-13012976D02*
X13250357Y-12908214D01*
X13240833Y-12889167D01*
X13221786Y-12879643D01*
X13183690Y-12879643D01*
X13164643Y-12889167D01*
X13250357Y-13003452D02*
X13231309Y-13012976D01*
X13183690Y-13012976D01*
X13164643Y-13003452D01*
X13155119Y-12984405D01*
X13155119Y-12965357D01*
X13164643Y-12946309D01*
X13183690Y-12936786D01*
X13231309Y-12936786D01*
X13250357Y-12927262D01*
X13345595Y-12879643D02*
X13345595Y-13079643D01*
X13345595Y-12889167D02*
X13364643Y-12879643D01*
X13402738Y-12879643D01*
X13421786Y-12889167D01*
X13431309Y-12898690D01*
X13440833Y-12917738D01*
X13440833Y-12974881D01*
X13431309Y-12993928D01*
X13421786Y-13003452D01*
X13402738Y-13012976D01*
X13364643Y-13012976D01*
X13345595Y-13003452D01*
X13526548Y-12993928D02*
X13536071Y-13003452D01*
X13526548Y-13012976D01*
X13517024Y-13003452D01*
X13526548Y-12993928D01*
X13526548Y-13012976D01*
X13526548Y-12889167D02*
X13536071Y-12898690D01*
X13526548Y-12908214D01*
X13517024Y-12898690D01*
X13526548Y-12889167D01*
X13526548Y-12908214D01*
D12*
X11867500Y-13327500D02*
X11897500Y-13357500D01*
X11897500Y-13327500D02*
X11867500Y-13357500D01*
D11*
X12193214Y-13232976D02*
X12212262Y-13232976D01*
X12231309Y-13242500D01*
X12240833Y-13252024D01*
X12250357Y-13271071D01*
X12259881Y-13309167D01*
X12259881Y-13356786D01*
X12250357Y-13394881D01*
X12240833Y-13413928D01*
X12231309Y-13423452D01*
X12212262Y-13432976D01*
X12193214Y-13432976D01*
X12174167Y-13423452D01*
X12164643Y-13413928D01*
X12155119Y-13394881D01*
X12145595Y-13356786D01*
X12145595Y-13309167D01*
X12155119Y-13271071D01*
X12164643Y-13252024D01*
X12174167Y-13242500D01*
X12193214Y-13232976D01*
X12345595Y-13413928D02*
X12355119Y-13423452D01*
X12345595Y-13432976D01*
X12336071Y-13423452D01*
X12345595Y-13413928D01*
X12345595Y-13432976D01*
X12421786Y-13232976D02*
X12545595Y-13232976D01*
X12478928Y-13309167D01*
X12507500Y-13309167D01*
X12526548Y-13318690D01*
X12536071Y-13328214D01*
X12545595Y-13347262D01*
X12545595Y-13394881D01*
X12536071Y-13413928D01*
X12526548Y-13423452D01*
X12507500Y-13432976D01*
X12450357Y-13432976D01*
X12431309Y-13423452D01*
X12421786Y-13413928D01*
X12669405Y-13232976D02*
X12688452Y-13232976D01*
X12707500Y-13242500D01*
X12717024Y-13252024D01*
X12726548Y-13271071D01*
X12736071Y-13309167D01*
X12736071Y-13356786D01*
X12726548Y-13394881D01*
X12717024Y-13413928D01*
X12707500Y-13423452D01*
X12688452Y-13432976D01*
X12669405Y-13432976D01*
X12650357Y-13423452D01*
X12640833Y-13413928D01*
X12631309Y-13394881D01*
X12621786Y-13356786D01*
X12621786Y-13309167D01*
X12631309Y-13271071D01*
X12640833Y-13252024D01*
X12650357Y-13242500D01*
X12669405Y-13232976D01*
X12859881Y-13232976D02*
X12878928Y-13232976D01*
X12897976Y-13242500D01*
X12907500Y-13252024D01*
X12917024Y-13271071D01*
X12926548Y-13309167D01*
X12926548Y-13356786D01*
X12917024Y-13394881D01*
X12907500Y-13413928D01*
X12897976Y-13423452D01*
X12878928Y-13432976D01*
X12859881Y-13432976D01*
X12840833Y-13423452D01*
X12831309Y-13413928D01*
X12821786Y-13394881D01*
X12812262Y-13356786D01*
X12812262Y-13309167D01*
X12821786Y-13271071D01*
X12831309Y-13252024D01*
X12840833Y-13242500D01*
X12859881Y-13232976D01*
X13012262Y-13432976D02*
X13012262Y-13299643D01*
X13012262Y-13318690D02*
X13021786Y-13309167D01*
X13040833Y-13299643D01*
X13069405Y-13299643D01*
X13088452Y-13309167D01*
X13097976Y-13328214D01*
X13097976Y-13432976D01*
X13097976Y-13328214D02*
X13107500Y-13309167D01*
X13126548Y-13299643D01*
X13155119Y-13299643D01*
X13174167Y-13309167D01*
X13183690Y-13328214D01*
X13183690Y-13432976D01*
X13278928Y-13432976D02*
X13278928Y-13299643D01*
X13278928Y-13318690D02*
X13288452Y-13309167D01*
X13307500Y-13299643D01*
X13336071Y-13299643D01*
X13355119Y-13309167D01*
X13364643Y-13328214D01*
X13364643Y-13432976D01*
X13364643Y-13328214D02*
X13374167Y-13309167D01*
X13393214Y-13299643D01*
X13421786Y-13299643D01*
X13440833Y-13309167D01*
X13450357Y-13328214D01*
X13450357Y-13432976D01*
X13840833Y-13223452D02*
X13669405Y-13480595D01*
X14097976Y-13232976D02*
X14117024Y-13232976D01*
X14136071Y-13242500D01*
X14145595Y-13252024D01*
X14155119Y-13271071D01*
X14164643Y-13309167D01*
X14164643Y-13356786D01*
X14155119Y-13394881D01*
X14145595Y-13413928D01*
X14136071Y-13423452D01*
X14117024Y-13432976D01*
X14097976Y-13432976D01*
X14078928Y-13423452D01*
X14069405Y-13413928D01*
X14059881Y-13394881D01*
X14050357Y-13356786D01*
X14050357Y-13309167D01*
X14059881Y-13271071D01*
X14069405Y-13252024D01*
X14078928Y-13242500D01*
X14097976Y-13232976D01*
X14250357Y-13413928D02*
X14259881Y-13423452D01*
X14250357Y-13432976D01*
X14240833Y-13423452D01*
X14250357Y-13413928D01*
X14250357Y-13432976D01*
X14383690Y-13232976D02*
X14402738Y-13232976D01*
X14421786Y-13242500D01*
X14431309Y-13252024D01*
X14440833Y-13271071D01*
X14450357Y-13309167D01*
X14450357Y-13356786D01*
X14440833Y-13394881D01*
X14431309Y-13413928D01*
X14421786Y-13423452D01*
X14402738Y-13432976D01*
X14383690Y-13432976D01*
X14364643Y-13423452D01*
X14355119Y-13413928D01*
X14345595Y-13394881D01*
X14336071Y-13356786D01*
X14336071Y-13309167D01*
X14345595Y-13271071D01*
X14355119Y-13252024D01*
X14364643Y-13242500D01*
X14383690Y-13232976D01*
X14640833Y-13432976D02*
X14526548Y-13432976D01*
X14583690Y-13432976D02*
X14583690Y-13232976D01*
X14564643Y-13261548D01*
X14545595Y-13280595D01*
X14526548Y-13290119D01*
X14831309Y-13432976D02*
X14717024Y-13432976D01*
X14774167Y-13432976D02*
X14774167Y-13232976D01*
X14755119Y-13261548D01*
X14736071Y-13280595D01*
X14717024Y-13290119D01*
X14945595Y-13318690D02*
X14926548Y-13309167D01*
X14917024Y-13299643D01*
X14907500Y-13280595D01*
X14907500Y-13271071D01*
X14917024Y-13252024D01*
X14926548Y-13242500D01*
X14945595Y-13232976D01*
X14983690Y-13232976D01*
X15002738Y-13242500D01*
X15012262Y-13252024D01*
X15021786Y-13271071D01*
X15021786Y-13280595D01*
X15012262Y-13299643D01*
X15002738Y-13309167D01*
X14983690Y-13318690D01*
X14945595Y-13318690D01*
X14926548Y-13328214D01*
X14917024Y-13337738D01*
X14907500Y-13356786D01*
X14907500Y-13394881D01*
X14917024Y-13413928D01*
X14926548Y-13423452D01*
X14945595Y-13432976D01*
X14983690Y-13432976D01*
X15002738Y-13423452D01*
X15012262Y-13413928D01*
X15021786Y-13394881D01*
X15021786Y-13356786D01*
X15012262Y-13337738D01*
X15002738Y-13328214D01*
X14983690Y-13318690D01*
X15097976Y-13232976D02*
X15097976Y-13271071D01*
X15174167Y-13232976D02*
X15174167Y-13271071D01*
X15469405Y-13509167D02*
X15459881Y-13499643D01*
X15440833Y-13471071D01*
X15431309Y-13452024D01*
X15421786Y-13423452D01*
X15412262Y-13375833D01*
X15412262Y-13337738D01*
X15421786Y-13290119D01*
X15431309Y-13261548D01*
X15440833Y-13242500D01*
X15459881Y-13213928D01*
X15469405Y-13204405D01*
X15631309Y-13299643D02*
X15631309Y-13432976D01*
X15583690Y-13223452D02*
X15536071Y-13366309D01*
X15659881Y-13366309D01*
X15821786Y-13299643D02*
X15821786Y-13432976D01*
X15774167Y-13223452D02*
X15726548Y-13366309D01*
X15850357Y-13366309D01*
X16078928Y-13432976D02*
X16078928Y-13232976D01*
X16164643Y-13432976D02*
X16164643Y-13328214D01*
X16155119Y-13309167D01*
X16136071Y-13299643D01*
X16107500Y-13299643D01*
X16088452Y-13309167D01*
X16078928Y-13318690D01*
X16288452Y-13432976D02*
X16269405Y-13423452D01*
X16259881Y-13413928D01*
X16250357Y-13394881D01*
X16250357Y-13337738D01*
X16259881Y-13318690D01*
X16269405Y-13309167D01*
X16288452Y-13299643D01*
X16317024Y-13299643D01*
X16336071Y-13309167D01*
X16345595Y-13318690D01*
X16355119Y-13337738D01*
X16355119Y-13394881D01*
X16345595Y-13413928D01*
X16336071Y-13423452D01*
X16317024Y-13432976D01*
X16288452Y-13432976D01*
X16469405Y-13432976D02*
X16450357Y-13423452D01*
X16440833Y-13404405D01*
X16440833Y-13232976D01*
X16621786Y-13423452D02*
X16602738Y-13432976D01*
X16564643Y-13432976D01*
X16545595Y-13423452D01*
X16536071Y-13404405D01*
X16536071Y-13328214D01*
X16545595Y-13309167D01*
X16564643Y-13299643D01*
X16602738Y-13299643D01*
X16621786Y-13309167D01*
X16631309Y-13328214D01*
X16631309Y-13347262D01*
X16536071Y-13366309D01*
X16707500Y-13423452D02*
X16726548Y-13432976D01*
X16764643Y-13432976D01*
X16783690Y-13423452D01*
X16793214Y-13404405D01*
X16793214Y-13394881D01*
X16783690Y-13375833D01*
X16764643Y-13366309D01*
X16736071Y-13366309D01*
X16717024Y-13356786D01*
X16707500Y-13337738D01*
X16707500Y-13328214D01*
X16717024Y-13309167D01*
X16736071Y-13299643D01*
X16764643Y-13299643D01*
X16783690Y-13309167D01*
X16859881Y-13509167D02*
X16869405Y-13499643D01*
X16888452Y-13471071D01*
X16897976Y-13452024D01*
X16907500Y-13423452D01*
X16917024Y-13375833D01*
X16917024Y-13337738D01*
X16907500Y-13290119D01*
X16897976Y-13261548D01*
X16888452Y-13242500D01*
X16869405Y-13213928D01*
X16859881Y-13204405D01*
D13*
X11897500Y-13606500D02*
G75*
G03*
X11897500Y-13606500I-25000J0D01*
G01*
D11*
X12193214Y-13496976D02*
X12212262Y-13496976D01*
X12231309Y-13506500D01*
X12240833Y-13516024D01*
X12250357Y-13535071D01*
X12259881Y-13573167D01*
X12259881Y-13620786D01*
X12250357Y-13658881D01*
X12240833Y-13677928D01*
X12231309Y-13687452D01*
X12212262Y-13696976D01*
X12193214Y-13696976D01*
X12174167Y-13687452D01*
X12164643Y-13677928D01*
X12155119Y-13658881D01*
X12145595Y-13620786D01*
X12145595Y-13573167D01*
X12155119Y-13535071D01*
X12164643Y-13516024D01*
X12174167Y-13506500D01*
X12193214Y-13496976D01*
X12345595Y-13677928D02*
X12355119Y-13687452D01*
X12345595Y-13696976D01*
X12336071Y-13687452D01*
X12345595Y-13677928D01*
X12345595Y-13696976D01*
X12536071Y-13496976D02*
X12440833Y-13496976D01*
X12431309Y-13592214D01*
X12440833Y-13582690D01*
X12459881Y-13573167D01*
X12507500Y-13573167D01*
X12526548Y-13582690D01*
X12536071Y-13592214D01*
X12545595Y-13611262D01*
X12545595Y-13658881D01*
X12536071Y-13677928D01*
X12526548Y-13687452D01*
X12507500Y-13696976D01*
X12459881Y-13696976D01*
X12440833Y-13687452D01*
X12431309Y-13677928D01*
X12669405Y-13496976D02*
X12688452Y-13496976D01*
X12707500Y-13506500D01*
X12717024Y-13516024D01*
X12726548Y-13535071D01*
X12736071Y-13573167D01*
X12736071Y-13620786D01*
X12726548Y-13658881D01*
X12717024Y-13677928D01*
X12707500Y-13687452D01*
X12688452Y-13696976D01*
X12669405Y-13696976D01*
X12650357Y-13687452D01*
X12640833Y-13677928D01*
X12631309Y-13658881D01*
X12621786Y-13620786D01*
X12621786Y-13573167D01*
X12631309Y-13535071D01*
X12640833Y-13516024D01*
X12650357Y-13506500D01*
X12669405Y-13496976D01*
X12859881Y-13496976D02*
X12878928Y-13496976D01*
X12897976Y-13506500D01*
X12907500Y-13516024D01*
X12917024Y-13535071D01*
X12926548Y-13573167D01*
X12926548Y-13620786D01*
X12917024Y-13658881D01*
X12907500Y-13677928D01*
X12897976Y-13687452D01*
X12878928Y-13696976D01*
X12859881Y-13696976D01*
X12840833Y-13687452D01*
X12831309Y-13677928D01*
X12821786Y-13658881D01*
X12812262Y-13620786D01*
X12812262Y-13573167D01*
X12821786Y-13535071D01*
X12831309Y-13516024D01*
X12840833Y-13506500D01*
X12859881Y-13496976D01*
X13012262Y-13696976D02*
X13012262Y-13563643D01*
X13012262Y-13582690D02*
X13021786Y-13573167D01*
X13040833Y-13563643D01*
X13069405Y-13563643D01*
X13088452Y-13573167D01*
X13097976Y-13592214D01*
X13097976Y-13696976D01*
X13097976Y-13592214D02*
X13107500Y-13573167D01*
X13126548Y-13563643D01*
X13155119Y-13563643D01*
X13174167Y-13573167D01*
X13183690Y-13592214D01*
X13183690Y-13696976D01*
X13278928Y-13696976D02*
X13278928Y-13563643D01*
X13278928Y-13582690D02*
X13288452Y-13573167D01*
X13307500Y-13563643D01*
X13336071Y-13563643D01*
X13355119Y-13573167D01*
X13364643Y-13592214D01*
X13364643Y-13696976D01*
X13364643Y-13592214D02*
X13374167Y-13573167D01*
X13393214Y-13563643D01*
X13421786Y-13563643D01*
X13440833Y-13573167D01*
X13450357Y-13592214D01*
X13450357Y-13696976D01*
X13840833Y-13487452D02*
X13669405Y-13744595D01*
X14097976Y-13496976D02*
X14117024Y-13496976D01*
X14136071Y-13506500D01*
X14145595Y-13516024D01*
X14155119Y-13535071D01*
X14164643Y-13573167D01*
X14164643Y-13620786D01*
X14155119Y-13658881D01*
X14145595Y-13677928D01*
X14136071Y-13687452D01*
X14117024Y-13696976D01*
X14097976Y-13696976D01*
X14078928Y-13687452D01*
X14069405Y-13677928D01*
X14059881Y-13658881D01*
X14050357Y-13620786D01*
X14050357Y-13573167D01*
X14059881Y-13535071D01*
X14069405Y-13516024D01*
X14078928Y-13506500D01*
X14097976Y-13496976D01*
X14250357Y-13677928D02*
X14259881Y-13687452D01*
X14250357Y-13696976D01*
X14240833Y-13687452D01*
X14250357Y-13677928D01*
X14250357Y-13696976D01*
X14383690Y-13496976D02*
X14402738Y-13496976D01*
X14421786Y-13506500D01*
X14431309Y-13516024D01*
X14440833Y-13535071D01*
X14450357Y-13573167D01*
X14450357Y-13620786D01*
X14440833Y-13658881D01*
X14431309Y-13677928D01*
X14421786Y-13687452D01*
X14402738Y-13696976D01*
X14383690Y-13696976D01*
X14364643Y-13687452D01*
X14355119Y-13677928D01*
X14345595Y-13658881D01*
X14336071Y-13620786D01*
X14336071Y-13573167D01*
X14345595Y-13535071D01*
X14355119Y-13516024D01*
X14364643Y-13506500D01*
X14383690Y-13496976D01*
X14640833Y-13696976D02*
X14526548Y-13696976D01*
X14583690Y-13696976D02*
X14583690Y-13496976D01*
X14564643Y-13525548D01*
X14545595Y-13544595D01*
X14526548Y-13554119D01*
X14736071Y-13696976D02*
X14774167Y-13696976D01*
X14793214Y-13687452D01*
X14802738Y-13677928D01*
X14821786Y-13649357D01*
X14831309Y-13611262D01*
X14831309Y-13535071D01*
X14821786Y-13516024D01*
X14812262Y-13506500D01*
X14793214Y-13496976D01*
X14755119Y-13496976D01*
X14736071Y-13506500D01*
X14726548Y-13516024D01*
X14717024Y-13535071D01*
X14717024Y-13582690D01*
X14726548Y-13601738D01*
X14736071Y-13611262D01*
X14755119Y-13620786D01*
X14793214Y-13620786D01*
X14812262Y-13611262D01*
X14821786Y-13601738D01*
X14831309Y-13582690D01*
X14897976Y-13496976D02*
X15031309Y-13496976D01*
X14945595Y-13696976D01*
X15097976Y-13496976D02*
X15097976Y-13535071D01*
X15174167Y-13496976D02*
X15174167Y-13535071D01*
X15469405Y-13773167D02*
X15459881Y-13763643D01*
X15440833Y-13735071D01*
X15431309Y-13716024D01*
X15421786Y-13687452D01*
X15412262Y-13639833D01*
X15412262Y-13601738D01*
X15421786Y-13554119D01*
X15431309Y-13525548D01*
X15440833Y-13506500D01*
X15459881Y-13477928D01*
X15469405Y-13468405D01*
X15583690Y-13496976D02*
X15602738Y-13496976D01*
X15621786Y-13506500D01*
X15631309Y-13516024D01*
X15640833Y-13535071D01*
X15650357Y-13573167D01*
X15650357Y-13620786D01*
X15640833Y-13658881D01*
X15631309Y-13677928D01*
X15621786Y-13687452D01*
X15602738Y-13696976D01*
X15583690Y-13696976D01*
X15564643Y-13687452D01*
X15555119Y-13677928D01*
X15545595Y-13658881D01*
X15536071Y-13620786D01*
X15536071Y-13573167D01*
X15545595Y-13535071D01*
X15555119Y-13516024D01*
X15564643Y-13506500D01*
X15583690Y-13496976D01*
X15888452Y-13696976D02*
X15888452Y-13496976D01*
X15974167Y-13696976D02*
X15974167Y-13592214D01*
X15964643Y-13573167D01*
X15945595Y-13563643D01*
X15917024Y-13563643D01*
X15897976Y-13573167D01*
X15888452Y-13582690D01*
X16097976Y-13696976D02*
X16078928Y-13687452D01*
X16069405Y-13677928D01*
X16059881Y-13658881D01*
X16059881Y-13601738D01*
X16069405Y-13582690D01*
X16078928Y-13573167D01*
X16097976Y-13563643D01*
X16126548Y-13563643D01*
X16145595Y-13573167D01*
X16155119Y-13582690D01*
X16164643Y-13601738D01*
X16164643Y-13658881D01*
X16155119Y-13677928D01*
X16145595Y-13687452D01*
X16126548Y-13696976D01*
X16097976Y-13696976D01*
X16278928Y-13696976D02*
X16259881Y-13687452D01*
X16250357Y-13668405D01*
X16250357Y-13496976D01*
X16431309Y-13687452D02*
X16412262Y-13696976D01*
X16374167Y-13696976D01*
X16355119Y-13687452D01*
X16345595Y-13668405D01*
X16345595Y-13592214D01*
X16355119Y-13573167D01*
X16374167Y-13563643D01*
X16412262Y-13563643D01*
X16431309Y-13573167D01*
X16440833Y-13592214D01*
X16440833Y-13611262D01*
X16345595Y-13630309D01*
X16517024Y-13687452D02*
X16536071Y-13696976D01*
X16574167Y-13696976D01*
X16593214Y-13687452D01*
X16602738Y-13668405D01*
X16602738Y-13658881D01*
X16593214Y-13639833D01*
X16574167Y-13630309D01*
X16545595Y-13630309D01*
X16526548Y-13620786D01*
X16517024Y-13601738D01*
X16517024Y-13592214D01*
X16526548Y-13573167D01*
X16545595Y-13563643D01*
X16574167Y-13563643D01*
X16593214Y-13573167D01*
X16840833Y-13620786D02*
X16993214Y-13620786D01*
X16917024Y-13696976D02*
X16917024Y-13544595D01*
X17231310Y-13516024D02*
X17240833Y-13506500D01*
X17259881Y-13496976D01*
X17307500Y-13496976D01*
X17326548Y-13506500D01*
X17336071Y-13516024D01*
X17345595Y-13535071D01*
X17345595Y-13554119D01*
X17336071Y-13582690D01*
X17221786Y-13696976D01*
X17345595Y-13696976D01*
X17574167Y-13687452D02*
X17593214Y-13696976D01*
X17631310Y-13696976D01*
X17650357Y-13687452D01*
X17659881Y-13668405D01*
X17659881Y-13658881D01*
X17650357Y-13639833D01*
X17631310Y-13630309D01*
X17602738Y-13630309D01*
X17583690Y-13620786D01*
X17574167Y-13601738D01*
X17574167Y-13592214D01*
X17583690Y-13573167D01*
X17602738Y-13563643D01*
X17631310Y-13563643D01*
X17650357Y-13573167D01*
X17774167Y-13696976D02*
X17755119Y-13687452D01*
X17745595Y-13668405D01*
X17745595Y-13496976D01*
X17878929Y-13696976D02*
X17859881Y-13687452D01*
X17850357Y-13677928D01*
X17840833Y-13658881D01*
X17840833Y-13601738D01*
X17850357Y-13582690D01*
X17859881Y-13573167D01*
X17878929Y-13563643D01*
X17907500Y-13563643D01*
X17926548Y-13573167D01*
X17936071Y-13582690D01*
X17945595Y-13601738D01*
X17945595Y-13658881D01*
X17936071Y-13677928D01*
X17926548Y-13687452D01*
X17907500Y-13696976D01*
X17878929Y-13696976D01*
X18002738Y-13563643D02*
X18078929Y-13563643D01*
X18031310Y-13496976D02*
X18031310Y-13668405D01*
X18040833Y-13687452D01*
X18059881Y-13696976D01*
X18078929Y-13696976D01*
X18136071Y-13687452D02*
X18155119Y-13696976D01*
X18193214Y-13696976D01*
X18212262Y-13687452D01*
X18221786Y-13668405D01*
X18221786Y-13658881D01*
X18212262Y-13639833D01*
X18193214Y-13630309D01*
X18164643Y-13630309D01*
X18145595Y-13620786D01*
X18136071Y-13601738D01*
X18136071Y-13592214D01*
X18145595Y-13573167D01*
X18164643Y-13563643D01*
X18193214Y-13563643D01*
X18212262Y-13573167D01*
X18288452Y-13773167D02*
X18297976Y-13763643D01*
X18317024Y-13735071D01*
X18326548Y-13716024D01*
X18336071Y-13687452D01*
X18345595Y-13639833D01*
X18345595Y-13601738D01*
X18336071Y-13554119D01*
X18326548Y-13525548D01*
X18317024Y-13506500D01*
X18297976Y-13477928D01*
X18288452Y-13468405D01*
D14*
X11870000Y-13843000D02*
X11870000Y-13898000D01*
X11842500Y-13870500D02*
X11897500Y-13870500D01*
D11*
X12193214Y-13760976D02*
X12212262Y-13760976D01*
X12231309Y-13770500D01*
X12240833Y-13780024D01*
X12250357Y-13799071D01*
X12259881Y-13837167D01*
X12259881Y-13884786D01*
X12250357Y-13922881D01*
X12240833Y-13941928D01*
X12231309Y-13951452D01*
X12212262Y-13960976D01*
X12193214Y-13960976D01*
X12174167Y-13951452D01*
X12164643Y-13941928D01*
X12155119Y-13922881D01*
X12145595Y-13884786D01*
X12145595Y-13837167D01*
X12155119Y-13799071D01*
X12164643Y-13780024D01*
X12174167Y-13770500D01*
X12193214Y-13760976D01*
X12345595Y-13941928D02*
X12355119Y-13951452D01*
X12345595Y-13960976D01*
X12336071Y-13951452D01*
X12345595Y-13941928D01*
X12345595Y-13960976D01*
X12536071Y-13760976D02*
X12440833Y-13760976D01*
X12431309Y-13856214D01*
X12440833Y-13846690D01*
X12459881Y-13837167D01*
X12507500Y-13837167D01*
X12526548Y-13846690D01*
X12536071Y-13856214D01*
X12545595Y-13875262D01*
X12545595Y-13922881D01*
X12536071Y-13941928D01*
X12526548Y-13951452D01*
X12507500Y-13960976D01*
X12459881Y-13960976D01*
X12440833Y-13951452D01*
X12431309Y-13941928D01*
X12726548Y-13760976D02*
X12631309Y-13760976D01*
X12621786Y-13856214D01*
X12631309Y-13846690D01*
X12650357Y-13837167D01*
X12697976Y-13837167D01*
X12717024Y-13846690D01*
X12726548Y-13856214D01*
X12736071Y-13875262D01*
X12736071Y-13922881D01*
X12726548Y-13941928D01*
X12717024Y-13951452D01*
X12697976Y-13960976D01*
X12650357Y-13960976D01*
X12631309Y-13951452D01*
X12621786Y-13941928D01*
X12859881Y-13760976D02*
X12878928Y-13760976D01*
X12897976Y-13770500D01*
X12907500Y-13780024D01*
X12917024Y-13799071D01*
X12926548Y-13837167D01*
X12926548Y-13884786D01*
X12917024Y-13922881D01*
X12907500Y-13941928D01*
X12897976Y-13951452D01*
X12878928Y-13960976D01*
X12859881Y-13960976D01*
X12840833Y-13951452D01*
X12831309Y-13941928D01*
X12821786Y-13922881D01*
X12812262Y-13884786D01*
X12812262Y-13837167D01*
X12821786Y-13799071D01*
X12831309Y-13780024D01*
X12840833Y-13770500D01*
X12859881Y-13760976D01*
X13012262Y-13960976D02*
X13012262Y-13827643D01*
X13012262Y-13846690D02*
X13021786Y-13837167D01*
X13040833Y-13827643D01*
X13069405Y-13827643D01*
X13088452Y-13837167D01*
X13097976Y-13856214D01*
X13097976Y-13960976D01*
X13097976Y-13856214D02*
X13107500Y-13837167D01*
X13126548Y-13827643D01*
X13155119Y-13827643D01*
X13174167Y-13837167D01*
X13183690Y-13856214D01*
X13183690Y-13960976D01*
X13278928Y-13960976D02*
X13278928Y-13827643D01*
X13278928Y-13846690D02*
X13288452Y-13837167D01*
X13307500Y-13827643D01*
X13336071Y-13827643D01*
X13355119Y-13837167D01*
X13364643Y-13856214D01*
X13364643Y-13960976D01*
X13364643Y-13856214D02*
X13374167Y-13837167D01*
X13393214Y-13827643D01*
X13421786Y-13827643D01*
X13440833Y-13837167D01*
X13450357Y-13856214D01*
X13450357Y-13960976D01*
X13840833Y-13751452D02*
X13669405Y-14008595D01*
X14097976Y-13760976D02*
X14117024Y-13760976D01*
X14136071Y-13770500D01*
X14145595Y-13780024D01*
X14155119Y-13799071D01*
X14164643Y-13837167D01*
X14164643Y-13884786D01*
X14155119Y-13922881D01*
X14145595Y-13941928D01*
X14136071Y-13951452D01*
X14117024Y-13960976D01*
X14097976Y-13960976D01*
X14078928Y-13951452D01*
X14069405Y-13941928D01*
X14059881Y-13922881D01*
X14050357Y-13884786D01*
X14050357Y-13837167D01*
X14059881Y-13799071D01*
X14069405Y-13780024D01*
X14078928Y-13770500D01*
X14097976Y-13760976D01*
X14250357Y-13941928D02*
X14259881Y-13951452D01*
X14250357Y-13960976D01*
X14240833Y-13951452D01*
X14250357Y-13941928D01*
X14250357Y-13960976D01*
X14383690Y-13760976D02*
X14402738Y-13760976D01*
X14421786Y-13770500D01*
X14431309Y-13780024D01*
X14440833Y-13799071D01*
X14450357Y-13837167D01*
X14450357Y-13884786D01*
X14440833Y-13922881D01*
X14431309Y-13941928D01*
X14421786Y-13951452D01*
X14402738Y-13960976D01*
X14383690Y-13960976D01*
X14364643Y-13951452D01*
X14355119Y-13941928D01*
X14345595Y-13922881D01*
X14336071Y-13884786D01*
X14336071Y-13837167D01*
X14345595Y-13799071D01*
X14355119Y-13780024D01*
X14364643Y-13770500D01*
X14383690Y-13760976D01*
X14526548Y-13780024D02*
X14536071Y-13770500D01*
X14555119Y-13760976D01*
X14602738Y-13760976D01*
X14621786Y-13770500D01*
X14631309Y-13780024D01*
X14640833Y-13799071D01*
X14640833Y-13818119D01*
X14631309Y-13846690D01*
X14517024Y-13960976D01*
X14640833Y-13960976D01*
X14831309Y-13960976D02*
X14717024Y-13960976D01*
X14774167Y-13960976D02*
X14774167Y-13760976D01*
X14755119Y-13789548D01*
X14736071Y-13808595D01*
X14717024Y-13818119D01*
X14897976Y-13760976D02*
X15031309Y-13760976D01*
X14945595Y-13960976D01*
X15097976Y-13760976D02*
X15097976Y-13799071D01*
X15174167Y-13760976D02*
X15174167Y-13799071D01*
X15469405Y-14037167D02*
X15459881Y-14027643D01*
X15440833Y-13999071D01*
X15431309Y-13980024D01*
X15421786Y-13951452D01*
X15412262Y-13903833D01*
X15412262Y-13865738D01*
X15421786Y-13818119D01*
X15431309Y-13789548D01*
X15440833Y-13770500D01*
X15459881Y-13741928D01*
X15469405Y-13732405D01*
X15583690Y-13760976D02*
X15602738Y-13760976D01*
X15621786Y-13770500D01*
X15631309Y-13780024D01*
X15640833Y-13799071D01*
X15650357Y-13837167D01*
X15650357Y-13884786D01*
X15640833Y-13922881D01*
X15631309Y-13941928D01*
X15621786Y-13951452D01*
X15602738Y-13960976D01*
X15583690Y-13960976D01*
X15564643Y-13951452D01*
X15555119Y-13941928D01*
X15545595Y-13922881D01*
X15536071Y-13884786D01*
X15536071Y-13837167D01*
X15545595Y-13799071D01*
X15555119Y-13780024D01*
X15564643Y-13770500D01*
X15583690Y-13760976D01*
X15888452Y-13960976D02*
X15888452Y-13760976D01*
X15974167Y-13960976D02*
X15974167Y-13856214D01*
X15964643Y-13837167D01*
X15945595Y-13827643D01*
X15917024Y-13827643D01*
X15897976Y-13837167D01*
X15888452Y-13846690D01*
X16097976Y-13960976D02*
X16078928Y-13951452D01*
X16069405Y-13941928D01*
X16059881Y-13922881D01*
X16059881Y-13865738D01*
X16069405Y-13846690D01*
X16078928Y-13837167D01*
X16097976Y-13827643D01*
X16126548Y-13827643D01*
X16145595Y-13837167D01*
X16155119Y-13846690D01*
X16164643Y-13865738D01*
X16164643Y-13922881D01*
X16155119Y-13941928D01*
X16145595Y-13951452D01*
X16126548Y-13960976D01*
X16097976Y-13960976D01*
X16278928Y-13960976D02*
X16259881Y-13951452D01*
X16250357Y-13932405D01*
X16250357Y-13760976D01*
X16431309Y-13951452D02*
X16412262Y-13960976D01*
X16374167Y-13960976D01*
X16355119Y-13951452D01*
X16345595Y-13932405D01*
X16345595Y-13856214D01*
X16355119Y-13837167D01*
X16374167Y-13827643D01*
X16412262Y-13827643D01*
X16431309Y-13837167D01*
X16440833Y-13856214D01*
X16440833Y-13875262D01*
X16345595Y-13894309D01*
X16517024Y-13951452D02*
X16536071Y-13960976D01*
X16574167Y-13960976D01*
X16593214Y-13951452D01*
X16602738Y-13932405D01*
X16602738Y-13922881D01*
X16593214Y-13903833D01*
X16574167Y-13894309D01*
X16545595Y-13894309D01*
X16526548Y-13884786D01*
X16517024Y-13865738D01*
X16517024Y-13856214D01*
X16526548Y-13837167D01*
X16545595Y-13827643D01*
X16574167Y-13827643D01*
X16593214Y-13837167D01*
X16840833Y-13884786D02*
X16993214Y-13884786D01*
X16917024Y-13960976D02*
X16917024Y-13808595D01*
X17231310Y-13780024D02*
X17240833Y-13770500D01*
X17259881Y-13760976D01*
X17307500Y-13760976D01*
X17326548Y-13770500D01*
X17336071Y-13780024D01*
X17345595Y-13799071D01*
X17345595Y-13818119D01*
X17336071Y-13846690D01*
X17221786Y-13960976D01*
X17345595Y-13960976D01*
X17574167Y-13951452D02*
X17593214Y-13960976D01*
X17631310Y-13960976D01*
X17650357Y-13951452D01*
X17659881Y-13932405D01*
X17659881Y-13922881D01*
X17650357Y-13903833D01*
X17631310Y-13894309D01*
X17602738Y-13894309D01*
X17583690Y-13884786D01*
X17574167Y-13865738D01*
X17574167Y-13856214D01*
X17583690Y-13837167D01*
X17602738Y-13827643D01*
X17631310Y-13827643D01*
X17650357Y-13837167D01*
X17774167Y-13960976D02*
X17755119Y-13951452D01*
X17745595Y-13932405D01*
X17745595Y-13760976D01*
X17878929Y-13960976D02*
X17859881Y-13951452D01*
X17850357Y-13941928D01*
X17840833Y-13922881D01*
X17840833Y-13865738D01*
X17850357Y-13846690D01*
X17859881Y-13837167D01*
X17878929Y-13827643D01*
X17907500Y-13827643D01*
X17926548Y-13837167D01*
X17936071Y-13846690D01*
X17945595Y-13865738D01*
X17945595Y-13922881D01*
X17936071Y-13941928D01*
X17926548Y-13951452D01*
X17907500Y-13960976D01*
X17878929Y-13960976D01*
X18002738Y-13827643D02*
X18078929Y-13827643D01*
X18031310Y-13760976D02*
X18031310Y-13932405D01*
X18040833Y-13951452D01*
X18059881Y-13960976D01*
X18078929Y-13960976D01*
X18136071Y-13951452D02*
X18155119Y-13960976D01*
X18193214Y-13960976D01*
X18212262Y-13951452D01*
X18221786Y-13932405D01*
X18221786Y-13922881D01*
X18212262Y-13903833D01*
X18193214Y-13894309D01*
X18164643Y-13894309D01*
X18145595Y-13884786D01*
X18136071Y-13865738D01*
X18136071Y-13856214D01*
X18145595Y-13837167D01*
X18164643Y-13827643D01*
X18193214Y-13827643D01*
X18212262Y-13837167D01*
X18288452Y-14037167D02*
X18297976Y-14027643D01*
X18317024Y-13999071D01*
X18326548Y-13980024D01*
X18336071Y-13951452D01*
X18345595Y-13903833D01*
X18345595Y-13865738D01*
X18336071Y-13818119D01*
X18326548Y-13789548D01*
X18317024Y-13770500D01*
X18297976Y-13741928D01*
X18288452Y-13732405D01*
D15*
X11886810Y-14160310D02*
X11886810Y-14108690D01*
X11835190Y-14108690D01*
X11835190Y-14160310D01*
X11886810Y-14160310D01*
D11*
X12193214Y-14024976D02*
X12212262Y-14024976D01*
X12231309Y-14034500D01*
X12240833Y-14044024D01*
X12250357Y-14063071D01*
X12259881Y-14101167D01*
X12259881Y-14148786D01*
X12250357Y-14186881D01*
X12240833Y-14205928D01*
X12231309Y-14215452D01*
X12212262Y-14224976D01*
X12193214Y-14224976D01*
X12174167Y-14215452D01*
X12164643Y-14205928D01*
X12155119Y-14186881D01*
X12145595Y-14148786D01*
X12145595Y-14101167D01*
X12155119Y-14063071D01*
X12164643Y-14044024D01*
X12174167Y-14034500D01*
X12193214Y-14024976D01*
X12345595Y-14205928D02*
X12355119Y-14215452D01*
X12345595Y-14224976D01*
X12336071Y-14215452D01*
X12345595Y-14205928D01*
X12345595Y-14224976D01*
X12421786Y-14024976D02*
X12555119Y-14024976D01*
X12469405Y-14224976D01*
X12612262Y-14024976D02*
X12736071Y-14024976D01*
X12669405Y-14101167D01*
X12697976Y-14101167D01*
X12717024Y-14110690D01*
X12726548Y-14120214D01*
X12736071Y-14139262D01*
X12736071Y-14186881D01*
X12726548Y-14205928D01*
X12717024Y-14215452D01*
X12697976Y-14224976D01*
X12640833Y-14224976D01*
X12621786Y-14215452D01*
X12612262Y-14205928D01*
X12859881Y-14024976D02*
X12878928Y-14024976D01*
X12897976Y-14034500D01*
X12907500Y-14044024D01*
X12917024Y-14063071D01*
X12926548Y-14101167D01*
X12926548Y-14148786D01*
X12917024Y-14186881D01*
X12907500Y-14205928D01*
X12897976Y-14215452D01*
X12878928Y-14224976D01*
X12859881Y-14224976D01*
X12840833Y-14215452D01*
X12831309Y-14205928D01*
X12821786Y-14186881D01*
X12812262Y-14148786D01*
X12812262Y-14101167D01*
X12821786Y-14063071D01*
X12831309Y-14044024D01*
X12840833Y-14034500D01*
X12859881Y-14024976D01*
X13012262Y-14224976D02*
X13012262Y-14091643D01*
X13012262Y-14110690D02*
X13021786Y-14101167D01*
X13040833Y-14091643D01*
X13069405Y-14091643D01*
X13088452Y-14101167D01*
X13097976Y-14120214D01*
X13097976Y-14224976D01*
X13097976Y-14120214D02*
X13107500Y-14101167D01*
X13126548Y-14091643D01*
X13155119Y-14091643D01*
X13174167Y-14101167D01*
X13183690Y-14120214D01*
X13183690Y-14224976D01*
X13278928Y-14224976D02*
X13278928Y-14091643D01*
X13278928Y-14110690D02*
X13288452Y-14101167D01*
X13307500Y-14091643D01*
X13336071Y-14091643D01*
X13355119Y-14101167D01*
X13364643Y-14120214D01*
X13364643Y-14224976D01*
X13364643Y-14120214D02*
X13374167Y-14101167D01*
X13393214Y-14091643D01*
X13421786Y-14091643D01*
X13440833Y-14101167D01*
X13450357Y-14120214D01*
X13450357Y-14224976D01*
X13840833Y-14015452D02*
X13669405Y-14272595D01*
X14097976Y-14024976D02*
X14117024Y-14024976D01*
X14136071Y-14034500D01*
X14145595Y-14044024D01*
X14155119Y-14063071D01*
X14164643Y-14101167D01*
X14164643Y-14148786D01*
X14155119Y-14186881D01*
X14145595Y-14205928D01*
X14136071Y-14215452D01*
X14117024Y-14224976D01*
X14097976Y-14224976D01*
X14078928Y-14215452D01*
X14069405Y-14205928D01*
X14059881Y-14186881D01*
X14050357Y-14148786D01*
X14050357Y-14101167D01*
X14059881Y-14063071D01*
X14069405Y-14044024D01*
X14078928Y-14034500D01*
X14097976Y-14024976D01*
X14250357Y-14205928D02*
X14259881Y-14215452D01*
X14250357Y-14224976D01*
X14240833Y-14215452D01*
X14250357Y-14205928D01*
X14250357Y-14224976D01*
X14383690Y-14024976D02*
X14402738Y-14024976D01*
X14421786Y-14034500D01*
X14431309Y-14044024D01*
X14440833Y-14063071D01*
X14450357Y-14101167D01*
X14450357Y-14148786D01*
X14440833Y-14186881D01*
X14431309Y-14205928D01*
X14421786Y-14215452D01*
X14402738Y-14224976D01*
X14383690Y-14224976D01*
X14364643Y-14215452D01*
X14355119Y-14205928D01*
X14345595Y-14186881D01*
X14336071Y-14148786D01*
X14336071Y-14101167D01*
X14345595Y-14063071D01*
X14355119Y-14044024D01*
X14364643Y-14034500D01*
X14383690Y-14024976D01*
X14526548Y-14044024D02*
X14536071Y-14034500D01*
X14555119Y-14024976D01*
X14602738Y-14024976D01*
X14621786Y-14034500D01*
X14631309Y-14044024D01*
X14640833Y-14063071D01*
X14640833Y-14082119D01*
X14631309Y-14110690D01*
X14517024Y-14224976D01*
X14640833Y-14224976D01*
X14755119Y-14110690D02*
X14736071Y-14101167D01*
X14726548Y-14091643D01*
X14717024Y-14072595D01*
X14717024Y-14063071D01*
X14726548Y-14044024D01*
X14736071Y-14034500D01*
X14755119Y-14024976D01*
X14793214Y-14024976D01*
X14812262Y-14034500D01*
X14821786Y-14044024D01*
X14831309Y-14063071D01*
X14831309Y-14072595D01*
X14821786Y-14091643D01*
X14812262Y-14101167D01*
X14793214Y-14110690D01*
X14755119Y-14110690D01*
X14736071Y-14120214D01*
X14726548Y-14129738D01*
X14717024Y-14148786D01*
X14717024Y-14186881D01*
X14726548Y-14205928D01*
X14736071Y-14215452D01*
X14755119Y-14224976D01*
X14793214Y-14224976D01*
X14812262Y-14215452D01*
X14821786Y-14205928D01*
X14831309Y-14186881D01*
X14831309Y-14148786D01*
X14821786Y-14129738D01*
X14812262Y-14120214D01*
X14793214Y-14110690D01*
X14897976Y-14024976D02*
X15031309Y-14024976D01*
X14945595Y-14224976D01*
X15097976Y-14024976D02*
X15097976Y-14063071D01*
X15174167Y-14024976D02*
X15174167Y-14063071D01*
X15469405Y-14301167D02*
X15459881Y-14291643D01*
X15440833Y-14263071D01*
X15431309Y-14244024D01*
X15421786Y-14215452D01*
X15412262Y-14167833D01*
X15412262Y-14129738D01*
X15421786Y-14082119D01*
X15431309Y-14053548D01*
X15440833Y-14034500D01*
X15459881Y-14005928D01*
X15469405Y-13996405D01*
X15555119Y-14224976D02*
X15593214Y-14224976D01*
X15612262Y-14215452D01*
X15621786Y-14205928D01*
X15640833Y-14177357D01*
X15650357Y-14139262D01*
X15650357Y-14063071D01*
X15640833Y-14044024D01*
X15631309Y-14034500D01*
X15612262Y-14024976D01*
X15574167Y-14024976D01*
X15555119Y-14034500D01*
X15545595Y-14044024D01*
X15536071Y-14063071D01*
X15536071Y-14110690D01*
X15545595Y-14129738D01*
X15555119Y-14139262D01*
X15574167Y-14148786D01*
X15612262Y-14148786D01*
X15631309Y-14139262D01*
X15640833Y-14129738D01*
X15650357Y-14110690D01*
X15888452Y-14224976D02*
X15888452Y-14024976D01*
X15974167Y-14224976D02*
X15974167Y-14120214D01*
X15964643Y-14101167D01*
X15945595Y-14091643D01*
X15917024Y-14091643D01*
X15897976Y-14101167D01*
X15888452Y-14110690D01*
X16097976Y-14224976D02*
X16078928Y-14215452D01*
X16069405Y-14205928D01*
X16059881Y-14186881D01*
X16059881Y-14129738D01*
X16069405Y-14110690D01*
X16078928Y-14101167D01*
X16097976Y-14091643D01*
X16126548Y-14091643D01*
X16145595Y-14101167D01*
X16155119Y-14110690D01*
X16164643Y-14129738D01*
X16164643Y-14186881D01*
X16155119Y-14205928D01*
X16145595Y-14215452D01*
X16126548Y-14224976D01*
X16097976Y-14224976D01*
X16278928Y-14224976D02*
X16259881Y-14215452D01*
X16250357Y-14196405D01*
X16250357Y-14024976D01*
X16431309Y-14215452D02*
X16412262Y-14224976D01*
X16374167Y-14224976D01*
X16355119Y-14215452D01*
X16345595Y-14196405D01*
X16345595Y-14120214D01*
X16355119Y-14101167D01*
X16374167Y-14091643D01*
X16412262Y-14091643D01*
X16431309Y-14101167D01*
X16440833Y-14120214D01*
X16440833Y-14139262D01*
X16345595Y-14158309D01*
X16517024Y-14215452D02*
X16536071Y-14224976D01*
X16574167Y-14224976D01*
X16593214Y-14215452D01*
X16602738Y-14196405D01*
X16602738Y-14186881D01*
X16593214Y-14167833D01*
X16574167Y-14158309D01*
X16545595Y-14158309D01*
X16526548Y-14148786D01*
X16517024Y-14129738D01*
X16517024Y-14120214D01*
X16526548Y-14101167D01*
X16545595Y-14091643D01*
X16574167Y-14091643D01*
X16593214Y-14101167D01*
X16669405Y-14301167D02*
X16678928Y-14291643D01*
X16697976Y-14263071D01*
X16707500Y-14244024D01*
X16717024Y-14215452D01*
X16726548Y-14167833D01*
X16726548Y-14129738D01*
X16717024Y-14082119D01*
X16707500Y-14053548D01*
X16697976Y-14034500D01*
X16678928Y-14005928D01*
X16669405Y-13996405D01*
D16*
X11847500Y-14448500D02*
X11897500Y-14398500D01*
X11847500Y-14348500D01*
X11797500Y-14398500D01*
X11847500Y-14448500D01*
D11*
X12259881Y-14488976D02*
X12145595Y-14488976D01*
X12202738Y-14488976D02*
X12202738Y-14288976D01*
X12183690Y-14317548D01*
X12164643Y-14336595D01*
X12145595Y-14346119D01*
X12345595Y-14469928D02*
X12355119Y-14479452D01*
X12345595Y-14488976D01*
X12336071Y-14479452D01*
X12345595Y-14469928D01*
X12345595Y-14488976D01*
X12478928Y-14288976D02*
X12497976Y-14288976D01*
X12517024Y-14298500D01*
X12526548Y-14308024D01*
X12536071Y-14327071D01*
X12545595Y-14365167D01*
X12545595Y-14412786D01*
X12536071Y-14450881D01*
X12526548Y-14469928D01*
X12517024Y-14479452D01*
X12497976Y-14488976D01*
X12478928Y-14488976D01*
X12459881Y-14479452D01*
X12450357Y-14469928D01*
X12440833Y-14450881D01*
X12431309Y-14412786D01*
X12431309Y-14365167D01*
X12440833Y-14327071D01*
X12450357Y-14308024D01*
X12459881Y-14298500D01*
X12478928Y-14288976D01*
X12669405Y-14288976D02*
X12688452Y-14288976D01*
X12707500Y-14298500D01*
X12717024Y-14308024D01*
X12726548Y-14327071D01*
X12736071Y-14365167D01*
X12736071Y-14412786D01*
X12726548Y-14450881D01*
X12717024Y-14469928D01*
X12707500Y-14479452D01*
X12688452Y-14488976D01*
X12669405Y-14488976D01*
X12650357Y-14479452D01*
X12640833Y-14469928D01*
X12631309Y-14450881D01*
X12621786Y-14412786D01*
X12621786Y-14365167D01*
X12631309Y-14327071D01*
X12640833Y-14308024D01*
X12650357Y-14298500D01*
X12669405Y-14288976D01*
X12859881Y-14288976D02*
X12878928Y-14288976D01*
X12897976Y-14298500D01*
X12907500Y-14308024D01*
X12917024Y-14327071D01*
X12926548Y-14365167D01*
X12926548Y-14412786D01*
X12917024Y-14450881D01*
X12907500Y-14469928D01*
X12897976Y-14479452D01*
X12878928Y-14488976D01*
X12859881Y-14488976D01*
X12840833Y-14479452D01*
X12831309Y-14469928D01*
X12821786Y-14450881D01*
X12812262Y-14412786D01*
X12812262Y-14365167D01*
X12821786Y-14327071D01*
X12831309Y-14308024D01*
X12840833Y-14298500D01*
X12859881Y-14288976D01*
X13012262Y-14488976D02*
X13012262Y-14355643D01*
X13012262Y-14374690D02*
X13021786Y-14365167D01*
X13040833Y-14355643D01*
X13069405Y-14355643D01*
X13088452Y-14365167D01*
X13097976Y-14384214D01*
X13097976Y-14488976D01*
X13097976Y-14384214D02*
X13107500Y-14365167D01*
X13126548Y-14355643D01*
X13155119Y-14355643D01*
X13174167Y-14365167D01*
X13183690Y-14384214D01*
X13183690Y-14488976D01*
X13278928Y-14488976D02*
X13278928Y-14355643D01*
X13278928Y-14374690D02*
X13288452Y-14365167D01*
X13307500Y-14355643D01*
X13336071Y-14355643D01*
X13355119Y-14365167D01*
X13364643Y-14384214D01*
X13364643Y-14488976D01*
X13364643Y-14384214D02*
X13374167Y-14365167D01*
X13393214Y-14355643D01*
X13421786Y-14355643D01*
X13440833Y-14365167D01*
X13450357Y-14384214D01*
X13450357Y-14488976D01*
X13840833Y-14279452D02*
X13669405Y-14536595D01*
X14097976Y-14288976D02*
X14117024Y-14288976D01*
X14136071Y-14298500D01*
X14145595Y-14308024D01*
X14155119Y-14327071D01*
X14164643Y-14365167D01*
X14164643Y-14412786D01*
X14155119Y-14450881D01*
X14145595Y-14469928D01*
X14136071Y-14479452D01*
X14117024Y-14488976D01*
X14097976Y-14488976D01*
X14078928Y-14479452D01*
X14069405Y-14469928D01*
X14059881Y-14450881D01*
X14050357Y-14412786D01*
X14050357Y-14365167D01*
X14059881Y-14327071D01*
X14069405Y-14308024D01*
X14078928Y-14298500D01*
X14097976Y-14288976D01*
X14250357Y-14469928D02*
X14259881Y-14479452D01*
X14250357Y-14488976D01*
X14240833Y-14479452D01*
X14250357Y-14469928D01*
X14250357Y-14488976D01*
X14383690Y-14288976D02*
X14402738Y-14288976D01*
X14421786Y-14298500D01*
X14431309Y-14308024D01*
X14440833Y-14327071D01*
X14450357Y-14365167D01*
X14450357Y-14412786D01*
X14440833Y-14450881D01*
X14431309Y-14469928D01*
X14421786Y-14479452D01*
X14402738Y-14488976D01*
X14383690Y-14488976D01*
X14364643Y-14479452D01*
X14355119Y-14469928D01*
X14345595Y-14450881D01*
X14336071Y-14412786D01*
X14336071Y-14365167D01*
X14345595Y-14327071D01*
X14355119Y-14308024D01*
X14364643Y-14298500D01*
X14383690Y-14288976D01*
X14517024Y-14288976D02*
X14640833Y-14288976D01*
X14574167Y-14365167D01*
X14602738Y-14365167D01*
X14621786Y-14374690D01*
X14631309Y-14384214D01*
X14640833Y-14403262D01*
X14640833Y-14450881D01*
X14631309Y-14469928D01*
X14621786Y-14479452D01*
X14602738Y-14488976D01*
X14545595Y-14488976D01*
X14526548Y-14479452D01*
X14517024Y-14469928D01*
X14736071Y-14488976D02*
X14774167Y-14488976D01*
X14793214Y-14479452D01*
X14802738Y-14469928D01*
X14821786Y-14441357D01*
X14831309Y-14403262D01*
X14831309Y-14327071D01*
X14821786Y-14308024D01*
X14812262Y-14298500D01*
X14793214Y-14288976D01*
X14755119Y-14288976D01*
X14736071Y-14298500D01*
X14726548Y-14308024D01*
X14717024Y-14327071D01*
X14717024Y-14374690D01*
X14726548Y-14393738D01*
X14736071Y-14403262D01*
X14755119Y-14412786D01*
X14793214Y-14412786D01*
X14812262Y-14403262D01*
X14821786Y-14393738D01*
X14831309Y-14374690D01*
X15002738Y-14355643D02*
X15002738Y-14488976D01*
X14955119Y-14279452D02*
X14907500Y-14422309D01*
X15031309Y-14422309D01*
X15097976Y-14288976D02*
X15097976Y-14327071D01*
X15174167Y-14288976D02*
X15174167Y-14327071D01*
X15469405Y-14565167D02*
X15459881Y-14555643D01*
X15440833Y-14527071D01*
X15431309Y-14508024D01*
X15421786Y-14479452D01*
X15412262Y-14431833D01*
X15412262Y-14393738D01*
X15421786Y-14346119D01*
X15431309Y-14317548D01*
X15440833Y-14298500D01*
X15459881Y-14269928D01*
X15469405Y-14260405D01*
X15640833Y-14288976D02*
X15545595Y-14288976D01*
X15536071Y-14384214D01*
X15545595Y-14374690D01*
X15564643Y-14365167D01*
X15612262Y-14365167D01*
X15631309Y-14374690D01*
X15640833Y-14384214D01*
X15650357Y-14403262D01*
X15650357Y-14450881D01*
X15640833Y-14469928D01*
X15631309Y-14479452D01*
X15612262Y-14488976D01*
X15564643Y-14488976D01*
X15545595Y-14479452D01*
X15536071Y-14469928D01*
X15888452Y-14488976D02*
X15888452Y-14288976D01*
X15974167Y-14488976D02*
X15974167Y-14384214D01*
X15964643Y-14365167D01*
X15945595Y-14355643D01*
X15917024Y-14355643D01*
X15897976Y-14365167D01*
X15888452Y-14374690D01*
X16097976Y-14488976D02*
X16078928Y-14479452D01*
X16069405Y-14469928D01*
X16059881Y-14450881D01*
X16059881Y-14393738D01*
X16069405Y-14374690D01*
X16078928Y-14365167D01*
X16097976Y-14355643D01*
X16126548Y-14355643D01*
X16145595Y-14365167D01*
X16155119Y-14374690D01*
X16164643Y-14393738D01*
X16164643Y-14450881D01*
X16155119Y-14469928D01*
X16145595Y-14479452D01*
X16126548Y-14488976D01*
X16097976Y-14488976D01*
X16278928Y-14488976D02*
X16259881Y-14479452D01*
X16250357Y-14460405D01*
X16250357Y-14288976D01*
X16431309Y-14479452D02*
X16412262Y-14488976D01*
X16374167Y-14488976D01*
X16355119Y-14479452D01*
X16345595Y-14460405D01*
X16345595Y-14384214D01*
X16355119Y-14365167D01*
X16374167Y-14355643D01*
X16412262Y-14355643D01*
X16431309Y-14365167D01*
X16440833Y-14384214D01*
X16440833Y-14403262D01*
X16345595Y-14422309D01*
X16517024Y-14479452D02*
X16536071Y-14488976D01*
X16574167Y-14488976D01*
X16593214Y-14479452D01*
X16602738Y-14460405D01*
X16602738Y-14450881D01*
X16593214Y-14431833D01*
X16574167Y-14422309D01*
X16545595Y-14422309D01*
X16526548Y-14412786D01*
X16517024Y-14393738D01*
X16517024Y-14384214D01*
X16526548Y-14365167D01*
X16545595Y-14355643D01*
X16574167Y-14355643D01*
X16593214Y-14365167D01*
X16669405Y-14565167D02*
X16678928Y-14555643D01*
X16697976Y-14527071D01*
X16707500Y-14508024D01*
X16717024Y-14479452D01*
X16726548Y-14431833D01*
X16726548Y-14393738D01*
X16717024Y-14346119D01*
X16707500Y-14317548D01*
X16697976Y-14298500D01*
X16678928Y-14269928D01*
X16669405Y-14260405D01*
D17*
X11787500Y-14607500D02*
X11897500Y-14717500D01*
X11897500Y-14607500D02*
X11787500Y-14717500D01*
X11897500Y-14662500D02*
G75*
G03*
X11897500Y-14662500I-55000J0D01*
G01*
D11*
X12259881Y-14752976D02*
X12145595Y-14752976D01*
X12202738Y-14752976D02*
X12202738Y-14552976D01*
X12183690Y-14581548D01*
X12164643Y-14600595D01*
X12145595Y-14610119D01*
X12345595Y-14733928D02*
X12355119Y-14743452D01*
X12345595Y-14752976D01*
X12336071Y-14743452D01*
X12345595Y-14733928D01*
X12345595Y-14752976D01*
X12545595Y-14752976D02*
X12431309Y-14752976D01*
X12488452Y-14752976D02*
X12488452Y-14552976D01*
X12469405Y-14581548D01*
X12450357Y-14600595D01*
X12431309Y-14610119D01*
X12669405Y-14552976D02*
X12688452Y-14552976D01*
X12707500Y-14562500D01*
X12717024Y-14572024D01*
X12726548Y-14591071D01*
X12736071Y-14629167D01*
X12736071Y-14676786D01*
X12726548Y-14714881D01*
X12717024Y-14733928D01*
X12707500Y-14743452D01*
X12688452Y-14752976D01*
X12669405Y-14752976D01*
X12650357Y-14743452D01*
X12640833Y-14733928D01*
X12631309Y-14714881D01*
X12621786Y-14676786D01*
X12621786Y-14629167D01*
X12631309Y-14591071D01*
X12640833Y-14572024D01*
X12650357Y-14562500D01*
X12669405Y-14552976D01*
X12859881Y-14552976D02*
X12878928Y-14552976D01*
X12897976Y-14562500D01*
X12907500Y-14572024D01*
X12917024Y-14591071D01*
X12926548Y-14629167D01*
X12926548Y-14676786D01*
X12917024Y-14714881D01*
X12907500Y-14733928D01*
X12897976Y-14743452D01*
X12878928Y-14752976D01*
X12859881Y-14752976D01*
X12840833Y-14743452D01*
X12831309Y-14733928D01*
X12821786Y-14714881D01*
X12812262Y-14676786D01*
X12812262Y-14629167D01*
X12821786Y-14591071D01*
X12831309Y-14572024D01*
X12840833Y-14562500D01*
X12859881Y-14552976D01*
X13012262Y-14752976D02*
X13012262Y-14619643D01*
X13012262Y-14638690D02*
X13021786Y-14629167D01*
X13040833Y-14619643D01*
X13069405Y-14619643D01*
X13088452Y-14629167D01*
X13097976Y-14648214D01*
X13097976Y-14752976D01*
X13097976Y-14648214D02*
X13107500Y-14629167D01*
X13126548Y-14619643D01*
X13155119Y-14619643D01*
X13174167Y-14629167D01*
X13183690Y-14648214D01*
X13183690Y-14752976D01*
X13278928Y-14752976D02*
X13278928Y-14619643D01*
X13278928Y-14638690D02*
X13288452Y-14629167D01*
X13307500Y-14619643D01*
X13336071Y-14619643D01*
X13355119Y-14629167D01*
X13364643Y-14648214D01*
X13364643Y-14752976D01*
X13364643Y-14648214D02*
X13374167Y-14629167D01*
X13393214Y-14619643D01*
X13421786Y-14619643D01*
X13440833Y-14629167D01*
X13450357Y-14648214D01*
X13450357Y-14752976D01*
X13840833Y-14543452D02*
X13669405Y-14800595D01*
X14097976Y-14552976D02*
X14117024Y-14552976D01*
X14136071Y-14562500D01*
X14145595Y-14572024D01*
X14155119Y-14591071D01*
X14164643Y-14629167D01*
X14164643Y-14676786D01*
X14155119Y-14714881D01*
X14145595Y-14733928D01*
X14136071Y-14743452D01*
X14117024Y-14752976D01*
X14097976Y-14752976D01*
X14078928Y-14743452D01*
X14069405Y-14733928D01*
X14059881Y-14714881D01*
X14050357Y-14676786D01*
X14050357Y-14629167D01*
X14059881Y-14591071D01*
X14069405Y-14572024D01*
X14078928Y-14562500D01*
X14097976Y-14552976D01*
X14250357Y-14733928D02*
X14259881Y-14743452D01*
X14250357Y-14752976D01*
X14240833Y-14743452D01*
X14250357Y-14733928D01*
X14250357Y-14752976D01*
X14383690Y-14552976D02*
X14402738Y-14552976D01*
X14421786Y-14562500D01*
X14431309Y-14572024D01*
X14440833Y-14591071D01*
X14450357Y-14629167D01*
X14450357Y-14676786D01*
X14440833Y-14714881D01*
X14431309Y-14733928D01*
X14421786Y-14743452D01*
X14402738Y-14752976D01*
X14383690Y-14752976D01*
X14364643Y-14743452D01*
X14355119Y-14733928D01*
X14345595Y-14714881D01*
X14336071Y-14676786D01*
X14336071Y-14629167D01*
X14345595Y-14591071D01*
X14355119Y-14572024D01*
X14364643Y-14562500D01*
X14383690Y-14552976D01*
X14621786Y-14619643D02*
X14621786Y-14752976D01*
X14574167Y-14543452D02*
X14526548Y-14686309D01*
X14650357Y-14686309D01*
X14707500Y-14552976D02*
X14831309Y-14552976D01*
X14764643Y-14629167D01*
X14793214Y-14629167D01*
X14812262Y-14638690D01*
X14821786Y-14648214D01*
X14831309Y-14667262D01*
X14831309Y-14714881D01*
X14821786Y-14733928D01*
X14812262Y-14743452D01*
X14793214Y-14752976D01*
X14736071Y-14752976D01*
X14717024Y-14743452D01*
X14707500Y-14733928D01*
X14897976Y-14552976D02*
X15021786Y-14552976D01*
X14955119Y-14629167D01*
X14983690Y-14629167D01*
X15002738Y-14638690D01*
X15012262Y-14648214D01*
X15021786Y-14667262D01*
X15021786Y-14714881D01*
X15012262Y-14733928D01*
X15002738Y-14743452D01*
X14983690Y-14752976D01*
X14926548Y-14752976D01*
X14907500Y-14743452D01*
X14897976Y-14733928D01*
X15097976Y-14552976D02*
X15097976Y-14591071D01*
X15174167Y-14552976D02*
X15174167Y-14591071D01*
X15469405Y-14829167D02*
X15459881Y-14819643D01*
X15440833Y-14791071D01*
X15431309Y-14772024D01*
X15421786Y-14743452D01*
X15412262Y-14695833D01*
X15412262Y-14657738D01*
X15421786Y-14610119D01*
X15431309Y-14581548D01*
X15440833Y-14562500D01*
X15459881Y-14533928D01*
X15469405Y-14524405D01*
X15526548Y-14552976D02*
X15650357Y-14552976D01*
X15583690Y-14629167D01*
X15612262Y-14629167D01*
X15631309Y-14638690D01*
X15640833Y-14648214D01*
X15650357Y-14667262D01*
X15650357Y-14714881D01*
X15640833Y-14733928D01*
X15631309Y-14743452D01*
X15612262Y-14752976D01*
X15555119Y-14752976D01*
X15536071Y-14743452D01*
X15526548Y-14733928D01*
X15821786Y-14552976D02*
X15783690Y-14552976D01*
X15764643Y-14562500D01*
X15755119Y-14572024D01*
X15736071Y-14600595D01*
X15726548Y-14638690D01*
X15726548Y-14714881D01*
X15736071Y-14733928D01*
X15745595Y-14743452D01*
X15764643Y-14752976D01*
X15802738Y-14752976D01*
X15821786Y-14743452D01*
X15831309Y-14733928D01*
X15840833Y-14714881D01*
X15840833Y-14667262D01*
X15831309Y-14648214D01*
X15821786Y-14638690D01*
X15802738Y-14629167D01*
X15764643Y-14629167D01*
X15745595Y-14638690D01*
X15736071Y-14648214D01*
X15726548Y-14667262D01*
X16078928Y-14752976D02*
X16078928Y-14552976D01*
X16164643Y-14752976D02*
X16164643Y-14648214D01*
X16155119Y-14629167D01*
X16136071Y-14619643D01*
X16107500Y-14619643D01*
X16088452Y-14629167D01*
X16078928Y-14638690D01*
X16288452Y-14752976D02*
X16269405Y-14743452D01*
X16259881Y-14733928D01*
X16250357Y-14714881D01*
X16250357Y-14657738D01*
X16259881Y-14638690D01*
X16269405Y-14629167D01*
X16288452Y-14619643D01*
X16317024Y-14619643D01*
X16336071Y-14629167D01*
X16345595Y-14638690D01*
X16355119Y-14657738D01*
X16355119Y-14714881D01*
X16345595Y-14733928D01*
X16336071Y-14743452D01*
X16317024Y-14752976D01*
X16288452Y-14752976D01*
X16469405Y-14752976D02*
X16450357Y-14743452D01*
X16440833Y-14724405D01*
X16440833Y-14552976D01*
X16621786Y-14743452D02*
X16602738Y-14752976D01*
X16564643Y-14752976D01*
X16545595Y-14743452D01*
X16536071Y-14724405D01*
X16536071Y-14648214D01*
X16545595Y-14629167D01*
X16564643Y-14619643D01*
X16602738Y-14619643D01*
X16621786Y-14629167D01*
X16631309Y-14648214D01*
X16631309Y-14667262D01*
X16536071Y-14686309D01*
X16707500Y-14743452D02*
X16726548Y-14752976D01*
X16764643Y-14752976D01*
X16783690Y-14743452D01*
X16793214Y-14724405D01*
X16793214Y-14714881D01*
X16783690Y-14695833D01*
X16764643Y-14686309D01*
X16736071Y-14686309D01*
X16717024Y-14676786D01*
X16707500Y-14657738D01*
X16707500Y-14648214D01*
X16717024Y-14629167D01*
X16736071Y-14619643D01*
X16764643Y-14619643D01*
X16783690Y-14629167D01*
X16859881Y-14829167D02*
X16869405Y-14819643D01*
X16888452Y-14791071D01*
X16897976Y-14772024D01*
X16907500Y-14743452D01*
X16917024Y-14695833D01*
X16917024Y-14657738D01*
X16907500Y-14610119D01*
X16897976Y-14581548D01*
X16888452Y-14562500D01*
X16869405Y-14533928D01*
X16859881Y-14524405D01*
M02*
