M48
; DRILL file {KiCad (6.0.0)} date Sun May  1 20:50:55 2022
; FORMAT={-:-/ absolute / metric / decimal}
; #@! TF.CreationDate,2022-05-01T20:50:55-06:00
; #@! TF.GenerationSoftware,Kicad,Pcbnew,(6.0.0)
; #@! TF.FileFunction,Plated,1,4,PTH
FMAT,2
METRIC
; #@! TA.AperFunction,Plated,PTH,ViaDrill
T1C0.300
; #@! TA.AperFunction,Plated,PTH,ComponentDrill
T2C0.500
; #@! TA.AperFunction,Plated,PTH,ComponentDrill
T3C0.550
; #@! TA.AperFunction,Plated,PTH,ComponentDrill
T4C0.730
; #@! TA.AperFunction,Plated,PTH,ComponentDrill
T5C1.000
; #@! TA.AperFunction,Plated,PTH,ComponentDrill
T6C1.100
%
G90
G05
T1
X120.85Y-103.55
X122.0Y-105.5
X122.712Y-104.387
X123.4Y-110.0
X124.5Y-97.1
X126.2Y-108.4
X126.4Y-106.625
X127.15Y-115.05
X127.6Y-104.1
X127.715Y-108.915
X128.4Y-113.3
X128.8Y-106.0
X131.6Y-107.3
X131.7Y-110.6
X133.02Y-105.12
X133.2Y-108.3
X133.6Y-111.3
X133.98Y-105.18
X135.4Y-116.1
X136.3Y-101.2
X136.5Y-117.0
X137.167Y-109.008
X137.197Y-106.597
X137.38Y-105.624
X137.8Y-96.3
X138.1Y-118.7
X138.4Y-105.1
X138.94Y-95.26
X139.492Y-117.75
X140.4Y-104.6
X141.0Y-113.0
X141.3Y-120.0
X141.4Y-104.5
X141.9Y-122.8
X142.0Y-113.3
X142.3Y-106.1
X145.403Y-109.097
X146.3Y-117.5
X146.4Y-115.9
X146.5Y-120.3
X146.8Y-98.3
X147.3Y-94.0
X147.35Y-120.65
X150.1Y-108.1
T4
X129.7Y-96.95
X131.2Y-96.95
X132.7Y-96.95
X136.5Y-122.1
X138.0Y-122.1
X139.5Y-122.1
X141.2Y-96.95
X142.7Y-96.95
X144.2Y-96.95
T5
X122.225Y-124.7
X124.765Y-124.7
X127.305Y-124.7
X129.845Y-124.7
X132.385Y-124.7
T6
X152.047Y-93.49
X152.047Y-96.03
X152.047Y-98.57
X152.047Y-101.11
X152.047Y-105.69
X152.047Y-108.23
X152.047Y-110.77
X152.047Y-113.31
X152.047Y-117.89
X152.047Y-120.43
X152.047Y-122.97
X152.047Y-125.51
X154.588Y-93.49
X154.588Y-96.03
X154.588Y-98.57
X154.588Y-101.11
X154.588Y-105.69
X154.588Y-108.23
X154.588Y-110.77
X154.588Y-113.31
X154.588Y-117.89
X154.588Y-120.43
X154.588Y-122.97
X154.588Y-125.51
X157.127Y-93.49
X157.127Y-96.03
X157.127Y-98.57
X157.127Y-101.11
X157.127Y-105.69
X157.127Y-108.23
X157.127Y-110.77
X157.127Y-113.31
X157.127Y-117.89
X157.127Y-120.43
X157.127Y-122.97
X157.127Y-125.51
T2
X122.01Y-114.7G85X121.36Y-114.7
G05
X122.01Y-121.7G85X121.36Y-121.7
G05
T3
X124.385Y-115.55G85X124.385Y-115.85
G05
X124.385Y-120.55G85X124.385Y-120.85
G05
T0
M30
