G04 #@! TF.GenerationSoftware,KiCad,Pcbnew,(6.0.0)*
G04 #@! TF.CreationDate,2022-05-01T20:50:51-06:00*
G04 #@! TF.ProjectId,RX12G,52583132-472e-46b6-9963-61645f706362,rev?*
G04 #@! TF.SameCoordinates,Original*
G04 #@! TF.FileFunction,Copper,L1,Top*
G04 #@! TF.FilePolarity,Positive*
%FSLAX46Y46*%
G04 Gerber Fmt 4.6, Leading zero omitted, Abs format (unit mm)*
G04 Created by KiCad (PCBNEW (6.0.0)) date 2022-05-01 20:50:51*
%MOMM*%
%LPD*%
G01*
G04 APERTURE LIST*
G04 Aperture macros list*
%AMRoundRect*
0 Rectangle with rounded corners*
0 $1 Rounding radius*
0 $2 $3 $4 $5 $6 $7 $8 $9 X,Y pos of 4 corners*
0 Add a 4 corners polygon primitive as box body*
4,1,4,$2,$3,$4,$5,$6,$7,$8,$9,$2,$3,0*
0 Add four circle primitives for the rounded corners*
1,1,$1+$1,$2,$3*
1,1,$1+$1,$4,$5*
1,1,$1+$1,$6,$7*
1,1,$1+$1,$8,$9*
0 Add four rect primitives between the rounded corners*
20,1,$1+$1,$2,$3,$4,$5,0*
20,1,$1+$1,$4,$5,$6,$7,0*
20,1,$1+$1,$6,$7,$8,$9,0*
20,1,$1+$1,$8,$9,$2,$3,0*%
G04 Aperture macros list end*
G04 #@! TA.AperFunction,SMDPad,CuDef*
%ADD10R,1.200000X0.600000*%
G04 #@! TD*
G04 #@! TA.AperFunction,ComponentPad*
%ADD11RoundRect,0.250000X-0.265000X-0.615000X0.265000X-0.615000X0.265000X0.615000X-0.265000X0.615000X0*%
G04 #@! TD*
G04 #@! TA.AperFunction,ComponentPad*
%ADD12O,1.030000X1.730000*%
G04 #@! TD*
G04 #@! TA.AperFunction,SMDPad,CuDef*
%ADD13RoundRect,0.218750X0.256250X-0.218750X0.256250X0.218750X-0.256250X0.218750X-0.256250X-0.218750X0*%
G04 #@! TD*
G04 #@! TA.AperFunction,SMDPad,CuDef*
%ADD14R,0.576580X0.351536*%
G04 #@! TD*
G04 #@! TA.AperFunction,SMDPad,CuDef*
%ADD15R,0.351536X0.576580*%
G04 #@! TD*
G04 #@! TA.AperFunction,SMDPad,CuDef*
%ADD16RoundRect,0.200000X0.275000X-0.200000X0.275000X0.200000X-0.275000X0.200000X-0.275000X-0.200000X0*%
G04 #@! TD*
G04 #@! TA.AperFunction,SMDPad,CuDef*
%ADD17RoundRect,0.200000X0.200000X0.275000X-0.200000X0.275000X-0.200000X-0.275000X0.200000X-0.275000X0*%
G04 #@! TD*
G04 #@! TA.AperFunction,SMDPad,CuDef*
%ADD18RoundRect,0.200000X-0.275000X0.200000X-0.275000X-0.200000X0.275000X-0.200000X0.275000X0.200000X0*%
G04 #@! TD*
G04 #@! TA.AperFunction,ComponentPad*
%ADD19R,1.650000X1.650000*%
G04 #@! TD*
G04 #@! TA.AperFunction,ComponentPad*
%ADD20C,1.650000*%
G04 #@! TD*
G04 #@! TA.AperFunction,SMDPad,CuDef*
%ADD21R,0.600000X1.300000*%
G04 #@! TD*
G04 #@! TA.AperFunction,SMDPad,CuDef*
%ADD22RoundRect,0.218750X-0.256250X0.218750X-0.256250X-0.218750X0.256250X-0.218750X0.256250X0.218750X0*%
G04 #@! TD*
G04 #@! TA.AperFunction,SMDPad,CuDef*
%ADD23RoundRect,0.200000X-0.200000X-0.275000X0.200000X-0.275000X0.200000X0.275000X-0.200000X0.275000X0*%
G04 #@! TD*
G04 #@! TA.AperFunction,SMDPad,CuDef*
%ADD24RoundRect,0.140000X0.170000X-0.140000X0.170000X0.140000X-0.170000X0.140000X-0.170000X-0.140000X0*%
G04 #@! TD*
G04 #@! TA.AperFunction,SMDPad,CuDef*
%ADD25R,1.200000X1.400000*%
G04 #@! TD*
G04 #@! TA.AperFunction,ComponentPad*
%ADD26RoundRect,0.250000X0.265000X0.615000X-0.265000X0.615000X-0.265000X-0.615000X0.265000X-0.615000X0*%
G04 #@! TD*
G04 #@! TA.AperFunction,SMDPad,CuDef*
%ADD27R,0.279400X1.346200*%
G04 #@! TD*
G04 #@! TA.AperFunction,SMDPad,CuDef*
%ADD28R,1.346200X0.279400*%
G04 #@! TD*
G04 #@! TA.AperFunction,SMDPad,CuDef*
%ADD29R,0.900000X1.200000*%
G04 #@! TD*
G04 #@! TA.AperFunction,SMDPad,CuDef*
%ADD30RoundRect,0.225000X-0.250000X0.225000X-0.250000X-0.225000X0.250000X-0.225000X0.250000X0.225000X0*%
G04 #@! TD*
G04 #@! TA.AperFunction,SMDPad,CuDef*
%ADD31R,1.350000X0.400000*%
G04 #@! TD*
G04 #@! TA.AperFunction,ComponentPad*
%ADD32O,0.950000X1.250000*%
G04 #@! TD*
G04 #@! TA.AperFunction,SMDPad,CuDef*
%ADD33R,1.550000X1.500000*%
G04 #@! TD*
G04 #@! TA.AperFunction,ComponentPad*
%ADD34O,1.550000X0.890000*%
G04 #@! TD*
G04 #@! TA.AperFunction,SMDPad,CuDef*
%ADD35R,1.550000X1.200000*%
G04 #@! TD*
G04 #@! TA.AperFunction,SMDPad,CuDef*
%ADD36RoundRect,0.225000X-0.225000X-0.250000X0.225000X-0.250000X0.225000X0.250000X-0.225000X0.250000X0*%
G04 #@! TD*
G04 #@! TA.AperFunction,SMDPad,CuDef*
%ADD37RoundRect,0.140000X0.140000X0.170000X-0.140000X0.170000X-0.140000X-0.170000X0.140000X-0.170000X0*%
G04 #@! TD*
G04 #@! TA.AperFunction,SMDPad,CuDef*
%ADD38R,1.000000X1.550000*%
G04 #@! TD*
G04 #@! TA.AperFunction,SMDPad,CuDef*
%ADD39RoundRect,0.140000X-0.170000X0.140000X-0.170000X-0.140000X0.170000X-0.140000X0.170000X0.140000X0*%
G04 #@! TD*
G04 #@! TA.AperFunction,ComponentPad*
%ADD40R,1.700000X1.700000*%
G04 #@! TD*
G04 #@! TA.AperFunction,ComponentPad*
%ADD41O,1.700000X1.700000*%
G04 #@! TD*
G04 #@! TA.AperFunction,SMDPad,CuDef*
%ADD42RoundRect,0.140000X-0.140000X-0.170000X0.140000X-0.170000X0.140000X0.170000X-0.140000X0.170000X0*%
G04 #@! TD*
G04 #@! TA.AperFunction,ViaPad*
%ADD43C,0.600000*%
G04 #@! TD*
G04 #@! TA.AperFunction,Conductor*
%ADD44C,0.250000*%
G04 #@! TD*
G04 #@! TA.AperFunction,Conductor*
%ADD45C,0.400000*%
G04 #@! TD*
G04 #@! TA.AperFunction,Conductor*
%ADD46C,1.000000*%
G04 #@! TD*
G04 APERTURE END LIST*
D10*
X123350000Y-108250000D03*
X123350000Y-106350000D03*
X120850000Y-107300000D03*
D11*
X136500000Y-122100000D03*
D12*
X138000000Y-122100000D03*
X139500000Y-122100000D03*
D13*
X123900000Y-104387500D03*
X123900000Y-102812500D03*
D14*
X131145300Y-109915001D03*
X131145300Y-109415000D03*
X131145300Y-108915000D03*
X131145300Y-108414999D03*
D15*
X130434999Y-108208700D03*
X129935000Y-108208700D03*
X129435001Y-108208700D03*
D14*
X128724700Y-108414999D03*
X128724700Y-108915000D03*
X128724700Y-109415000D03*
X128724700Y-109915001D03*
D15*
X129435001Y-110121300D03*
X129935000Y-110121300D03*
X130434999Y-110121300D03*
D16*
X131100000Y-113325000D03*
X131100000Y-111675000D03*
X137800000Y-98725000D03*
X137800000Y-97075000D03*
D13*
X128900000Y-104387500D03*
X128900000Y-102812500D03*
D17*
X131425000Y-99700000D03*
X129775000Y-99700000D03*
D18*
X144600000Y-122775000D03*
X144600000Y-124425000D03*
D19*
X152047500Y-105690000D03*
D20*
X154587500Y-105690000D03*
X157127500Y-105690000D03*
X152047500Y-108230000D03*
X154587500Y-108230000D03*
X157127500Y-108230000D03*
X152047500Y-110770000D03*
X154587500Y-110770000D03*
X157127500Y-110770000D03*
X152047500Y-113310000D03*
X154587500Y-113310000D03*
X157127500Y-113310000D03*
D21*
X136050000Y-95260000D03*
X137950000Y-95260000D03*
X137000000Y-93160000D03*
D22*
X126700000Y-95582500D03*
X126700000Y-97157500D03*
D23*
X128075000Y-115050000D03*
X129725000Y-115050000D03*
D16*
X135900000Y-98725000D03*
X135900000Y-97075000D03*
D23*
X142375000Y-99700000D03*
X144025000Y-99700000D03*
D24*
X134100000Y-109780000D03*
X134100000Y-108820000D03*
D23*
X128050000Y-116675000D03*
X129700000Y-116675000D03*
D25*
X144850000Y-119400000D03*
X144850000Y-117200000D03*
X142950000Y-117200000D03*
X142950000Y-119400000D03*
D26*
X144200000Y-96950000D03*
D12*
X142700000Y-96950000D03*
X141200000Y-96950000D03*
D27*
X145297500Y-103170600D03*
X144797501Y-103170600D03*
X144297500Y-103170600D03*
X143797501Y-103170600D03*
X143297499Y-103170600D03*
X142797500Y-103170600D03*
X142297501Y-103170600D03*
X141797500Y-103170600D03*
X141297500Y-103170600D03*
X140797499Y-103170600D03*
X140297500Y-103170600D03*
X139797501Y-103170600D03*
X139297499Y-103170600D03*
X138797500Y-103170600D03*
X138297499Y-103170600D03*
X137797500Y-103170600D03*
D28*
X135870600Y-105097500D03*
X135870600Y-105597499D03*
X135870600Y-106097500D03*
X135870600Y-106597499D03*
X135870600Y-107097501D03*
X135870600Y-107597500D03*
X135870600Y-108097499D03*
X135870600Y-108597500D03*
X135870600Y-109097500D03*
X135870600Y-109597501D03*
X135870600Y-110097500D03*
X135870600Y-110597499D03*
X135870600Y-111097501D03*
X135870600Y-111597500D03*
X135870600Y-112097501D03*
X135870600Y-112597500D03*
D27*
X137797500Y-114524400D03*
X138297499Y-114524400D03*
X138797500Y-114524400D03*
X139297499Y-114524400D03*
X139797501Y-114524400D03*
X140297500Y-114524400D03*
X140797499Y-114524400D03*
X141297500Y-114524400D03*
X141797500Y-114524400D03*
X142297501Y-114524400D03*
X142797500Y-114524400D03*
X143297499Y-114524400D03*
X143797501Y-114524400D03*
X144297500Y-114524400D03*
X144797501Y-114524400D03*
X145297500Y-114524400D03*
D28*
X147224400Y-112597500D03*
X147224400Y-112097501D03*
X147224400Y-111597500D03*
X147224400Y-111097501D03*
X147224400Y-110597499D03*
X147224400Y-110097500D03*
X147224400Y-109597501D03*
X147224400Y-109097500D03*
X147224400Y-108597500D03*
X147224400Y-108097499D03*
X147224400Y-107597500D03*
X147224400Y-107097501D03*
X147224400Y-106597499D03*
X147224400Y-106097500D03*
X147224400Y-105597499D03*
X147224400Y-105097500D03*
D29*
X120650000Y-112400000D03*
X123950000Y-112400000D03*
D24*
X146500000Y-119480000D03*
X146500000Y-118520000D03*
D19*
X152047500Y-93490000D03*
D20*
X154587500Y-93490000D03*
X157127500Y-93490000D03*
X152047500Y-96030000D03*
X154587500Y-96030000D03*
X157127500Y-96030000D03*
X152047500Y-98570000D03*
X154587500Y-98570000D03*
X157127500Y-98570000D03*
X152047500Y-101110000D03*
X154587500Y-101110000D03*
X157127500Y-101110000D03*
D30*
X125100000Y-106625000D03*
X125100000Y-108175000D03*
D31*
X124385000Y-116900000D03*
X124385000Y-117550000D03*
X124385000Y-118200000D03*
X124385000Y-118850000D03*
X124385000Y-119500000D03*
D32*
X124385000Y-115700000D03*
X124385000Y-120700000D03*
D33*
X121685000Y-117200000D03*
D34*
X121685000Y-114700000D03*
D35*
X121685000Y-115300000D03*
D34*
X121685000Y-121700000D03*
D33*
X121685000Y-119200000D03*
D35*
X121685000Y-121100000D03*
D36*
X120725000Y-110000000D03*
X122275000Y-110000000D03*
D37*
X130680000Y-106800000D03*
X129720000Y-106800000D03*
D38*
X121300000Y-99625000D03*
X121300000Y-94375000D03*
X124500000Y-99625000D03*
X124500000Y-94375000D03*
D16*
X129500000Y-113325000D03*
X129500000Y-111675000D03*
D39*
X149100000Y-108220000D03*
X149100000Y-109180000D03*
D19*
X152047500Y-117890000D03*
D20*
X154587500Y-117890000D03*
X157127500Y-117890000D03*
X152047500Y-120430000D03*
X154587500Y-120430000D03*
X157127500Y-120430000D03*
X152047500Y-122970000D03*
X154587500Y-122970000D03*
X157127500Y-122970000D03*
X152047500Y-125510000D03*
X154587500Y-125510000D03*
X157127500Y-125510000D03*
D26*
X132700000Y-96950000D03*
D12*
X131200000Y-96950000D03*
X129700000Y-96950000D03*
D37*
X137280000Y-116100000D03*
X136320000Y-116100000D03*
D17*
X128425000Y-121900000D03*
X126775000Y-121900000D03*
D22*
X142900000Y-122812500D03*
X142900000Y-124387500D03*
D40*
X122225000Y-124700000D03*
D41*
X124765000Y-124700000D03*
X127305000Y-124700000D03*
X129845000Y-124700000D03*
X132385000Y-124700000D03*
D37*
X133980000Y-105950000D03*
X133020000Y-105950000D03*
D42*
X140820000Y-101300000D03*
X141780000Y-101300000D03*
D16*
X125550000Y-104425000D03*
X125550000Y-102775000D03*
D42*
X127520000Y-106800000D03*
X128480000Y-106800000D03*
D16*
X130500000Y-104425000D03*
X130500000Y-102775000D03*
D22*
X147300000Y-95412500D03*
X147300000Y-96987500D03*
D39*
X140300000Y-116920000D03*
X140300000Y-117880000D03*
D43*
X126400000Y-106625000D03*
X146500000Y-120300000D03*
X137167267Y-109008125D03*
X136500000Y-117000000D03*
X122000000Y-105500000D03*
X139492203Y-117749553D03*
X150100000Y-108100000D03*
X133980000Y-105180000D03*
X131600000Y-107300000D03*
X140400000Y-104600000D03*
X128400000Y-113300000D03*
X133200000Y-108300000D03*
X147350000Y-120650000D03*
X141400000Y-104500000D03*
X135400000Y-116100000D03*
X123400000Y-110000000D03*
X141900000Y-122800000D03*
X138940000Y-95260000D03*
X142000000Y-113300000D03*
X124500000Y-97100000D03*
X127150000Y-115050000D03*
X147300000Y-94000000D03*
X137800000Y-96300000D03*
X146400000Y-115900000D03*
X133020000Y-105120000D03*
X126200000Y-108400000D03*
X145402500Y-109097500D03*
X131700000Y-110600000D03*
X127600000Y-104100000D03*
X128800000Y-106000000D03*
X141300000Y-120000000D03*
X146300000Y-117500000D03*
X122712500Y-104387500D03*
X137197499Y-106597499D03*
X120850000Y-103550000D03*
X142300000Y-106100000D03*
X138100000Y-118700000D03*
X137380400Y-105624500D03*
X138400000Y-105100000D03*
X146800000Y-98300000D03*
X136300000Y-101200000D03*
X141000000Y-113000000D03*
X127715000Y-108915000D03*
X133600000Y-111300000D03*
D44*
X143900000Y-119400000D02*
X144850000Y-119400000D01*
X149980000Y-108220000D02*
X150100000Y-108100000D01*
X137280000Y-116720000D02*
X137280000Y-116100000D01*
D45*
X123350000Y-106350000D02*
X124825000Y-106350000D01*
D44*
X140297500Y-114524400D02*
X140297500Y-116917500D01*
X140121756Y-117120000D02*
X139492203Y-117749553D01*
X140797499Y-104202501D02*
X140400000Y-104600000D01*
X127520000Y-107620000D02*
X128314999Y-108414999D01*
X142950000Y-119400000D02*
X143900000Y-119400000D01*
X148822500Y-108597500D02*
X149000000Y-108420000D01*
X129435001Y-110121300D02*
X129435001Y-109708219D01*
D45*
X125100000Y-106625000D02*
X127345000Y-106625000D01*
X122850000Y-106350000D02*
X122000000Y-105500000D01*
D44*
X130434999Y-108208700D02*
X130434999Y-107045001D01*
X147224400Y-108597500D02*
X148822500Y-108597500D01*
X136500000Y-117000000D02*
X137000000Y-117000000D01*
X134127500Y-106097500D02*
X135870600Y-106097500D01*
X129435001Y-109708219D02*
X130434999Y-108708221D01*
X126365000Y-123100000D02*
X127225000Y-123100000D01*
X129500000Y-113325000D02*
X131100000Y-113325000D01*
X131100000Y-106800000D02*
X131600000Y-107300000D01*
X124765000Y-124700000D02*
X126365000Y-123100000D01*
X135870600Y-109597501D02*
X134282499Y-109597501D01*
X137000000Y-117000000D02*
X137280000Y-116720000D01*
X133980000Y-105950000D02*
X133980000Y-105180000D01*
X133980000Y-105950000D02*
X134127500Y-106097500D01*
X140797499Y-103170600D02*
X140797499Y-104202501D01*
X134282499Y-109597501D02*
X134100000Y-109780000D01*
X127520000Y-106800000D02*
X127520000Y-107620000D01*
X138797500Y-115447500D02*
X138797500Y-114524400D01*
D45*
X125087500Y-106612500D02*
X125100000Y-106625000D01*
D44*
X128425000Y-113325000D02*
X128400000Y-113300000D01*
X135870600Y-109597501D02*
X136577891Y-109597501D01*
X130680000Y-106800000D02*
X131100000Y-106800000D01*
X138145000Y-116100000D02*
X138797500Y-115447500D01*
X140797499Y-103170600D02*
X140797499Y-101322501D01*
X146420000Y-119400000D02*
X146500000Y-119480000D01*
X127225000Y-123100000D02*
X128425000Y-121900000D01*
X130434999Y-108708221D02*
X130434999Y-108208700D01*
X130434999Y-107045001D02*
X130680000Y-106800000D01*
X128314999Y-108414999D02*
X128724700Y-108414999D01*
X129500000Y-113325000D02*
X128425000Y-113325000D01*
X136577891Y-109597501D02*
X137167267Y-109008125D01*
D45*
X127345000Y-106625000D02*
X127520000Y-106800000D01*
X123350000Y-106350000D02*
X122850000Y-106350000D01*
D44*
X140500000Y-117120000D02*
X140121756Y-117120000D01*
X146500000Y-119480000D02*
X146500000Y-120300000D01*
X137280000Y-116100000D02*
X138145000Y-116100000D01*
X144850000Y-119400000D02*
X146420000Y-119400000D01*
X140297500Y-116917500D02*
X140500000Y-117120000D01*
D45*
X124825000Y-106350000D02*
X125087500Y-106612500D01*
D44*
X149100000Y-108220000D02*
X149980000Y-108220000D01*
X140797499Y-101322501D02*
X140820000Y-101300000D01*
X147300000Y-95325000D02*
X147300000Y-94000000D01*
D45*
X140920000Y-117880000D02*
X140300000Y-117880000D01*
D44*
X145150000Y-117500000D02*
X144850000Y-117200000D01*
X141297500Y-104397500D02*
X141400000Y-104500000D01*
X126700000Y-95200000D02*
X126700000Y-95582500D01*
X124500000Y-97100000D02*
X124500000Y-94375000D01*
X129435001Y-107664999D02*
X129435001Y-108208700D01*
X122275000Y-110000000D02*
X123400000Y-110000000D01*
X144797501Y-114524400D02*
X145297500Y-114524400D01*
D45*
X146900000Y-121100000D02*
X142400000Y-121100000D01*
D44*
X134377500Y-109097500D02*
X134100000Y-108820000D01*
X147224400Y-109097500D02*
X149017500Y-109097500D01*
X141297500Y-103170600D02*
X141297500Y-101782500D01*
D45*
X147500000Y-120500000D02*
X147350000Y-120650000D01*
D44*
X144797501Y-115802499D02*
X144700000Y-115900000D01*
X135870600Y-109097500D02*
X134377500Y-109097500D01*
X125100000Y-108175000D02*
X125975000Y-108175000D01*
D46*
X157127500Y-93490000D02*
X157127500Y-125510000D01*
D44*
X137800000Y-97075000D02*
X137800000Y-96300000D01*
X137800000Y-96300000D02*
X137800000Y-95410000D01*
X141297500Y-103170600D02*
X141297500Y-104397500D01*
X131145300Y-109915001D02*
X131145300Y-110145300D01*
D45*
X141300000Y-120000000D02*
X141300000Y-116900000D01*
D44*
X133020000Y-105950000D02*
X133020000Y-105120000D01*
X121685000Y-119215000D02*
X121685000Y-121100000D01*
X131145300Y-110145300D02*
X131600000Y-110600000D01*
X122275000Y-110000000D02*
X122275000Y-109325000D01*
X129720000Y-106800000D02*
X129720000Y-107380000D01*
D45*
X142400000Y-121100000D02*
X141300000Y-120000000D01*
X144700000Y-115900000D02*
X144850000Y-116050000D01*
D44*
X135870600Y-106597499D02*
X137197499Y-106597499D01*
X146500000Y-118520000D02*
X146500000Y-117700000D01*
X131600000Y-110600000D02*
X131700000Y-110600000D01*
X137800000Y-95410000D02*
X137950000Y-95260000D01*
X133720000Y-108820000D02*
X133200000Y-108300000D01*
X125975000Y-108175000D02*
X126200000Y-108400000D01*
X149017500Y-109097500D02*
X149100000Y-109180000D01*
D45*
X141300000Y-117500000D02*
X140920000Y-117880000D01*
D44*
X144797501Y-114524400D02*
X144797501Y-115802499D01*
X128480000Y-106320000D02*
X128800000Y-106000000D01*
D45*
X146400000Y-115900000D02*
X142100000Y-115900000D01*
D44*
X128900000Y-104387500D02*
X127887500Y-104387500D01*
X129720000Y-107380000D02*
X129435001Y-107664999D01*
D45*
X147350000Y-120650000D02*
X146900000Y-121100000D01*
X144850000Y-116050000D02*
X144850000Y-117200000D01*
D44*
X146500000Y-117700000D02*
X146300000Y-117500000D01*
X123900000Y-104387500D02*
X122712500Y-104387500D01*
X127887500Y-104387500D02*
X127600000Y-104100000D01*
X124500000Y-94375000D02*
X125875000Y-94375000D01*
X141797500Y-114524400D02*
X141797500Y-113502500D01*
D45*
X147500000Y-117000000D02*
X147500000Y-120500000D01*
D44*
X142887500Y-122800000D02*
X142900000Y-122812500D01*
X129435001Y-108208700D02*
X129935000Y-108208700D01*
X121985000Y-119500000D02*
X124385000Y-119500000D01*
X146300000Y-117500000D02*
X145150000Y-117500000D01*
X124500000Y-99625000D02*
X124500000Y-97100000D01*
X128480000Y-106800000D02*
X128480000Y-106320000D01*
X134100000Y-108820000D02*
X133720000Y-108820000D01*
X125025000Y-108250000D02*
X125100000Y-108175000D01*
X121685000Y-115300000D02*
X121685000Y-119215000D01*
X136020000Y-116100000D02*
X135400000Y-116100000D01*
X141900000Y-122800000D02*
X142887500Y-122800000D01*
X131145300Y-108915000D02*
X131145300Y-109915001D01*
D45*
X142100000Y-115900000D02*
X144700000Y-115900000D01*
D44*
X141797500Y-113502500D02*
X142000000Y-113300000D01*
X123350000Y-108250000D02*
X125025000Y-108250000D01*
X128480000Y-106800000D02*
X129720000Y-106800000D01*
X125875000Y-94375000D02*
X126700000Y-95200000D01*
X141297500Y-101782500D02*
X141780000Y-101300000D01*
D45*
X146400000Y-115900000D02*
X147500000Y-117000000D01*
D44*
X147224400Y-109097500D02*
X145402500Y-109097500D01*
X122275000Y-109325000D02*
X123350000Y-108250000D01*
X128075000Y-115050000D02*
X127150000Y-115050000D01*
X137950000Y-95260000D02*
X138940000Y-95260000D01*
X124385000Y-119500000D02*
X124385000Y-120700000D01*
D45*
X141300000Y-116900000D02*
X141300000Y-117500000D01*
D44*
X121685000Y-119200000D02*
X121985000Y-119500000D01*
D45*
X120650000Y-110075000D02*
X120725000Y-110000000D01*
X120725000Y-107425000D02*
X120850000Y-107300000D01*
X120725000Y-110000000D02*
X120725000Y-107425000D01*
X120650000Y-112400000D02*
X120650000Y-110075000D01*
X120850000Y-107300000D02*
X120850000Y-103550000D01*
D44*
X130462500Y-102812500D02*
X130500000Y-102775000D01*
X128900000Y-102812500D02*
X130462500Y-102812500D01*
X123900000Y-102812500D02*
X125512500Y-102812500D01*
X129775000Y-99700000D02*
X128100000Y-99700000D01*
X128100000Y-99700000D02*
X126700000Y-98300000D01*
X126700000Y-98300000D02*
X126700000Y-97157500D01*
X144562500Y-124387500D02*
X144600000Y-124425000D01*
X142900000Y-124387500D02*
X144562500Y-124387500D01*
D45*
X125000000Y-112400000D02*
X125600000Y-113000000D01*
X123950000Y-112400000D02*
X125000000Y-112400000D01*
X125600000Y-116160000D02*
X124860000Y-116900000D01*
X125600000Y-113000000D02*
X125600000Y-116160000D01*
D44*
X127875000Y-116900000D02*
X128075000Y-116700000D01*
X124385000Y-116900000D02*
X127875000Y-116900000D01*
D45*
X124860000Y-116900000D02*
X124385000Y-116900000D01*
D44*
X144325000Y-99700000D02*
X144325000Y-99375000D01*
X146625000Y-97075000D02*
X147300000Y-97075000D01*
X144325000Y-99375000D02*
X146625000Y-97075000D01*
X122225000Y-124700000D02*
X122225000Y-124075000D01*
X129675000Y-118600000D02*
X138000000Y-118600000D01*
X126475000Y-121800000D02*
X129675000Y-118600000D01*
X138000000Y-118600000D02*
X138100000Y-118700000D01*
X123900000Y-122400000D02*
X126275000Y-122400000D01*
X126275000Y-122400000D02*
X126775000Y-121900000D01*
X122225000Y-124075000D02*
X123900000Y-122400000D01*
X142300000Y-106100000D02*
X142297501Y-106097501D01*
X142297501Y-106097501D02*
X142297501Y-103170600D01*
X137353399Y-105597499D02*
X137380400Y-105624500D01*
X135870600Y-105597499D02*
X137353399Y-105597499D01*
X136168100Y-104800000D02*
X135870600Y-105097500D01*
X138400000Y-105100000D02*
X138100000Y-104800000D01*
X138100000Y-104800000D02*
X136168100Y-104800000D01*
X145297500Y-103170600D02*
X149986900Y-103170600D01*
X149986900Y-103170600D02*
X152047500Y-101110000D01*
X144297500Y-102452781D02*
X148180281Y-98570000D01*
X148180281Y-98570000D02*
X152047500Y-98570000D01*
X144297500Y-103170600D02*
X144297500Y-102452781D01*
X143797501Y-102202499D02*
X147950000Y-98050000D01*
X143797501Y-103170600D02*
X143797501Y-102202499D01*
X150027500Y-98050000D02*
X152047500Y-96030000D01*
X147950000Y-98050000D02*
X150027500Y-98050000D01*
X146745000Y-98300000D02*
X146800000Y-98300000D01*
X142797500Y-103170600D02*
X142797500Y-102247500D01*
X142797500Y-102247500D02*
X146645000Y-98400000D01*
X146645000Y-98400000D02*
X146745000Y-98300000D01*
X148397500Y-110097500D02*
X151610000Y-113310000D01*
X147224400Y-110097500D02*
X148397500Y-110097500D01*
X151610000Y-113310000D02*
X152047500Y-113310000D01*
X147224400Y-109597501D02*
X148560001Y-109597501D01*
X149732500Y-110770000D02*
X152047500Y-110770000D01*
X148560001Y-109597501D02*
X149732500Y-110770000D01*
X147224400Y-106097500D02*
X149915000Y-106097500D01*
X149915000Y-106097500D02*
X152047500Y-108230000D01*
X151954999Y-105597499D02*
X152047500Y-105690000D01*
X147224400Y-105597499D02*
X151954999Y-105597499D01*
X147224400Y-112597500D02*
X147897500Y-112597500D01*
X149200000Y-113900000D02*
X149200000Y-122662500D01*
X149200000Y-122662500D02*
X152047500Y-125510000D01*
X147897500Y-112597500D02*
X149200000Y-113900000D01*
X149700000Y-113650001D02*
X149700000Y-120622500D01*
X149700000Y-120622500D02*
X152047500Y-122970000D01*
X148147500Y-112097501D02*
X149700000Y-113650001D01*
X147224400Y-112097501D02*
X148147500Y-112097501D01*
X147224400Y-111097501D02*
X147997501Y-111097501D01*
X147997501Y-111097501D02*
X150200000Y-113300000D01*
X150200000Y-113300000D02*
X150200000Y-118582500D01*
X150200000Y-118582500D02*
X152047500Y-120430000D01*
X150700000Y-113131250D02*
X150700000Y-116542500D01*
X148166249Y-110597499D02*
X150700000Y-113131250D01*
X147224400Y-110597499D02*
X148166249Y-110597499D01*
X150700000Y-116542500D02*
X152047500Y-117890000D01*
X137000000Y-93160000D02*
X141560000Y-93160000D01*
X131200000Y-95885000D02*
X131200000Y-96950000D01*
X133925000Y-93160000D02*
X137000000Y-93160000D01*
X142700000Y-94300000D02*
X142700000Y-96850000D01*
X141560000Y-93160000D02*
X142700000Y-94300000D01*
X133925000Y-93160000D02*
X131200000Y-95885000D01*
X137400000Y-101200000D02*
X136300000Y-101200000D01*
X138297499Y-103170600D02*
X138297499Y-102097499D01*
X138297499Y-102097499D02*
X137400000Y-101200000D01*
X141297500Y-113297500D02*
X141297500Y-114524400D01*
X141000000Y-113000000D02*
X141297500Y-113297500D01*
X139297499Y-114524400D02*
X139297499Y-115602501D01*
X125472501Y-117625000D02*
X125397501Y-117550000D01*
X137275000Y-117625000D02*
X125472501Y-117625000D01*
X125397501Y-117550000D02*
X124385000Y-117550000D01*
X139297499Y-115602501D02*
X137275000Y-117625000D01*
X125397501Y-118200000D02*
X124385000Y-118200000D01*
X125472501Y-118125000D02*
X125397501Y-118200000D01*
X137475000Y-118125000D02*
X125472501Y-118125000D01*
X139797501Y-114524400D02*
X139797501Y-115802499D01*
X139797501Y-115802499D02*
X137475000Y-118125000D01*
X139797501Y-100502499D02*
X141200000Y-99100000D01*
X139797501Y-103170600D02*
X139797501Y-100502499D01*
X141200000Y-99100000D02*
X141200000Y-96850000D01*
X135900000Y-95410000D02*
X136050000Y-95260000D01*
X135900000Y-97075000D02*
X135900000Y-95410000D01*
X130669491Y-104425000D02*
X133341992Y-107097501D01*
X133341992Y-107097501D02*
X135870600Y-107097501D01*
X130500000Y-104425000D02*
X130669491Y-104425000D01*
X132797500Y-107597500D02*
X135870600Y-107597500D01*
X126725000Y-104425000D02*
X127600000Y-105300000D01*
X130500000Y-105300000D02*
X132797500Y-107597500D01*
X125550000Y-104425000D02*
X126725000Y-104425000D01*
X127600000Y-105300000D02*
X130500000Y-105300000D01*
X136800000Y-99700000D02*
X138797500Y-101697500D01*
X138797500Y-101697500D02*
X138797500Y-103170600D01*
X131425000Y-99700000D02*
X136800000Y-99700000D01*
X148500000Y-121500000D02*
X148500000Y-115600000D01*
X146100000Y-113200000D02*
X144860079Y-113200000D01*
X148500000Y-115600000D02*
X146100000Y-113200000D01*
X144600000Y-122775000D02*
X147225000Y-122775000D01*
X144860079Y-113200000D02*
X144297500Y-113762579D01*
X147225000Y-122775000D02*
X148500000Y-121500000D01*
X144297500Y-113762579D02*
X144297500Y-114524400D01*
X137800000Y-98725000D02*
X137800000Y-98800000D01*
X137800000Y-98800000D02*
X139297499Y-100297499D01*
X135900000Y-98725000D02*
X137800000Y-98725000D01*
X139297499Y-100297499D02*
X139297499Y-103170600D01*
X136650000Y-113300000D02*
X137900000Y-113300000D01*
X129725000Y-115050000D02*
X130375000Y-114400000D01*
X138297499Y-113697499D02*
X138297499Y-114524400D01*
X130375000Y-114400000D02*
X135550000Y-114400000D01*
X135550000Y-114400000D02*
X136650000Y-113300000D01*
X129725000Y-116700000D02*
X129725000Y-115050000D01*
X137900000Y-113300000D02*
X138297499Y-113697499D01*
X129500000Y-111675000D02*
X129575000Y-111675000D01*
X129575000Y-111675000D02*
X130497500Y-112597500D01*
X130497500Y-112597500D02*
X135870600Y-112597500D01*
X129935000Y-111240000D02*
X129500000Y-111675000D01*
X129935000Y-110121300D02*
X129935000Y-111240000D01*
X130434999Y-110121300D02*
X130434999Y-111009999D01*
X131100000Y-111675000D02*
X132775000Y-111675000D01*
X132775000Y-111675000D02*
X133197501Y-112097501D01*
X130434999Y-111009999D02*
X131100000Y-111675000D01*
X133197501Y-112097501D02*
X135870600Y-112097501D01*
X140297500Y-100802500D02*
X140297500Y-103170600D01*
X142275000Y-99600000D02*
X141500000Y-99600000D01*
X142375000Y-99700000D02*
X142275000Y-99600000D01*
X141500000Y-99600000D02*
X140297500Y-100802500D01*
X136770600Y-103170600D02*
X137797500Y-103170600D01*
X123200000Y-101500000D02*
X135100000Y-101500000D01*
X135100000Y-101500000D02*
X136770600Y-103170600D01*
X121300000Y-99625000D02*
X121300000Y-94375000D01*
X121325000Y-99625000D02*
X123200000Y-101500000D01*
X121300000Y-99625000D02*
X121325000Y-99625000D01*
X128724700Y-108915000D02*
X127715000Y-108915000D01*
X133600000Y-111300000D02*
X133897500Y-111597500D01*
X133897500Y-111597500D02*
X135870600Y-111597500D01*
X134366092Y-111097501D02*
X135870600Y-111097501D01*
X131145300Y-108414999D02*
X131683590Y-108414999D01*
X131683590Y-108414999D02*
X134366092Y-111097501D01*
X140797499Y-115447500D02*
X142549999Y-117200000D01*
X140797499Y-114524400D02*
X140797499Y-115447500D01*
X142549999Y-117200000D02*
X142950000Y-117200000D01*
M02*
