G04 #@! TF.GenerationSoftware,KiCad,Pcbnew,(6.0.0)*
G04 #@! TF.CreationDate,2022-05-01T20:50:51-06:00*
G04 #@! TF.ProjectId,RX12G,52583132-472e-46b6-9963-61645f706362,rev?*
G04 #@! TF.SameCoordinates,Original*
G04 #@! TF.FileFunction,Soldermask,Top*
G04 #@! TF.FilePolarity,Negative*
%FSLAX46Y46*%
G04 Gerber Fmt 4.6, Leading zero omitted, Abs format (unit mm)*
G04 Created by KiCad (PCBNEW (6.0.0)) date 2022-05-01 20:50:51*
%MOMM*%
%LPD*%
G01*
G04 APERTURE LIST*
G04 Aperture macros list*
%AMRoundRect*
0 Rectangle with rounded corners*
0 $1 Rounding radius*
0 $2 $3 $4 $5 $6 $7 $8 $9 X,Y pos of 4 corners*
0 Add a 4 corners polygon primitive as box body*
4,1,4,$2,$3,$4,$5,$6,$7,$8,$9,$2,$3,0*
0 Add four circle primitives for the rounded corners*
1,1,$1+$1,$2,$3*
1,1,$1+$1,$4,$5*
1,1,$1+$1,$6,$7*
1,1,$1+$1,$8,$9*
0 Add four rect primitives between the rounded corners*
20,1,$1+$1,$2,$3,$4,$5,0*
20,1,$1+$1,$4,$5,$6,$7,0*
20,1,$1+$1,$6,$7,$8,$9,0*
20,1,$1+$1,$8,$9,$2,$3,0*%
G04 Aperture macros list end*
%ADD10R,1.200000X0.600000*%
%ADD11RoundRect,0.250000X-0.265000X-0.615000X0.265000X-0.615000X0.265000X0.615000X-0.265000X0.615000X0*%
%ADD12O,1.030000X1.730000*%
%ADD13RoundRect,0.218750X0.256250X-0.218750X0.256250X0.218750X-0.256250X0.218750X-0.256250X-0.218750X0*%
%ADD14R,0.576580X0.351536*%
%ADD15R,0.351536X0.576580*%
%ADD16RoundRect,0.200000X0.275000X-0.200000X0.275000X0.200000X-0.275000X0.200000X-0.275000X-0.200000X0*%
%ADD17RoundRect,0.200000X0.200000X0.275000X-0.200000X0.275000X-0.200000X-0.275000X0.200000X-0.275000X0*%
%ADD18RoundRect,0.200000X-0.275000X0.200000X-0.275000X-0.200000X0.275000X-0.200000X0.275000X0.200000X0*%
%ADD19R,1.650000X1.650000*%
%ADD20C,1.650000*%
%ADD21RoundRect,0.070000X0.300000X-0.650000X0.300000X0.650000X-0.300000X0.650000X-0.300000X-0.650000X0*%
%ADD22RoundRect,0.218750X-0.256250X0.218750X-0.256250X-0.218750X0.256250X-0.218750X0.256250X0.218750X0*%
%ADD23RoundRect,0.200000X-0.200000X-0.275000X0.200000X-0.275000X0.200000X0.275000X-0.200000X0.275000X0*%
%ADD24RoundRect,0.140000X0.170000X-0.140000X0.170000X0.140000X-0.170000X0.140000X-0.170000X-0.140000X0*%
%ADD25R,1.200000X1.400000*%
%ADD26RoundRect,0.250000X0.265000X0.615000X-0.265000X0.615000X-0.265000X-0.615000X0.265000X-0.615000X0*%
%ADD27R,0.279400X1.346200*%
%ADD28R,1.346200X0.279400*%
%ADD29R,0.900000X1.200000*%
%ADD30RoundRect,0.225000X-0.250000X0.225000X-0.250000X-0.225000X0.250000X-0.225000X0.250000X0.225000X0*%
%ADD31R,1.350000X0.400000*%
%ADD32O,0.950000X1.250000*%
%ADD33R,1.550000X1.500000*%
%ADD34O,1.550000X0.890000*%
%ADD35R,1.550000X1.200000*%
%ADD36RoundRect,0.225000X-0.225000X-0.250000X0.225000X-0.250000X0.225000X0.250000X-0.225000X0.250000X0*%
%ADD37RoundRect,0.140000X0.140000X0.170000X-0.140000X0.170000X-0.140000X-0.170000X0.140000X-0.170000X0*%
%ADD38R,1.000000X1.550000*%
%ADD39RoundRect,0.140000X-0.170000X0.140000X-0.170000X-0.140000X0.170000X-0.140000X0.170000X0.140000X0*%
%ADD40R,1.700000X1.700000*%
%ADD41O,1.700000X1.700000*%
%ADD42RoundRect,0.140000X-0.140000X-0.170000X0.140000X-0.170000X0.140000X0.170000X-0.140000X0.170000X0*%
G04 APERTURE END LIST*
D10*
X123350000Y-108250000D03*
X123350000Y-106350000D03*
X120850000Y-107300000D03*
D11*
X136500000Y-122100000D03*
D12*
X138000000Y-122100000D03*
X139500000Y-122100000D03*
D13*
X123900000Y-104387500D03*
X123900000Y-102812500D03*
D14*
X131145300Y-109915001D03*
X131145300Y-109415000D03*
X131145300Y-108915000D03*
X131145300Y-108414999D03*
D15*
X130434999Y-108208700D03*
X129935000Y-108208700D03*
X129435001Y-108208700D03*
D14*
X128724700Y-108414999D03*
X128724700Y-108915000D03*
X128724700Y-109415000D03*
X128724700Y-109915001D03*
D15*
X129435001Y-110121300D03*
X129935000Y-110121300D03*
X130434999Y-110121300D03*
D16*
X131100000Y-113325000D03*
X131100000Y-111675000D03*
X137800000Y-98725000D03*
X137800000Y-97075000D03*
D13*
X128900000Y-104387500D03*
X128900000Y-102812500D03*
D17*
X131425000Y-99700000D03*
X129775000Y-99700000D03*
D18*
X144600000Y-122775000D03*
X144600000Y-124425000D03*
D19*
X152047500Y-105690000D03*
D20*
X154587500Y-105690000D03*
X157127500Y-105690000D03*
X152047500Y-108230000D03*
X154587500Y-108230000D03*
X157127500Y-108230000D03*
X152047500Y-110770000D03*
X154587500Y-110770000D03*
X157127500Y-110770000D03*
X152047500Y-113310000D03*
X154587500Y-113310000D03*
X157127500Y-113310000D03*
D21*
X136050000Y-95260000D03*
X137950000Y-95260000D03*
X137000000Y-93160000D03*
D22*
X126700000Y-95582500D03*
X126700000Y-97157500D03*
D23*
X128075000Y-115050000D03*
X129725000Y-115050000D03*
D16*
X135900000Y-98725000D03*
X135900000Y-97075000D03*
D23*
X142375000Y-99700000D03*
X144025000Y-99700000D03*
D24*
X134100000Y-109780000D03*
X134100000Y-108820000D03*
D23*
X128050000Y-116675000D03*
X129700000Y-116675000D03*
D25*
X144850000Y-119400000D03*
X144850000Y-117200000D03*
X142950000Y-117200000D03*
X142950000Y-119400000D03*
D26*
X144200000Y-96950000D03*
D12*
X142700000Y-96950000D03*
X141200000Y-96950000D03*
D27*
X145297500Y-103170600D03*
X144797501Y-103170600D03*
X144297500Y-103170600D03*
X143797501Y-103170600D03*
X143297499Y-103170600D03*
X142797500Y-103170600D03*
X142297501Y-103170600D03*
X141797500Y-103170600D03*
X141297500Y-103170600D03*
X140797499Y-103170600D03*
X140297500Y-103170600D03*
X139797501Y-103170600D03*
X139297499Y-103170600D03*
X138797500Y-103170600D03*
X138297499Y-103170600D03*
X137797500Y-103170600D03*
D28*
X135870600Y-105097500D03*
X135870600Y-105597499D03*
X135870600Y-106097500D03*
X135870600Y-106597499D03*
X135870600Y-107097501D03*
X135870600Y-107597500D03*
X135870600Y-108097499D03*
X135870600Y-108597500D03*
X135870600Y-109097500D03*
X135870600Y-109597501D03*
X135870600Y-110097500D03*
X135870600Y-110597499D03*
X135870600Y-111097501D03*
X135870600Y-111597500D03*
X135870600Y-112097501D03*
X135870600Y-112597500D03*
D27*
X137797500Y-114524400D03*
X138297499Y-114524400D03*
X138797500Y-114524400D03*
X139297499Y-114524400D03*
X139797501Y-114524400D03*
X140297500Y-114524400D03*
X140797499Y-114524400D03*
X141297500Y-114524400D03*
X141797500Y-114524400D03*
X142297501Y-114524400D03*
X142797500Y-114524400D03*
X143297499Y-114524400D03*
X143797501Y-114524400D03*
X144297500Y-114524400D03*
X144797501Y-114524400D03*
X145297500Y-114524400D03*
D28*
X147224400Y-112597500D03*
X147224400Y-112097501D03*
X147224400Y-111597500D03*
X147224400Y-111097501D03*
X147224400Y-110597499D03*
X147224400Y-110097500D03*
X147224400Y-109597501D03*
X147224400Y-109097500D03*
X147224400Y-108597500D03*
X147224400Y-108097499D03*
X147224400Y-107597500D03*
X147224400Y-107097501D03*
X147224400Y-106597499D03*
X147224400Y-106097500D03*
X147224400Y-105597499D03*
X147224400Y-105097500D03*
D29*
X120650000Y-112400000D03*
X123950000Y-112400000D03*
D24*
X146500000Y-119480000D03*
X146500000Y-118520000D03*
D19*
X152047500Y-93490000D03*
D20*
X154587500Y-93490000D03*
X157127500Y-93490000D03*
X152047500Y-96030000D03*
X154587500Y-96030000D03*
X157127500Y-96030000D03*
X152047500Y-98570000D03*
X154587500Y-98570000D03*
X157127500Y-98570000D03*
X152047500Y-101110000D03*
X154587500Y-101110000D03*
X157127500Y-101110000D03*
D30*
X125100000Y-106625000D03*
X125100000Y-108175000D03*
D31*
X124385000Y-116900000D03*
X124385000Y-117550000D03*
X124385000Y-118200000D03*
X124385000Y-118850000D03*
X124385000Y-119500000D03*
D32*
X124385000Y-115700000D03*
X124385000Y-120700000D03*
D33*
X121685000Y-117200000D03*
D34*
X121685000Y-114700000D03*
D35*
X121685000Y-115300000D03*
D34*
X121685000Y-121700000D03*
D33*
X121685000Y-119200000D03*
D35*
X121685000Y-121100000D03*
D36*
X120725000Y-110000000D03*
X122275000Y-110000000D03*
D37*
X130680000Y-106800000D03*
X129720000Y-106800000D03*
D38*
X121300000Y-99625000D03*
X121300000Y-94375000D03*
X124500000Y-99625000D03*
X124500000Y-94375000D03*
D16*
X129500000Y-113325000D03*
X129500000Y-111675000D03*
D39*
X149100000Y-108220000D03*
X149100000Y-109180000D03*
D19*
X152047500Y-117890000D03*
D20*
X154587500Y-117890000D03*
X157127500Y-117890000D03*
X152047500Y-120430000D03*
X154587500Y-120430000D03*
X157127500Y-120430000D03*
X152047500Y-122970000D03*
X154587500Y-122970000D03*
X157127500Y-122970000D03*
X152047500Y-125510000D03*
X154587500Y-125510000D03*
X157127500Y-125510000D03*
D26*
X132700000Y-96950000D03*
D12*
X131200000Y-96950000D03*
X129700000Y-96950000D03*
D37*
X137280000Y-116100000D03*
X136320000Y-116100000D03*
D17*
X128425000Y-121900000D03*
X126775000Y-121900000D03*
D22*
X142900000Y-122812500D03*
X142900000Y-124387500D03*
D40*
X122225000Y-124700000D03*
D41*
X124765000Y-124700000D03*
X127305000Y-124700000D03*
X129845000Y-124700000D03*
X132385000Y-124700000D03*
D37*
X133980000Y-105950000D03*
X133020000Y-105950000D03*
D42*
X140820000Y-101300000D03*
X141780000Y-101300000D03*
D16*
X125550000Y-104425000D03*
X125550000Y-102775000D03*
D42*
X127520000Y-106800000D03*
X128480000Y-106800000D03*
D16*
X130500000Y-104425000D03*
X130500000Y-102775000D03*
D22*
X147300000Y-95412500D03*
X147300000Y-96987500D03*
D39*
X140300000Y-116920000D03*
X140300000Y-117880000D03*
M02*
